<svg xmlns="http://www.w3.org/2000/svg" width="15.014" height="15.014" viewBox="0 0 15.014 15.014">
  <g id="DEI" transform="translate(-19 -19)">
    <path id="Path_3921" data-name="Path 3921" d="M37.117,33a4.117,4.117,0,1,0,4.117,4.117A4.117,4.117,0,0,0,37.117,33Zm0,6.78a2.664,2.664,0,1,1,2.664-2.664A2.664,2.664,0,0,1,37.117,39.78Z" transform="translate(-10.61 -10.61)" fill="#969696"/>
    <path id="Path_3922" data-name="Path 3922" d="M50,20.453a6.054,6.054,0,0,1,3.027.811L53.753,20A7.507,7.507,0,0,0,50,19Z" transform="translate(-23.493)" fill="#969696"/>
    <path id="Path_3923" data-name="Path 3923" d="M71.65,35.223a6.054,6.054,0,0,1,.811,3.027h1.453A7.508,7.508,0,0,0,72.909,34.5Z" transform="translate(-39.9 -11.743)" fill="#969696"/>
    <path id="Path_3924" data-name="Path 3924" d="M62.5,64.716l.726,1.259a7.507,7.507,0,0,0,2.748-2.748L64.716,62.5A6.054,6.054,0,0,1,62.5,64.716Z" transform="translate(-32.966 -32.966)" fill="#969696"/>
    <path id="Path_3925" data-name="Path 3925" d="M34.5,72.91a7.507,7.507,0,0,0,3.753,1V72.462a6.053,6.053,0,0,1-3.027-.811Z" transform="translate(-11.747 -39.901)" fill="#969696"/>
    <path id="Path_3926" data-name="Path 3926" d="M19,50a7.508,7.508,0,0,0,1.006,3.755l1.259-.728A6.054,6.054,0,0,1,20.453,50Z" transform="translate(0 -23.493)" fill="#969696"/>
    <path id="Path_3927" data-name="Path 3927" d="M25.9,23.15A7.507,7.507,0,0,0,23.15,25.9l1.259.726a6.054,6.054,0,0,1,2.216-2.216Z" transform="translate(-3.145 -3.145)" fill="#969696"/>
  </g>
</svg>
