<svg xmlns="http://www.w3.org/2000/svg" width="26" height="26" viewBox="0 0 26 26">
  <g id="header_icon" data-name="header icon" transform="translate(-339 -116)">
    <g id="frame" transform="translate(340 117)" fill="none" stroke="#fff" stroke-width="1" opacity="0">
      <rect width="24" height="24" stroke="none"/>
      <rect x="-0.5" y="-0.5" width="25" height="25" fill="none"/>
    </g>
    <g id="people" transform="translate(339.5 120.5)">
      <path id="Path_7332" data-name="Path 7332" d="M12.881,7.763a3.631,3.631,0,1,1,3.631-3.631A3.627,3.627,0,0,1,12.881,7.763Zm0-6.49A2.859,2.859,0,1,0,15.74,4.131,2.869,2.869,0,0,0,12.881,1.273Z" transform="translate(-0.395)" fill="#222" stroke="#222" stroke-width="0.8"/>
      <path id="Path_7333" data-name="Path 7333" d="M20.807,8.2a2.55,2.55,0,1,1,2.55-2.55A2.539,2.539,0,0,1,20.807,8.2Zm0-4.326a1.777,1.777,0,1,0,1.777,1.777A1.781,1.781,0,0,0,20.807,3.87Z" transform="translate(-0.827 -0.124)" fill="#222" stroke="#222" stroke-width="0.8"/>
      <path id="Path_7334" data-name="Path 7334" d="M5.064,8.2a2.55,2.55,0,1,1,2.55-2.55A2.539,2.539,0,0,1,5.064,8.2Zm0-4.326A1.777,1.777,0,1,0,6.841,5.647,1.781,1.781,0,0,0,5.064,3.87Z" transform="translate(-0.073 -0.124)" fill="#222" stroke="#222" stroke-width="0.8"/>
      <path id="Path_7335" data-name="Path 7335" d="M20.779,14.106a15.158,15.158,0,0,1-2.215-.129l-.309-.052v-.438a5.713,5.713,0,0,0-.979-3.142l-.129-.18.1-.206a4.037,4.037,0,0,1,3.5-2.292,4.229,4.229,0,0,1,4.017,4.249c0,2.189-2.034,2.189-3.992,2.189Zm-1.751-.85a15.145,15.145,0,0,0,1.751.077c2.447,0,3.219-.206,3.219-1.417A3.456,3.456,0,0,0,20.754,8.44a3.225,3.225,0,0,0-2.73,1.674,6.459,6.459,0,0,1,1,3.142Z" transform="translate(-0.773 -0.343)" fill="#222" stroke="#222" stroke-width="0.8"/>
      <path id="Path_7336" data-name="Path 7336" d="M4.992,14.107c-1.957,0-3.992,0-3.992-2.189A4.19,4.19,0,0,1,4.992,7.668a4.007,4.007,0,0,1,3.5,2.292l.1.206-.129.18a5.4,5.4,0,0,0-.953,3.116V13.9l-.309.052a11.745,11.745,0,0,1-2.215.154Zm0-5.666a3.434,3.434,0,0,0-3.219,3.477c0,1.21.773,1.416,3.219,1.416a15.146,15.146,0,0,0,1.751-.077,6.164,6.164,0,0,1,.979-3.142,3.225,3.225,0,0,0-2.73-1.674Z" transform="translate(0 -0.343)" fill="#222" stroke="#222" stroke-width="0.8"/>
      <path id="Path_7337" data-name="Path 7337" d="M12.774,16.536c-2.962,0-5.769,0-5.769-3.065a6.14,6.14,0,0,1,5.769-6.155,6.14,6.14,0,0,1,5.769,6.155C18.542,16.536,15.735,16.536,12.774,16.536Zm0-8.447a5.349,5.349,0,0,0-5,5.383c0,2.086,1.519,2.292,5,2.292s5-.206,5-2.292a5.349,5.349,0,0,0-5-5.383Z" transform="translate(-0.288 -0.326)" fill="#222" stroke="#222" stroke-width="0.8"/>
    </g>
  </g>
</svg>
