<svg xmlns="http://www.w3.org/2000/svg" width="26" height="26" viewBox="0 0 26 26">
  <g id="header_icon" data-name="header icon" transform="translate(-339 -116)">
    <g id="frame" transform="translate(340 117)" fill="none" stroke="#fff" stroke-width="1" opacity="0">
      <rect width="24" height="24" stroke="none"/>
      <rect x="-0.5" y="-0.5" width="25" height="25" fill="none"/>
    </g>
    <g id="retention" transform="translate(341.998 116.638)">
      <path id="Path_1058" data-name="Path 1058" d="M17.926,49.516a.671.671,0,0,0-.949,0c-3.7,3.692-1.972,1.97-5.647,5.636A3.406,3.406,0,0,1,6.506,50.34L12.154,44.7a.672.672,0,0,0,0-.951l-2.93-2.925a.673.673,0,0,0-.949,0c-3.687,3.681-1.958,1.956-5.667,5.655A8.889,8.889,0,0,0,15.189,59.046c3.471-3.463,2.181-2.176,5.666-5.655a.672.672,0,0,0,0-.951Zm1.5,3.4L17.538,54.8,15.56,52.828l1.891-1.888Zm-8.7-8.687L8.842,46.112,6.864,44.135,8.75,42.253Zm3.512,13.866A7.546,7.546,0,0,1,3.557,47.434l2.356-2.35L7.891,47.06,5.558,49.389A4.75,4.75,0,0,0,12.278,56.1l2.331-2.325,1.978,1.977Z" transform="translate(0 -39.27)" fill="#222" stroke="#222" stroke-width="0.5"/>
    </g>
  </g>
</svg>
