<svg xmlns="http://www.w3.org/2000/svg" width="26" height="26" viewBox="0 0 26 26">
  <g id="header_icon" data-name="header icon" transform="translate(-339 -116)">
    <g id="frame" transform="translate(340 117)" fill="none" stroke="#fff" stroke-width="1" opacity="0">
      <rect width="24" height="24" stroke="none"/>
      <rect x="-0.5" y="-0.5" width="25" height="25" fill="none"/>
    </g>
    <g id="calm" transform="translate(323.066 114.001)">
      <path id="Shape" d="M38.011,9.666a.523.523,0,0,0-.614-.393,12.835,12.835,0,0,0-4.469,2.014,13.576,13.576,0,0,0-2.615-4.131A.523.523,0,0,0,29.94,7a.471.471,0,0,0-.376.16,13.626,13.626,0,0,0-2.583,4.155,12.812,12.812,0,0,0-4.508-2.039.523.523,0,0,0-.614.392,12.917,12.917,0,0,0-.2,3.838A12.194,12.194,0,0,0,19.4,13.5a.523.523,0,0,0-.462.563c.016.187.415,4.606,3.451,7.1a10.6,10.6,0,0,0,6.581,2.053c.366,0,.651-.015.837-.029a.519.519,0,0,0,.13.026.506.506,0,0,0,.143-.029c.168.012.429.025.78.025a10.727,10.727,0,0,0,6.62-2.045c3.035-2.5,3.436-6.915,3.453-7.1a.523.523,0,0,0-.461-.562,12.013,12.013,0,0,0-2.26.011A12.907,12.907,0,0,0,38.011,9.666Zm-.872,3.987a9.145,9.145,0,0,0-4.3,1.842c-.089.071-.171.141-.254.218l-.012.012-.006.007-.021.022a9.007,9.007,0,0,0-2.074,2.926c0-.182-.005-.369-.014-.56A8.136,8.136,0,0,1,31.633,14.1a7.059,7.059,0,0,1,1.387-1.561,11.492,11.492,0,0,1,4.07-2.1,12.233,12.233,0,0,1,.049,3.221ZM29.943,8.317a12.7,12.7,0,0,1,2.127,3.671,7.5,7.5,0,0,0-2.138,3.268,7.571,7.571,0,0,0-2.095-3.231A12.744,12.744,0,0,1,29.943,8.317Zm-7.162,2.117a11.452,11.452,0,0,1,4.107,2.138,6.955,6.955,0,0,1,1.346,1.53,8.16,8.16,0,0,1,1.177,4.015c-.009.19-.013.374-.014.553a9.087,9.087,0,0,0-2.044-2.876.494.494,0,0,0-.085-.077c-.078-.07-.152-.144-.234-.209a9.282,9.282,0,0,0-4.306-1.858A12.283,12.283,0,0,1,22.782,10.434Zm.271,9.918a9.939,9.939,0,0,1-3-5.847,9.914,9.914,0,0,1,6.319,1.806,9.916,9.916,0,0,1,3,5.847A9.9,9.9,0,0,1,23.053,20.352ZM39.815,14.5a9.918,9.918,0,0,1-3,5.849,9.856,9.856,0,0,1-6.319,1.8c.036-.222.088-.5.162-.813a.19.19,0,0,1,.007-.033,9.436,9.436,0,0,1,2.625-4.817.6.6,0,0,0,.048-.049c.052-.045.1-.089.161-.136a8.576,8.576,0,0,1,4.178-1.685A12.244,12.244,0,0,1,39.815,14.5Z" transform="translate(-1 -1)" fill="#222" stroke="#222" stroke-width="0.4"/>
    </g>
  </g>
</svg>
