<svg xmlns="http://www.w3.org/2000/svg" width="12.478" height="12.478" viewBox="0 0 12.478 12.478"><path d="M11.991,6.093a.487.487,0,0,0,.487-.487V2.925a1.952,1.952,0,0,0-1.95-1.95H9.895V.487a.487.487,0,0,0-.975,0V.975H6.7V.487a.487.487,0,0,0-.975,0V.975H3.534V.487a.487.487,0,0,0-.975,0V.975H1.95A1.952,1.952,0,0,0,0,2.925v7.6a1.952,1.952,0,0,0,1.95,1.95H8.091l.049,0,.048,0a.487.487,0,0,0,.351-.149l3.8-3.948a.487.487,0,0,0-.351-.826H9.651A1.952,1.952,0,0,0,7.7,9.5v2H1.95a.976.976,0,0,1-.975-.975v-7.6A.976.976,0,0,1,1.95,1.95h.609v.487a.487.487,0,0,0,.975,0V1.95H5.727v.487a.487.487,0,0,0,.975,0V1.95H8.92v.487a.487.487,0,0,0,.975,0V1.95h.634a.976.976,0,0,1,.975.975V5.605A.487.487,0,0,0,11.991,6.093ZM8.676,9.5a.976.976,0,0,1,.975-.975h1.194L8.676,10.782Z"/><circle cx="0.5" cy="0.5" r="0.5" transform="translate(7 4)"/><circle cx="0.5" cy="0.5" r="0.5" transform="translate(7 6)"/><circle cx="0.5" cy="0.5" r="0.5" transform="translate(9 4)"/><circle cx="0.5" cy="0.5" r="0.5" transform="translate(5 6)"/><circle cx="0.5" cy="0.5" r="0.5" transform="translate(5 8)"/><circle cx="0.5" cy="0.5" r="0.5" transform="translate(5 4)"/><circle cx="0.5" cy="0.5" r="0.5" transform="translate(3 6)"/><circle cx="0.5" cy="0.5" r="0.5" transform="translate(3 8)"/><circle cx="0.5" cy="0.5" r="0.5" transform="translate(3 4)"/></svg>