<svg xmlns="http://www.w3.org/2000/svg" width="40" height="40" viewBox="0 0 40 40"><defs><style>.a{fill:#fff;}.b{fill:#2f4d6f;}</style></defs><g transform="translate(-10 -10)"><circle class="a" cx="20" cy="20" r="20" transform="translate(10 10)"/><path class="b" d="M197.392,196.341a19.981,19.981,0,0,0-13.219,34.98,15,15,0,0,1,13.219-7.91,7.069,7.069,0,1,1,5.518-11.431,7.065,7.065,0,0,1-5.518,11.431,14.932,14.932,0,0,1,7.413,1.967l.021-.041a8.349,8.349,0,0,0,12.244-5.523c.035-.2.064-.4.093-.6,0-.02,0-.041.005-.062l0,0a19.856,19.856,0,0,0-19.78-22.814Z" transform="translate(-167.393 -186.341)"/></g></svg>