<svg xmlns="http://www.w3.org/2000/svg" width="14" height="14" viewBox="0 0 14 14">
  <path id="info" d="M86.75,16.748a7,7,0,1,0,9.9,0A7,7,0,0,0,86.75,16.748Zm5.231.887a1.079,1.079,0,0,1,0,2.157A1.088,1.088,0,0,1,90.9,18.7a1.072,1.072,0,0,1,1.079-1.064ZM93.5,24.86a.706.706,0,0,1-.148.251,1.926,1.926,0,0,1-1.419.635,4.643,4.643,0,0,1-.783-.044,1.142,1.142,0,0,1-.9-1.153l.177-1.153c.118-.665.236-1.345.355-2.009,0-.044.015-.089.015-.133,0-.281-.089-.384-.369-.414a2.966,2.966,0,0,1-.355-.059.26.26,0,0,1-.192-.266c.015-.118.089-.192.236-.222a1.355,1.355,0,0,1,.251-.015h2.039c.251,0,.4.118.4.369a2.968,2.968,0,0,1-.074.621c-.133.768-.281,1.522-.414,2.29-.044.251-.1.5-.133.754a1.044,1.044,0,0,0,.03.369.293.293,0,0,0,.325.236,1.363,1.363,0,0,0,.4-.118,2.777,2.777,0,0,1,.3-.148c.177-.059.31.044.266.207Z" transform="translate(-84.7 -14.698)" fill="#646464"/>
</svg>
