<svg xmlns="http://www.w3.org/2000/svg" width="85" height="61.975" viewBox="0 0 85 61.975">
  <g id="drawing" transform="translate(-106.229 -71.959)">
    <g id="undraw_Hello_re_3evm" transform="translate(277.704 -105.566)">
      <g id="Group_904" data-name="Group 904" transform="translate(-167 100.305)">
        <path id="Path_3568" data-name="Path 3568" d="M214.057,469.944a9.52,9.52,0,0,0,9.193-1.619c3.22-2.7,4.23-7.155,5.051-11.278l2.43-12.194-5.087,3.5c-3.658,2.519-7.4,5.118-9.931,8.767s-3.638,8.629-1.6,12.576" transform="translate(-176.695 -367.632)" fill="#e6e6e6"/>
        <path id="Path_3569" data-name="Path 3569" d="M216.22,526.724a49.219,49.219,0,0,1-.683-11.339,17.834,17.834,0,0,1,3.439-9.35,15.555,15.555,0,0,1,3.991-3.616c.4-.252.766.381.369.631a14.787,14.787,0,0,0-5.849,7.057,23.7,23.7,0,0,0-1.258,10.21c.133,2.081.414,4.148.7,6.212a.379.379,0,0,1-.255.45A.368.368,0,0,1,216.22,526.724Z" transform="translate(-178.423 -409.649)" fill="#c8c8c8" stroke="#c8c8c8" stroke-width="1"/>
        <path id="Path_3570" data-name="Path 3570" d="M236.8,547.587a7.008,7.008,0,0,0,6.106,3.152c3.091-.147,5.668-2.3,7.988-4.352l6.861-6.058-4.541-.217c-3.266-.156-6.616-.3-9.726.705s-5.979,3.431-6.548,6.65" transform="translate(-194.046 -437.147)" fill="#e6e6e6"/>
        <path id="Path_3571" data-name="Path 3571" d="M212.863,570.111c2.478-4.385,5.352-9.258,10.488-10.815a11.7,11.7,0,0,1,4.411-.455c.468.04.351.762-.116.722a10.873,10.873,0,0,0-7.04,1.863,18.3,18.3,0,0,0-4.839,5.222c-.8,1.22-1.519,2.492-2.237,3.762C213.3,570.815,212.631,570.521,212.863,570.111Z" transform="translate(-176.521 -450.88)" fill="#c8c8c8" stroke="#c8c8c8" stroke-width="1"/>
        <path id="Path_3572" data-name="Path 3572" d="M195.544,603.645c.17,1.972.424,3.686,2.252,4.445v1.535h6.252V608.01c1.736-.8,1.91-2.462,2.075-4.365l1-11.621H194.544Z" transform="translate(-163.172 -475.157)" fill="#505f79"/>
      </g>
      <line id="Line_733" data-name="Line 733" x2="84" transform="translate(-170.974 235)" fill="none" stroke="#dcdcdc" stroke-linecap="round" stroke-width="1"/>
      <line id="Line_737" data-name="Line 737" x2="44" transform="translate(-150.974 239)" fill="none" stroke="#dcdcdc" stroke-linecap="round" stroke-width="1"/>
    </g>
  </g>
</svg>
