<svg xmlns="http://www.w3.org/2000/svg" width="260" height="120" viewBox="0 0 260 120">
  <g id="drawing" transform="translate(-21.229 -18.434)">
    <rect id="Rectangle_2522" data-name="Rectangle 2522" width="260" height="120" transform="translate(21.229 18.434)" fill="red" opacity="0.005"/>
    <g id="group" transform="translate(-23.758 52.457)">
      <g id="woman">
        <path id="Path_4346" data-name="Path 4346" d="M744.5,353.685v-6.333a14.352,14.352,0,0,1,28.7,0v6.333a3.239,3.239,0,0,1-3.235,3.235h-19.4l-1.585-3.368v3.368h-1.25a3.238,3.238,0,0,1-3.235-3.235Z" transform="translate(-581.247 -327.263)" fill="#3c3c3c"/>
        <path id="Path_4359" data-name="Path 4359" d="M566.78,342.456a5.532,5.532,0,0,1-1.761,1.586,20.146,20.146,0,0,1-2.4,1.318,1.286,1.286,0,0,0,.11,1.058c1.291,3.1,3.019,6.185,5.625,7.518a12.046,12.046,0,0,0,4.246,1.01,2.545,2.545,0,0,0,2.556-.833,14.9,14.9,0,0,0,4.372-9.223c.035-.326.035-.724-.19-.9a.731.731,0,0,0-.474-.083,3.028,3.028,0,0,1-2.479-2.109,12.861,12.861,0,0,1-.737-3.787c0-.029-6.205-.191-6.765-.2-.874-.01-1.162.117-1.247,1.226A7,7,0,0,1,566.78,342.456Z" transform="translate(-393.851 -311.232)" fill="#ffb8b8"/>
        <circle id="Ellipse_1677" data-name="Ellipse 1677" cx="9.41" cy="9.41" r="9.41" transform="translate(168.775 11.185)" fill="#ffb8b8"/>
        <path id="Path_4348" data-name="Path 4348" d="M831.725,433.806l1.711-.57s3.422,1.426,3.422,3.992.57,12.832.57,12.832l-7.7.855Z" transform="translate(-640.992 -398.528)" fill="#c9d7e4"/>
        <path id="Path_4349" data-name="Path 4349" d="M714.668,492.591h6.784l2.321-19.45.84-7.024.115-.969.62-5.2a3.587,3.587,0,0,0-5.462-3.238,3.511,3.511,0,0,0-.4.288,3.569,3.569,0,0,0-1.3,2.62l-.611,5.718Z" transform="translate(-560.335 -415.611)" fill="#ffb8b8"/>
        <path id="Path_4350" data-name="Path 4350" d="M730.65,448.054l-7.7-.855s.57-10.265.57-12.832,3.422-3.992,3.422-3.992l1.711.57Z" transform="translate(-566.142 -396.522)" fill="#c9d7e4"/>
        <path id="Path_4351" data-name="Path 4351" d="M740.35,549.332h32.185a62.971,62.971,0,0,0-4.155-11.32c-.283-.577-.451-.885-.451-.885s-13.687-.27-22.242,3.152a4.2,4.2,0,0,0-1.436,1.024C742.771,542.833,741.476,545.707,740.35,549.332Z" transform="translate(-578.338 -472.353)" fill="#2f2e41"/>
        <path id="Path_4352" data-name="Path 4352" d="M741.134,425.061a42.016,42.016,0,0,0,8.647,1.265c3.769,0,3.144-1.4,6.911-1.265L763,426.933l.9.249s-.855,17.109-3.137,20.246-1.711,4.848-1.141,5.133,2-.285,1.141,1.141-2,.57-.855,1.426,1.711,3.992,1.711,3.992l-25.093,3.422s-.855-11.121-3.137-16.824a73.489,73.489,0,0,1-2.852-7.984l1.711-11.406Z" transform="translate(-571.465 -392.474)" fill="#c9d7e4"/>
        <path id="Path_4353" data-name="Path 4353" d="M760.5,343.269a9.269,9.269,0,0,1,18.538,0v4.186H760.5Z" transform="translate(-592.463 -327.963)" fill="#3c3c3c"/>
        <path id="Path_4358" data-name="Path 4358" d="M355.413,484.674h-54.48s0-4.409,0-32.926a1.805,1.805,0,0,1,1.805-1.805h50.869a1.805,1.805,0,0,1,1.805,1.805C355.414,480.265,355.413,484.674,355.413,484.674Z" transform="translate(-150.946 -406.965)" fill="#969696"/>
        <circle id="Ellipse_1678" data-name="Ellipse 1678" cx="2.5" cy="2.5" r="2.5" transform="translate(174.688 58.478)" fill="#fff"/>
      </g>
      <g id="Group_1005" data-name="Group 1005">
        <path id="Path_4337" data-name="Path 4337" d="M598.2,501.892a2.392,2.392,0,1,0-2.392,2.392c.03,0,.059,0,.088,0a21.282,21.282,0,0,1,.939,5.931,18.853,18.853,0,0,1-.171,3,2.215,2.215,0,0,1-1,1.843c-.522.246-.067,1.019.453.775a2.725,2.725,0,0,0,1.346-2.017,15.942,15.942,0,0,0,.27-3.182,22.146,22.146,0,0,0-.961-6.547A2.391,2.391,0,0,0,598.2,501.892Z" transform="translate(-475.335 -445.979)" fill="#d3d3d3"/>
        <path id="Path_482" data-name="Path 482" d="M605.767,523.316s-3.207-7.895,6.414-13.816Z" transform="translate(-483.635 -452.989)" fill="#e6e6e6"/>
        <path id="Path_483" data-name="Path 483" d="M586.347,542.147s-.978-5.627-8.551-5.579Z" transform="translate(-464.387 -471.964)" fill="#e6e6e6"/>
        <path id="Path_4338" data-name="Path 4338" d="M583.644,558.235h-13.15a1.345,1.345,0,0,1-1.209-.757l-2.863-5.885a1.345,1.345,0,0,1,1.209-1.933h18.876a1.345,1.345,0,0,1,1.209,1.933l-2.863,5.885A1.345,1.345,0,0,1,583.644,558.235Z" transform="translate(-456.318 -481.142)" fill="#f0f0f0"/>
      </g>
      <path id="Path_4357" data-name="Path 4357" d="M780.013,464.66H640.988c-.269,0-.488-.448-.488-1s.218-1,.488-1H780.013c.269,0,.488.448.488,1S780.282,464.66,780.013,464.66Z" transform="translate(-535.513 -385.683)" fill="#dcdcdc"/>
      <path id="Path_4361" data-name="Path 4361" d="M950.822,552.5H942a1.366,1.366,0,0,0-1.046.484,2.093,2.093,0,1,0,.54,3.939l.732,2.378a1.379,1.379,0,0,0,1.318.973h5.737a1.379,1.379,0,0,0,1.318-.973l1.544-5.016a1.379,1.379,0,0,0-1.318-1.784Zm-10.243,4.036a1.495,1.495,0,1,1,0-2.99c.027,0,.053.007.08.008a1.365,1.365,0,0,0,.021.73l.631,2.053A1.475,1.475,0,0,1,940.579,556.536Z" transform="translate(-717.228 -483.132)" fill="#e6e6e6"/>
    </g>
  </g>
</svg>
