<svg xmlns="http://www.w3.org/2000/svg" width="31" height="24.478" viewBox="0 0 31 24.478">
  <g id="monitor" transform="translate(-231.056 -433.997)">
    <path id="Path_6976" data-name="Path 6976" d="M110.664,140.426h1.957v.652H102.185v-.652h1.957v-3.913H93.381a.978.978,0,0,1-.978-.978v-.326h.056a.979.979,0,0,1-.056-.326v-16.3a.978.978,0,0,1,.978-.978h28.043a.978.978,0,0,1,.978.978v16.3a.98.98,0,0,1-.056.326h.056v.326a.978.978,0,0,1-.978.978H110.664Zm-17.609-5.217h28.7v-16.28a.658.658,0,0,0-.638-.676H93.693a.658.658,0,0,0-.638.676Z" transform="translate(139.153 316.897)" fill="#fff" stroke="#fff" stroke-width="1"/>
  </g>
</svg>
