<svg xmlns="http://www.w3.org/2000/svg" width="340" height="210" viewBox="0 0 340 210"><defs><style>.a{fill:red;opacity:0;}.b{fill:#f2f0ff;}.c{fill:#e9e6ff;}.d{fill:#ccc2ff;}.e{fill:#c4b8ff;}.f{fill:#7760db;}.g{fill:#fff;}.h{fill:#f8f7ff;}.i{fill:#b3a4f5;}.j{fill:#8b77e8;}.k{fill:#ffd259;}.l{fill:#ff95a9;}.m{fill:#ffe985;}.n{fill:#4f37b3;}.o{fill:#ddd6ff;}.p{fill:#ffccd6;}.q{fill:#40327a;}.r,.v{fill:none;}.s{fill:#ffaa45;}.t{fill:#ab9af7;}.u{fill:#ffc7bd;}.v{stroke:#8b77e8;stroke-miterlimit:10;stroke-width:2px;}</style></defs><g transform="translate(-200 -440)"><rect class="a" width="340" height="210" transform="translate(200 440)"/><g transform="translate(208.098 457.242)"><path class="b" d="M772.59,1383.661l-18.98-5.954a94.429,94.429,0,0,1,5.677-14.026l17.787,8.922A74.428,74.428,0,0,0,772.59,1383.661Z" transform="translate(-684.456 -1224.522)"/><path class="b" d="M832.093,1143.944l-17.443-9.563a94.681,94.681,0,0,1,22.854-27.6l12.663,15.347A74.854,74.854,0,0,0,832.093,1143.944Z" transform="translate(-738.209 -998.289)"/><path class="c" d="M1041.569,1040.424l-12.079-15.81a95.048,95.048,0,0,1,13.5-8.614l9.24,17.617A75.064,75.064,0,0,0,1041.569,1040.424Z" transform="translate(-927.403 -918.346)"/><path class="b" d="M1245.594,956.609a74.55,74.55,0,0,0-71.193-3.516l-8.662-17.906a94.438,94.438,0,0,1,90.234,4.454Z" transform="translate(-1047.388 -838.922)"/><path class="c" d="M1858.035,1076.646c-1.5-1.161-3.056-2.279-4.635-3.323l10.974-16.593c2,1.321,3.969,2.735,5.86,4.2Z" transform="translate(-1652.96 -954.214)"/><path class="b" d="M1936.6,1162.895a74.867,74.867,0,0,0-22.594-33.424l12.892-15.16a94.742,94.742,0,0,1,28.589,42.319Z" transform="translate(-1706.335 -1004.92)"/><path class="d" d="M2351.217,1489.167c-.085-.323-.169-.647-.257-.969l.768-.208q.133.487.259.976Z" transform="translate(-2091.125 -1333.993)"/><path class="d" d="M2248.064,1257.893a103.7,103.7,0,0,0-12.415-25.793l.662-.441a104.487,104.487,0,0,1,12.51,25.99Z" transform="translate(-1989.58 -1108.262)"/><path class="d" d="M2197.468,1178.823q-.7-.935-1.418-1.853l.627-.491q.724.926,1.433,1.867Z" transform="translate(-1954.707 -1059.669)"/><path class="d" d="M2002.776,997.22a104.693,104.693,0,0,0-19.476-16.333l.433-.667a105.434,105.434,0,0,1,19.625,16.457Z" transform="translate(-1767.354 -886.837)"/><path class="d" d="M1810.75,896.149a103.789,103.789,0,0,0-20.7-9.706l.257-.753a104.583,104.583,0,0,1,20.859,9.789Z" transform="translate(-1597.173 -803.591)"/><path class="d" d="M1718.11,865.279c-1.3-.369-2.635-.716-3.95-1.035l.188-.773c1.325.32,2.664.671,3.98,1.043Z" transform="translate(-1530.342 -784.024)"/><path class="d" d="M1265.15,871.1l-.22-.765q.731-.211,1.467-.412l.21.767Q1265.877,870.885,1265.15,871.1Z" transform="translate(-1134.738 -789.704)"/><path class="d" d="M993.608,905.409l-.468-.643A104.591,104.591,0,0,1,1019.11,891l.271.749A103.829,103.829,0,0,0,993.608,905.409Z" transform="translate(-895.392 -808.267)"/><path class="d" d="M947.8,1034.49l-.509-.611q.669-.555,1.344-1.1l.5.619Q948.462,1033.94,947.8,1034.49Z" transform="translate(-855.015 -933.123)"/><path class="d" d="M880.239,1073.776l-.569-.555c1.411-1.448,2.884-2.876,4.379-4.241l.537.587C883.1,1070.923,881.64,1072.339,880.239,1073.776Z" transform="translate(-795.467 -965.001)"/><path class="d" d="M676.484,1265.863l-.754-.254a104.521,104.521,0,0,1,11.253-23.389l.668.431A103.749,103.749,0,0,0,676.484,1265.863Z" transform="translate(-615.872 -1117.561)"/><path class="d" d="M664.955,1460.345l-.765-.22q.295-1.033.612-2.056l.76.239Q665.248,1459.32,664.955,1460.345Z" transform="translate(-605.71 -1307.645)"/><rect class="d" width="0.796" height="11.496" transform="translate(158.932 57.106)"/><rect class="d" width="1.806" height="0.796" transform="translate(182.072 124.073) rotate(-67.98)"/><rect class="d" width="44.754" height="0.796" transform="translate(184.996 116.819) rotate(-67.98)"/><rect class="d" width="48.008" height="0.795" transform="matrix(0.695, -0.719, 0.719, 0.695, 220.297, 117.715)"/><rect class="d" width="1.727" height="0.795" transform="translate(236.126 146.798) rotate(-24.01)"/><rect class="d" width="21.981" height="0.795" transform="translate(241.309 144.492) rotate(-24.01)"/><rect class="d" width="0.796" height="9.336" transform="matrix(0.927, -0.375, 0.375, 0.927, 121.49, 89.414)"/><rect class="d" width="0.796" height="17.196" transform="matrix(0.927, -0.375, 0.375, 0.927, 114.083, 71.08)"/><rect class="d" width="0.795" height="2.257" transform="matrix(0.719, -0.695, 0.695, 0.719, 110.224, 131.126)"/><rect class="d" width="0.795" height="63.437" transform="matrix(0.719, -0.695, 0.695, 0.719, 64.876, 84.183)"/><rect class="d" width="0.795" height="36.311" transform="translate(55.52 135.636) rotate(-66)"/><path class="e" d="M933.863,534.883a18.644,18.644,0,0,0,5.915-36.324l.119-.371a19.04,19.04,0,0,0-24.838,15.064l.392.062a18.839,18.839,0,0,0-.229,2.928,18.534,18.534,0,0,0,1.338,6.949l-.358.147a19.021,19.021,0,0,0,3.138,5.2l.3-.254A18.622,18.622,0,0,0,933.863,534.883Zm0-35.718A17.069,17.069,0,0,1,942,501.232l-.19.35a16.675,16.675,0,1,1-17.245,28.5l-.222.33a17.072,17.072,0,0,1,9.519-31.247Z" transform="translate(-826.633 -461.481)"/><path class="f" d="M969.348,502.22l-.128.383-.119.371A18.643,18.643,0,1,1,948.958,532.7l-.3.254-.307.26a19.438,19.438,0,1,0,21-31Z" transform="translate(-855.949 -465.897)"/><path class="f" d="M910.546,634.152a18.847,18.847,0,0,1,.229-2.926l-.391-.064-.4-.062a19.721,19.721,0,0,0-.239,3.052,19.338,19.338,0,0,0,1.4,7.246l.374-.15.358-.147a18.536,18.536,0,0,1-1.331-6.949Z" transform="translate(-821.956 -579.392)"/><path class="g" d="M952.471,520.29a16.277,16.277,0,0,0-9.075,29.792l-.222.33a16.674,16.674,0,1,0,17.245-28.5l-.191.349A16.28,16.28,0,0,0,952.471,520.29Zm12.872,7.929.024-.013.795,1.379-.025.014a15.243,15.243,0,0,1,1.664,6.175h.025v1.591H967.8a15.222,15.222,0,0,1-1.662,6.176l.024.014-.8,1.378-.024-.014a15.483,15.483,0,0,1-4.521,4.521l.014.025-1.379.8-.013-.024a15.232,15.232,0,0,1-6.178,1.662v.02h-1.591v-.025a15.238,15.238,0,0,1-6.175-1.659l-.016.026-1.378-.8.013-.024a15.448,15.448,0,0,1-4.516-4.524l-.029.017-.8-1.379.02-.011a15.229,15.229,0,0,1-1.651-6.179h-.026v-1.591h.02A15.223,15.223,0,0,1,938.8,529.6l-.024-.014.8-1.378.025.014a15.462,15.462,0,0,1,4.521-4.519l-.014-.025,1.378-.8.013.024a15.234,15.234,0,0,1,6.178-1.662v-.02h1.592v.027a15.243,15.243,0,0,1,6.176,1.652l.012-.02,1.379.8-.017.029A15.47,15.47,0,0,1,965.343,528.219Z" transform="translate(-845.24 -481.81)"/><path class="h" d="M1072.57,785.26Z" transform="translate(-965.34 -715.15)"/><path class="h" d="M1028.964,610.8l2.907,2.47-1.074,1.258-2.964-2.518a23.087,23.087,0,0,1-13.489,6.565l-.183.316a15.239,15.239,0,0,0,6.175,1.659v-.788h1.591v.8a15.231,15.231,0,0,0,6.181-1.662l-.4-.685,1.379-.8.4.684a15.481,15.481,0,0,0,4.521-4.521l-.684-.4.8-1.378.684.4a15.226,15.226,0,0,0,1.66-6.176h-.8v-1.593h.8a15.244,15.244,0,0,0-1.659-6.176l-.316.183A23.041,23.041,0,0,1,1028.964,610.8Z" transform="translate(-913.903 -550.473)"/><path class="h" d="M1201.17,656.68Z" transform="translate(-1078.589 -601.919)"/><path class="c" d="M1072.57,528.08Z" transform="translate(-965.34 -488.67)"/><path class="c" d="M966.066,530.6l.4-.689a15.242,15.242,0,0,0-6.177-1.652v.791h-1.592v-.8a15.233,15.233,0,0,0-6.178,1.662l.4.684-1.377.8-.4-.683a15.462,15.462,0,0,0-4.521,4.519l.684.4-.8,1.379-.685-.4a15.223,15.223,0,0,0-1.662,6.176h.8v1.592h-.792a15.23,15.23,0,0,0,1.651,6.179l.69-.4.8,1.379-.68.392a15.447,15.447,0,0,0,4.516,4.524l.4-.685,1.377.8-.211.366a23.087,23.087,0,0,0,13.489-6.565l-6.015-5.11a1.812,1.812,0,0,1-1.738-3.142,1.741,1.741,0,0,1,.642-.283l2.149-8.481,1.6.406-2.149,8.52a1.975,1.975,0,0,1,.255.288,1.822,1.822,0,0,1,.3,1.419l6.088,5.174a23.039,23.039,0,0,0,5.52-12.356l-.368.212-.8-1.388.686-.4a15.472,15.472,0,0,0-4.524-4.515l-.393.68Zm-18.485,10.514c-.836-.446-.389-1.655.295-1.578C949.2,539.68,948.613,541.665,947.581,541.112Zm2.569-3.326c-2.268.716-1.144-3.123.557-4.206,1.12-.716,2.9-1.333,3.159-.716.557,1.331-1.447,4.206-3.716,4.925Z" transform="translate(-852.259 -488.82)"/><path class="f" d="M937.149,544.867l.222-.329.222-.33a16.277,16.277,0,0,1,16.831-27.824l.194-.347.19-.35a17.073,17.073,0,0,0-17.659,29.18Z" transform="translate(-839.437 -475.936)"/><path class="f" d="M1070.153,589.176l-2.907-2.47-6.088-5.174a1.821,1.821,0,0,0-.3-1.419,1.975,1.975,0,0,0-.255-.288l2.149-8.52-1.6-.406L1059,579.381a1.745,1.745,0,0,0-.642.283,1.812,1.812,0,0,0,1.738,3.142l6.015,5.11,2.964,2.518Zm-11.119-7.759a.469.469,0,1,1,.66.119A.477.477,0,0,1,1059.035,581.417Z" transform="translate(-952.186 -526.379)"/><path class="f" d="M953.67,561.616l.4.686.014.023,1.378-.8-.014-.025-.4-.684Z" transform="translate(-839.863 -493.873)"/><path class="f" d="M830.3,344.748l-.4-.684-.014-.024-1.377.8.014.024.4.684Z" transform="translate(-729.644 -302.971)"/><path class="f" d="M1000.67,515.218l.684.394.025.014.8-1.378-.024-.013-.684-.4Z" transform="translate(-881.252 -452.501)"/><path class="f" d="M785.385,389.079l-.684-.4-.025-.014-.8,1.378.024.013.686.4Z" transform="translate(-690.341 -342.273)"/><path class="f" d="M1020.31,453.661h.818V452.07h-.818Z" transform="translate(-898.548 -398.105)"/><path class="f" d="M770.809,452.07h-.819v1.591h.819Z" transform="translate(-678.109 -398.105)"/><path class="f" d="M1001.465,390.448l.368-.211.316-.184.025-.014-.8-1.379-.024.014-.685.4Z" transform="translate(-881.252 -342.265)"/><path class="f" d="M784.6,513.83l-.69.4-.019.012.795,1.379.029-.017.68-.393Z" transform="translate(-690.35 -452.493)"/><path class="f" d="M954.081,344.04l-.012.02-.4.689,1.379.8.393-.68.017-.029Z" transform="translate(-839.863 -302.971)"/><path class="f" d="M830.3,561.616l-1.379-.8-.4.686-.013.023,1.377.8.016-.025.183-.318Z" transform="translate(-729.644 -493.873)"/><path class="f" d="M893.511,330.968v-.818H891.92v.818Z" transform="translate(-785.484 -290.739)"/><path class="f" d="M891.91,580.47v.819H893.5v-.819Z" transform="translate(-785.475 -511.178)"/><path class="g" d="M1069.4,653.57a.478.478,0,1,0-.66-.119A.478.478,0,0,0,1069.4,653.57Z" transform="translate(-961.89 -598.413)"/><path class="g" d="M985.485,565.807c-1.7,1.083-2.828,4.927-.557,4.206s4.274-3.594,3.716-4.918C988.383,564.474,986.606,565.1,985.485,565.807Z" transform="translate(-887.038 -521.042)"/><path class="g" d="M969.749,622.784c-.684-.076-1.134,1.132-.295,1.578C970.486,624.912,971.074,622.926,969.749,622.784Z" transform="translate(-874.132 -572.066)"/><path class="c" d="M1831.461,647.715a17.733,17.733,0,0,1-2.206-8.565h-2.785a20.519,20.519,0,0,0,2.565,9.908Z" transform="translate(-1629.245 -586.482)"/><path class="c" d="M1796.47,639.15a24.112,24.112,0,0,0,3,11.645l2.451-1.352a21.312,21.312,0,0,1-2.666-10.292Z" transform="translate(-1602.826 -586.482)"/><path class="c" d="M1846.441,736.27c.505.329,1.024.633,1.552.914l1.313-2.453a18.05,18.05,0,0,1-5.73-4.851l-2.2,1.7a20.52,20.52,0,0,0,2.516,2.736l-.532.6a21.315,21.315,0,0,1-2.619-2.84l-2.213,1.708a24.448,24.448,0,0,0,7.775,6.576l1.313-2.46c-.548-.292-1.087-.608-1.612-.955Z" transform="translate(-1639.866 -666.381)"/><path class="c" d="M1933.5,776.477c-.417-.142-.835-.3-1.241-.477l-1.093,2.559q.709.3,1.432.553Z" transform="translate(-1721.447 -706.995)"/><path class="c" d="M1919.37,806.184c.553.239,1.122.455,1.692.648l.9-2.638q-.758-.258-1.495-.574Z" transform="translate(-1711.055 -731.318)"/><path class="c" d="M1955.41,816.568c.37.081.747.154,1.122.217l.467-2.746q-.5-.084-.994-.19Z" transform="translate(-1742.793 -740.327)"/><path class="c" d="M1963.152,784.671q-.417-.069-.836-.161l-.6,2.72c.318.069.637.129.955.183Z" transform="translate(-1748.35 -714.489)"/><path class="c" d="M2022.91,795.024a23.826,23.826,0,0,0,9.922-3.691L2031.309,789a21.354,21.354,0,0,1-8.769,3.258Z" transform="translate(-1801.91 -718.443)"/><path class="c" d="M2025.823,763.87a17.5,17.5,0,0,1-7.292,2.713l.37,2.745a20.555,20.555,0,0,0,8.441-3.137Z" transform="translate(-1798.379 -696.313)"/><path class="c" d="M2109.507,586.72l-2.7.725a21.255,21.255,0,0,1,.256,10.055l-.778-.168a20.466,20.466,0,0,0-.246-9.68l-2.68.716a17.751,17.751,0,0,1-5.28,17.8l1.863,2.075a20.814,20.814,0,0,0,1.65-1.659l.6.526a21.234,21.234,0,0,1-1.713,1.724l1.867,2.072a24.113,24.113,0,0,0,7.162-24.18Zm-6.224,19.042-.636-.478c.4-.528.77-1.074,1.114-1.644l.679.414C2104.083,604.64,2103.694,605.216,2103.283,605.762Z" transform="translate(-1868.432 -540.31)"/><path class="c" d="M2130.51,567.974a17.567,17.567,0,0,1,.69,1.713l3-1.028a20.48,20.48,0,0,0-.814-2.029Z" transform="translate(-1896.991 -522.618)"/><path class="c" d="M2164.509,554.933a24.421,24.421,0,0,0-.977-2.423l-2.892,1.35a21.379,21.379,0,0,1,.846,2.108Z" transform="translate(-1923.525 -510.184)"/><path class="c" d="M1992.549,447.643a21.139,21.139,0,0,1,1.433,1.986l2.349-1.508A24.056,24.056,0,0,0,1976.019,437a24.429,24.429,0,0,0-3.059.193l.351,2.765a21.339,21.339,0,0,1,12.785,2.364l-.376.7a20.554,20.554,0,0,0-9.7-2.441,20.8,20.8,0,0,0-2.607.166l.351,2.762a17.989,17.989,0,0,1,2.256-.142,17.715,17.715,0,0,1,14.956,8.2l2.339-1.5a20.751,20.751,0,0,0-1.381-1.91Zm-3.876-2.689c-.252-.2-.508-.39-.77-.577l.461-.647q.408.288.8.6Z" transform="translate(-1758.248 -408.463)"/><path class="c" d="M1885.865,443.511a21.207,21.207,0,0,1,3.324-.845l-.467-2.746a24.136,24.136,0,0,0-10.292,4.4l3.791,5.114a17.762,17.762,0,0,1,7.567-3.234l-.466-2.746a20.329,20.329,0,0,0-3.2.814Z" transform="translate(-1675.003 -411.034)"/><path class="c" d="M1852.683,492.2l-4.205-4.775a24.54,24.54,0,0,0-2.268,2.282l4.8,4.178A17.9,17.9,0,0,1,1852.683,492.2Z" transform="translate(-1646.629 -452.873)"/><path class="i" d="M1826.858,634.464l.532-.6a20.66,20.66,0,0,1-6.8-15.262,20.888,20.888,0,0,1,.173-2.677l-.789-.107a21.364,21.364,0,0,0,6.888,18.644Z" transform="translate(-1623.363 -565.937)"/><path class="i" d="M1928.837,753.6l-.6-.526a20.817,20.817,0,0,1-1.65,1.659,20.473,20.473,0,0,1-17.173,5c-.321-.054-.641-.119-.955-.183a20.338,20.338,0,0,1-2.218-.618q-.728-.248-1.433-.553-.813-.347-1.6-.766c-.528-.282-1.047-.585-1.552-.914l-.434.667c.524.341,1.064.657,1.611.955s1.095.556,1.658.8q.736.315,1.495.574a20.752,20.752,0,0,0,2.306.642c.329.073.661.134.994.19a21.417,21.417,0,0,0,19.551-6.914Z" transform="translate(-1695.081 -686.803)"/><path class="i" d="M2136.34,730.114l.636.477c.411-.547.8-1.122,1.157-1.707l-.679-.414C2137.11,729.033,2136.735,729.586,2136.34,730.114Z" transform="translate(-1902.125 -665.139)"/><path class="i" d="M2136.086,544.018l.778.168a21.264,21.264,0,0,0-.255-10.055c-.12-.455-.263-.9-.414-1.35a21.236,21.236,0,0,0-.846-2.108,21.515,21.515,0,0,0-1.38-2.507,21.063,21.063,0,0,0-1.432-1.986l-.616.5a20.948,20.948,0,0,1,2.71,4.328,20.48,20.48,0,0,1,.814,2.029c.147.43.282.863.4,1.3a20.466,20.466,0,0,1,.246,9.68Z" transform="translate(-1898.233 -486.997)"/><path class="i" d="M2098.14,494.036c.261.186.518.38.77.577l.492-.626c-.263-.206-.529-.406-.8-.6Z" transform="translate(-1868.485 -458.121)"/><path class="i" d="M1957.322,463.594l.376-.7a21.338,21.338,0,0,0-12.787-2.361c-.292.037-.585.081-.876.13a21.2,21.2,0,0,0-3.324.845l.258.753a20.318,20.318,0,0,1,3.2-.814q.419-.072.844-.119a20.829,20.829,0,0,1,2.607-.166,20.556,20.556,0,0,1,9.705,2.434Z" transform="translate(-1729.848 -429.034)"/><path class="g" d="M1873.2,605.1l-1.388-.855a15.381,15.381,0,0,0,6.774,7.362l-.6-.99.911-5.507h.4a2.613,2.613,0,1,0,0-5.226h-2.725v-.4a1.154,1.154,0,0,0-1.153-1.153h-2.507v-2.3a.928.928,0,0,0-.928-.927h-.4V592.59a15.262,15.262,0,0,0-.349,10.14v-3.057l.743-1.3-1-2.472.738-.3,1.145,2.829-.829,1.455v3.568l1.825,1.125,1.094,3.215-.753.257Z" transform="translate(-1668.054 -545.48)"/><path class="g" d="M1975.874,522.644l2.065-1.095a.654.654,0,0,0,.351-.581.778.778,0,1,0-1.552,0v.677l-.941.887a.062.062,0,0,0-.017.076C1975.808,522.692,1975.851,522.656,1975.874,522.644Z" transform="translate(-1760.727 -481.668)"/><path class="g" d="M1882.1,524.176v.193h.991l2.058-2.335h1.486a1.853,1.853,0,0,0,1.849-1.791l-3.7.861-.778-1.364,3.066-2.268.993.992a1.486,1.486,0,0,0,1.327-1.469v-.814a15.356,15.356,0,0,0-9.954,9.081Z" transform="translate(-1675.892 -478.191)"/><path class="g" d="M1895.976,512.459a2.284,2.284,0,0,1-2.28,2.281h-.167l-.75-.75-1.948,1.432.134.239,4.1-.955v.938a2.648,2.648,0,0,1-2.645,2.645h-1.127l-2.058,2.336h-.6v.591a.77.77,0,1,1-1.539,0v-.4l-1.086.443v1.273a1.727,1.727,0,0,1,1.325,1.671v1.5h1.711a1.952,1.952,0,0,1,1.91,1.551h1.97a3.409,3.409,0,0,1,.275,6.8l-.755,4.56,1.082,1.781a15.261,15.261,0,0,0,16.312-2.877,3.993,3.993,0,0,1-2.1-3.532v-.168l1.281-1.281v-1.52a1.684,1.684,0,0,0-.358-1.04l.63-.486a2.472,2.472,0,0,1,.519,1.526v1.845l-1.277,1.277a3.223,3.223,0,0,0,1.9,2.784,15.279,15.279,0,0,0-14.463-25.5Zm5.879,6.7a1.241,1.241,0,0,1,.843-1.175v-.816a1.248,1.248,0,0,1,.747-1.141,1,1,0,0,1-.747-.968v-2.4h2.291c.013-.063.029-.119.048-.186l.76.239a1.184,1.184,0,0,0-.052.349v.4H1903.5v1.607a.213.213,0,1,0,.425,0,.2.2,0,0,0-.064-.146l-.074-.074.561-.565.073.073a.992.992,0,0,1,.3.716,1.01,1.01,0,0,1-.5.869h1.368a.182.182,0,0,0-.032-.165l-.119-.119.563-.562.119.119a.975.975,0,0,1,.192,1.074.651.651,0,0,1-.578.452h-1.783a.45.45,0,0,0-.45.45v1.552h-.4a.444.444,0,0,0-.444.444v.15a.445.445,0,0,0,.444.444h.716v.795h-.716a1.24,1.24,0,0,1-1.24-1.239Zm.692,3.236.257-.255a2.009,2.009,0,0,1,2-1.834h2.507v.4a.669.669,0,0,0,.669.667h2.6a.6.6,0,0,0,.42-.174.584.584,0,0,0,.172-.418.6.6,0,0,0-.6-.6h-3.036l-1.283-1.287-.9.92-.567-.559,1.469-1.492,1.616,1.622h2.705a1.388,1.388,0,1,1,0,2.777h-2.6a1.464,1.464,0,0,1-1.409-1.066H1904.8a1.211,1.211,0,0,0-1.21,1.21v.165l-.478.477a3.262,3.262,0,0,0,2.309,5.569h1.9a2.5,2.5,0,0,1,.836.142l-.265.751a1.692,1.692,0,0,0-.568-.1h-1.9a4.059,4.059,0,0,1-2.865-6.924Zm-5.659-9.438a1.575,1.575,0,0,1,3.149,0,1.454,1.454,0,0,1-.774,1.286l-2.066,1.095a.867.867,0,0,1-1-1.4l.691-.652Z" transform="translate(-1681.678 -473.656)"/><path class="j" d="M1879.925,536.57a16.085,16.085,0,1,0-16.085-16.084A16.1,16.1,0,0,0,1879.925,536.57Zm15.288-16.084a15.228,15.228,0,0,1-4.3,10.613,3.223,3.223,0,0,1-1.9-2.784l1.277-1.277v-1.85a2.474,2.474,0,0,0-.519-1.526l-.63.486a1.685,1.685,0,0,1,.358,1.04v1.521l-1.292,1.28v.165a4.009,4.009,0,0,0,1.182,2.852,4.057,4.057,0,0,0,.919.68,15.26,15.26,0,0,1-16.317,2.891l-1.082-1.781.755-4.56a3.409,3.409,0,0,0-.275-6.8h-1.97a1.952,1.952,0,0,0-1.91-1.552H1867.8v-1.5a1.727,1.727,0,0,0-1.325-1.671v-1.278l1.086-.443v.4a.77.77,0,0,0,1.539,0v-.591h.608l2.058-2.336h1.127a2.648,2.648,0,0,0,2.645-2.645v-.938l-4.1.955-.134-.239,1.948-1.432.75.75h.165a2.284,2.284,0,0,0,2.285-2.285V505.6a15.278,15.278,0,0,1,18.761,14.887Zm-27.254,6.428-1.825-1.125V522.22l.828-1.455-1.145-2.829-.738.3,1,2.472-.743,1.3v3.057a15.261,15.261,0,0,1,.349-10.14v2.522h.4a.928.928,0,0,1,.928.928v2.3h2.507a1.154,1.154,0,0,1,1.153,1.153v.4h2.725a2.613,2.613,0,1,1,0,5.226h-.4l-.911,5.507.6.99a15.381,15.381,0,0,1-6.774-7.362l1.388.855,1,2.944.753-.257Zm7.7-21.106v.813a1.486,1.486,0,0,1-1.327,1.477l-.993-.992-3.066,2.268.774,1.368,3.7-.861a1.853,1.853,0,0,1-1.849,1.791h-1.486l-2.058,2.335h-.991v-.193L1865.7,514.9a15.356,15.356,0,0,1,9.959-9.091Z" transform="translate(-1662.154 -467.817)"/><path class="j" d="M2020.016,531.158h.716v-.8h-.716a.445.445,0,0,1-.444-.444v-.15a.444.444,0,0,1,.444-.444h.4v-1.552a.45.45,0,0,1,.45-.45h1.783a.649.649,0,0,0,.578-.452.975.975,0,0,0-.192-1.074l-.119-.119-.563.562.119.119a.181.181,0,0,1,.037.174h-1.367a1.01,1.01,0,0,0,.5-.869.992.992,0,0,0-.3-.716l-.073-.073-.561.565.074.074a.2.2,0,0,1,.064.146.212.212,0,1,1-.425,0v-1.6h2.249v-.394a1.188,1.188,0,0,1,.052-.349l-.76-.239a1.668,1.668,0,0,0-.048.186h-2.288v2.4a1,1,0,0,0,.747.968,1.249,1.249,0,0,0-.747,1.141v.817a1.242,1.242,0,0,0-.843,1.175v.15A1.24,1.24,0,0,0,2020.016,531.158Z" transform="translate(-1798.598 -484.267)"/><path class="j" d="M2018.652,579.05h1.9a1.693,1.693,0,0,1,.568.1l.265-.751a2.5,2.5,0,0,0-.836-.142h-1.893a3.263,3.263,0,0,1-2.309-5.569l.478-.477v-.165a1.212,1.212,0,0,1,1.21-1.21h1.762a1.465,1.465,0,0,0,1.409,1.066h2.6a1.388,1.388,0,1,0,0-2.777h-2.7l-1.616-1.622-1.469,1.492.567.559.9-.92,1.283,1.287h3.036a.6.6,0,0,1,.6.6.585.585,0,0,1-.172.418.6.6,0,0,1-.42.174h-2.6a.669.669,0,0,1-.669-.667v-.4h-2.507a2.009,2.009,0,0,0-2,1.834l-.257.255a4.059,4.059,0,0,0,2.865,6.924Z" transform="translate(-1794.911 -523.384)"/><path class="j" d="M1969.146,517.478a.861.861,0,0,0,.8.547.876.876,0,0,0,.406-.1l2.066-1.095a1.454,1.454,0,0,0,.774-1.286,1.575,1.575,0,1,0-3.149,0v.339l-.691.652A.862.862,0,0,0,1969.146,517.478Zm.757-.37.941-.887v-.677a.778.778,0,1,1,1.552,0,.654.654,0,0,1-.351.581l-2.065,1.095c-.023.012-.066.048-.1-.036A.062.062,0,0,1,1969.9,517.108Z" transform="translate(-1754.837 -476.244)"/><path class="i" d="M663.5,892.292l.392.694c.327-.185.655-.383.977-.6l-.432-.668C664.129,891.924,663.814,892.112,663.5,892.292Z" transform="translate(-605.102 -808.901)"/><path class="i" d="M445.713,600.83a19.305,19.305,0,0,0-19.233,18.987l.8.01a18.439,18.439,0,1,1,30.107,14.515l.5.615a19.235,19.235,0,0,0-12.174-34.126Z" transform="translate(-396.376 -552.736)"/><path class="i" d="M459.09,838.088a18.522,18.522,0,0,1-16.7-10.618l-.716.338A19.267,19.267,0,0,0,462.958,838.5l-.16-.779a18.614,18.614,0,0,1-3.708.372Z" transform="translate(-409.753 -752.321)"/><path class="c" d="M678.027,572.976l2.827-4.069c-.694-.478-1.416-.935-2.149-1.347l-2.426,4.321C676.876,572.215,677.463,572.583,678.027,572.976Z" transform="translate(-616.357 -523.437)"/><path class="c" d="M600.249,541.659a26.381,26.381,0,0,0-11.12-2.529l-.039,4.955a21.46,21.46,0,0,1,9.045,2.056Z" transform="translate(-539.575 -498.401)"/><path class="c" d="M560.955,545.025l-.46-4.935c-.278.026-.555.057-.836.091l.62,4.912C560.5,545.07,560.728,545.045,560.955,545.025Z" transform="translate(-513.658 -499.247)"/><path class="c" d="M369.716,584.853a21.771,21.771,0,0,1,12.317-19.544l-2.138-4.469a26.62,26.62,0,0,0-12.088,36.38l4.383-2.308A21.69,21.69,0,0,1,369.716,584.853Z" transform="translate(-342.024 -517.52)"/><path class="c" d="M416.01,873.71l-3.9,3.057a26.841,26.841,0,0,0,3.2,3.424l3.307-3.7a21.879,21.879,0,0,1-2.607-2.78Z" transform="translate(-383.721 -793.041)"/><path class="c" d="M454.24,911.238c.383.287.777.565,1.173.828l2.746-4.121c-.321-.215-.642-.443-.955-.676Z" transform="translate(-420.822 -822.595)"/><path class="k" d="M479.168,668.234a14.7,14.7,0,1,0-14.7-14.7,14.7,14.7,0,0,0,14.7,14.7Zm7.1-21.288a9.651,9.651,0,0,1,2.593,6.6c0,.3-.013.6-.041.874a9.638,9.638,0,0,1-1.968,5.028l-.63-.485a8.858,8.858,0,0,0,1.807-4.617c.024-.254.037-.523.037-.8a8.856,8.856,0,0,0-2.38-6.05Zm-1.319,11.031-.629-.487a6.468,6.468,0,0,0,1.267-2.937l.785.119a7.246,7.246,0,0,1-1.423,3.3Zm-5.778-14.131a9.636,9.636,0,0,1,5.312,1.591c.259.171.514.358.758.552l-.5.621a8.312,8.312,0,0,0-.7-.507,8.835,8.835,0,0,0-4.874-1.46Zm0,2.4a7.261,7.261,0,0,1,7.282,7.02l-.788.035a6.469,6.469,0,0,0-6.488-6.253Zm-8.027,1.183a4.475,4.475,0,0,1,2.26-3.2l1.339-.737,2.8,5.106-1.252.977a2.551,2.551,0,0,0-.955,1.617h0a2.547,2.547,0,0,0,.285,1.622l2.313,4.209a2.551,2.551,0,0,0,3.1,1.172l1.5-.534,2.8,5.1-1.341.739a4.48,4.48,0,0,1-3.911.195h0a4.473,4.473,0,0,1-1.492-1.036h0a30.125,30.125,0,0,1-7.37-13.416h0A4.475,4.475,0,0,1,471.142,647.431Z" transform="translate(-429.831 -586.209)"/><path class="g" d="M593.17,683.544l.5-.621a9.373,9.373,0,0,0-.758-.552,9.634,9.634,0,0,0-5.312-1.591v.8a8.833,8.833,0,0,1,4.874,1.46A8.306,8.306,0,0,1,593.17,683.544Z" transform="translate(-538.263 -623.142)"/><path class="g" d="M644.513,714.141a8.858,8.858,0,0,1-1.807,4.617l.63.485a9.638,9.638,0,0,0,1.968-5.028c.027-.277.041-.571.041-.874a9.65,9.65,0,0,0-2.593-6.592l-.583.542a8.857,8.857,0,0,1,2.38,6.053C644.55,713.619,644.537,713.887,644.513,714.141Z" transform="translate(-586.318 -646.012)"/><path class="g" d="M594.147,708l.795-.029a7.261,7.261,0,0,0-7.282-7.02v.8A6.469,6.469,0,0,1,594.147,708Z" transform="translate(-538.315 -640.904)"/><path class="g" d="M630.71,773.452l.629.487a7.249,7.249,0,0,0,1.423-3.3l-.785-.119A6.469,6.469,0,0,1,630.71,773.452Z" transform="translate(-576.227 -702.169)"/><path class="g" d="M520,683.615a30.125,30.125,0,0,0,7.374,13.413h0a4.471,4.471,0,0,0,1.492,1.036h0a4.48,4.48,0,0,0,3.907-.191l1.338-.737-2.8-5.1-1.493.531a2.551,2.551,0,0,1-3.093-1.173l-2.313-4.209a2.547,2.547,0,0,1-.285-1.622h0a2.551,2.551,0,0,1,.955-1.618l1.25-.975-2.8-5.1-1.341.732A4.477,4.477,0,0,0,520,683.615Z" transform="translate(-478.613 -620.579)"/><path class="d" d="M2145.5,523.162h.4v-4.35h-.4V510.34h-4.06v4.152h.4v16.53h24.312v.4h3.4v-.4h2.573v.4h1.883v-4.06H2145.5Z" transform="translate(-1885.845 -449.419)"/><path class="c" d="M2353.177,687.443h-.4v4.351h.4v3.4h2.157l29.614-4.615V681.6a7.073,7.073,0,0,1-2.03-.376l.261-.752a6.276,6.276,0,0,0,2.056.344h.119v-2.029h-.119a4.273,4.273,0,0,1-3.506-1.829l-6.164,4.178.225.332-1.146.777-.232-.326-1.466.993.224.33-4.11,2.784L2352.78,675v2.675h.4Z" transform="translate(-2092.728 -618.052)"/><path class="g" d="M2200.18,612.2h29.614V607.59Z" transform="translate(-1937.573 -535.06)"/><path class="g" d="M2359.1,671.19l15.528,10.518,3.664-2.481.223.329,1.463-.988-.221-.328,1.147-.776.221.327,6.164-4.178a4.257,4.257,0,0,1-.772-2.421Z" transform="translate(-2098.294 -614.697)"/><path class="c" d="M2690.71,733.82l5.482,5.768a19.554,19.554,0,0,0,1.442-1.526l-6.073-5.143A11.623,11.623,0,0,1,2690.71,733.82Z" transform="translate(-2390.318 -669.058)"/><path class="c" d="M2706.123,676.69a11.418,11.418,0,0,1-1.933,5.711l6.594,4.455a19.368,19.368,0,0,0,3.283-9.7Z" transform="translate(-2402.189 -619.54)"/><path class="c" d="M2499.335,516.3a11.481,11.481,0,0,1,11.221,9.133l7.8-1.6a19.412,19.412,0,0,0-36-5.468l6.963,3.854A11.46,11.46,0,0,1,2499.335,516.3Z" transform="translate(-2206.83 -471.287)"/><path class="l" d="M2591.17,639.425H2588.8a4.282,4.282,0,0,0,4.278,4.25h.12a4.278,4.278,0,1,0-4.321-5.04h2.3Z" transform="translate(-2300.573 -582.932)"/><path class="f" d="M2382.3,730.236c-.1,0-.19-.008-.284-.012v13.591h-31.771v-3.4h-.795v4.2h33.361v-14.4C2382.642,730.222,2382.473,730.236,2382.3,730.236Z" transform="translate(-2089.796 -666.671)"/><path class="f" d="M2192.13,478.856l4.111-2.784-.223-.329-.223-.329-3.665,2.482L2176.6,467.376h29.792v-.8H2175.45v.978l.4.269Z" transform="translate(-1915.795 -410.883)"/><path class="f" d="M2358.17,526.547l.222.327.225.332,1.146-.777-.225-.332-.221-.327Z" transform="translate(-2076.704 -463.007)"/><path class="g" d="M2175.847,509.2h.4V499.43h-.8V509.2Z" transform="translate(-1915.795 -439.812)"/><path class="j" d="M2138.9,561.65V545.12h-.8v17.325h25.107v-.8Z" transform="translate(-1882.904 -480.047)"/><path class="j" d="M2376.92,683.59v.795h2.573v-.795Z" transform="translate(-2093.216 -601.988)"/><path class="j" d="M2601.743,611.414a7.021,7.021,0,0,0-3.1.716l.349.716a6.239,6.239,0,0,1,2.755-.634,6.3,6.3,0,1,1,.12,12.606h-.12a6.274,6.274,0,0,1-2.055-.344l-.261.752a7.071,7.071,0,0,0,2.029.376c.094,0,.189.012.284.012.173,0,.341-.014.511-.026a7.1,7.1,0,0,0-.511-14.178Z" transform="translate(-2309.239 -562.053)"/><path class="j" d="M2573.41,632.774a6.339,6.339,0,0,1,.82-1.14l-.6-.534a7.1,7.1,0,0,0-.923,1.283Z" transform="translate(-2286.405 -579.393)"/><path class="c" d="M1336.8,308.279l1.922,1.036a12.918,12.918,0,0,1,7.818-6.293l-2.388-8.422a21.655,21.655,0,0,0-15.429,24.445l6.5-1.105a15,15,0,0,1,1.583-9.661Z" transform="translate(-1190.649 -283.061)"/><path class="c" d="M1335.26,505.2a21.508,21.508,0,0,0,3.372,6.881l5.311-3.9a15.041,15.041,0,0,1-2.341-4.782Z" transform="translate(-1196.672 -466.936)"/><path class="c" d="M1399.808,556.735V558.9a14.993,14.993,0,0,1-10.352-4.141l-4.536,4.775a21.606,21.606,0,0,0,28.211,1.351l-5.4-6.888A12.733,12.733,0,0,1,1399.808,556.735Z" transform="translate(-1240.404 -511.496)"/><path class="c" d="M1583.88,497.473l6.028,6.348a21.529,21.529,0,0,0,6.3-11.333l-8.574-1.758A12.824,12.824,0,0,1,1583.88,497.473Z" transform="translate(-1415.614 -455.779)"/><path class="d" d="M1430.9,442.351V438.77a7.1,7.1,0,0,1-7.092-7.091,7,7,0,0,1,.844-3.359l-3.15-1.7a10.673,10.673,0,0,0,9.4,15.732Z" transform="translate(-1271.497 -399.322)"/><path class="d" d="M1398.575,429.211V427.8a11.471,11.471,0,0,1-10.1-16.907l-1.231-.665-1.922-1.036a15,15,0,0,0-1.583,9.661,14.736,14.736,0,0,0,.358,1.585,15.038,15.038,0,0,0,2.348,4.782,15.267,15.267,0,0,0,1.783,2.02,14.993,14.993,0,0,0,10.352,4.141Z" transform="translate(-1239.171 -383.973)"/><path class="j" d="M1425.027,405.483a11.486,11.486,0,0,0,9.412-4.916l-.653-.456a10.673,10.673,0,1,1-13.708-15.557l-.37-.7a11.471,11.471,0,0,0,5.318,21.633Z" transform="translate(-1265.623 -361.657)"/><path class="j" d="M1594.658,490.6c-.068.272-.147.546-.239.812l.755.252c.1-.285.182-.58.254-.873Z" transform="translate(-1424.895 -455.664)"/><path class="m" d="M1469.837,424.62a5.322,5.322,0,1,0,5.8,5.611h-5.8Z" transform="translate(-1310.93 -397.561)"/><rect class="i" width="4.657" height="1.729" transform="translate(183.277 2.415)"/><path class="i" d="M1366.755,20.23v1.729h3.159v27.2h-36.7v-.8h0v-26.4h.035V20.23h-1.366V40.607h-.4v.973h.4v1.89h-.4v7.017h39.764V20.23Z" transform="translate(-1172.573 -17.815)"/><rect class="i" width="4.657" height="1.729" transform="translate(177.824 2.415)"/><rect class="i" width="4.657" height="1.729" transform="translate(172.371 2.415)"/><rect class="i" width="4.657" height="1.729" transform="translate(166.918 2.415)"/><rect class="i" width="4.657" height="1.729" transform="translate(161.465 2.415)"/><rect class="i" width="4.657" height="1.729" transform="translate(188.73 2.415)"/><path class="g" d="M1552.745,232.65H1520v26.4h35.909V233.576l-35.049,5.461v-5.523H1555.9v-.864Zm-2.371,7.532h2.223v2.223h-2.223Zm0,4.447h2.223v2.223h-2.223Zm0,4.445h2.223V251.3h-2.223Zm-4.446-8.892h2.223v2.223h-2.223Zm0,4.447h2.223v2.223h-2.223Zm0,4.445h2.223V251.3h-2.223Zm-4.442-8.892h2.223v2.223h-2.223Zm0,4.447h2.223v2.223h-2.223Zm0,4.445h2.223V251.3h-2.223Zm0,4.445h2.223v2.223h-2.223Zm-4.447-13.338h2.223v2.223h-2.223Zm0,4.447h2.223v2.223h-2.223Zm0,4.445h2.223V251.3h-2.223Zm0,4.445h2.223v2.223h-2.223Zm-4.449-8.891h2.223v2.223h-2.223Zm0,4.445h2.223V251.3h-2.223Zm0,4.445h2.223v2.223h-2.223Zm-4.446-8.891h2.223v2.223h-2.223Zm0,4.445h2.223V251.3h-2.223Zm0,4.445h2.223v2.223h-2.223Zm-4.445-8.891h2.224v2.223H1523.7Zm0,4.445h2.224V251.3H1523.7Zm0,4.445h2.224v2.223H1523.7Z" transform="translate(-1359.359 -228.507)"/><path class="n" d="M1520.25,202.083h.8V199.7a.966.966,0,1,1,1.93,0v.653h.8V199.7a1.761,1.761,0,0,0-3.522,0v2.381Z" transform="translate(-1359.579 -197.94)"/><path class="n" d="M1565.92,202.413h.8v-2.383a.966.966,0,1,1,1.93,0v.653h.8v-.653a1.762,1.762,0,0,0-3.523,0v2.381Z" transform="translate(-1399.798 -198.27)"/><path class="n" d="M1611.6,202.411h.8v-2.383a.966.966,0,1,1,1.93,0v.653h.8v-.653a1.762,1.762,0,0,0-3.522,0v2.381Z" transform="translate(-1440.025 -198.268)"/><path class="n" d="M1657.28,202.411h.8v-2.383a.966.966,0,1,1,1.93,0v.653h.8v-.653a1.762,1.762,0,0,0-3.523,0v2.381Z" transform="translate(-1480.252 -198.268)"/><path class="n" d="M1703,202.083h.795V199.7a.966.966,0,1,1,1.931,0v.653h.795V199.7a1.761,1.761,0,1,0-3.521,0v2.381Z" transform="translate(-1520.514 -197.94)"/><path class="n" d="M1748.64,202.083h.8V199.7a.966.966,0,1,1,1.931,0v.653h.8V199.7a1.761,1.761,0,0,0-3.522,0v2.381Z" transform="translate(-1560.706 -197.94)"/><path class="n" d="M1794.31,202.413h.8v-2.383a.966.966,0,1,1,1.93,0v.653h.8v-.653a1.762,1.762,0,0,0-3.523,0v2.381Z" transform="translate(-1600.924 -198.27)"/><path class="c" d="M1353.2,41.95v5.523l35.045-5.461V41.95Z" transform="translate(-1191.7 -36.942)"/><rect class="o" width="2.223" height="2.223" transform="translate(177.678 11.677)"/><rect class="o" width="2.223" height="2.223" transform="translate(182.124 11.677)"/><rect class="o" width="2.223" height="2.223" transform="translate(186.57 11.677)"/><rect class="o" width="2.223" height="2.223" transform="translate(191.015 11.677)"/><rect class="o" width="2.223" height="2.223" transform="translate(164.341 16.122)"/><rect class="o" width="2.223" height="2.223" transform="translate(168.787 16.122)"/><rect class="o" width="2.223" height="2.223" transform="translate(173.232 16.122)"/><rect class="l" width="2.223" height="2.223" transform="translate(177.678 16.122)"/><rect class="o" width="2.223" height="2.223" transform="translate(182.124 16.122)"/><rect class="o" width="2.223" height="2.223" transform="translate(186.57 16.122)"/><rect class="o" width="2.223" height="2.223" transform="translate(191.015 16.122)"/><rect class="o" width="2.223" height="2.223" transform="translate(164.341 20.568)"/><rect class="o" width="2.223" height="2.223" transform="translate(168.787 20.568)"/><rect class="o" width="2.223" height="2.223" transform="translate(173.232 20.568)"/><rect class="o" width="2.223" height="2.223" transform="translate(177.678 20.568)"/><rect class="o" width="2.223" height="2.223" transform="translate(182.124 20.568)"/><rect class="j" width="2.223" height="2.223" transform="translate(186.57 20.568)"/><rect class="o" width="2.223" height="2.223" transform="translate(191.015 20.568)"/><rect class="o" width="2.223" height="2.223" transform="translate(164.341 25.015)"/><rect class="o" width="2.223" height="2.223" transform="translate(168.787 25.015)"/><rect class="o" width="2.223" height="2.223" transform="translate(173.232 25.015)"/><rect class="o" width="2.223" height="2.223" transform="translate(177.678 25.015)"/><rect class="o" width="2.223" height="2.223" transform="translate(182.124 25.015)"/><path class="f" d="M1381.87,35.574V61.11h-35.91v.8h36.7V34.71h-.8Z" transform="translate(-1185.324 -30.567)"/><path class="f" d="M1328.936,20.23h-.8V40.607h.8Z" transform="translate(-1169.631 -17.815)"/><path class="f" d="M1328.936,199.08h-.8v1.89h.8Z" transform="translate(-1169.631 -175.315)"/><circle class="l" cx="1.99" cy="1.99" r="1.99" transform="translate(193.852 158.333) rotate(-73.51)"/><path class="l" d="M1818.638,1496.433h0a2.746,2.746,0,0,1,.9.169,2.785,2.785,0,0,1-1.928,5.226l-4.48-1.653.735-3.856Z" transform="translate(-1617.498 -1341.329)"/><circle class="p" cx="3.945" cy="3.945" r="3.945" transform="translate(115.292 30.543) rotate(-45)"/><rect class="j" width="218.411" height="3.979" transform="translate(49.538 161.323)"/><path class="h" d="M1688.94,1582.69Z" transform="translate(-1508.132 -1417.388)"/><rect class="q" width="88.279" height="0.796" transform="translate(92.53 164.904)"/><path class="h" d="M848.34,1582.69Z" transform="translate(-767.877 -1417.388)"/><rect class="q" width="22.885" height="0.796" transform="translate(57.578 164.904)"/><path class="h" d="M912.83,1582.69Z" transform="translate(-824.669 -1417.388)"/><rect class="q" width="3.673" height="0.796" transform="translate(84.489 164.904)"/><path class="h" d="M2351.59,1582.69Z" transform="translate(-2091.68 -1417.388)"/><rect class="q" width="53.295" height="0.796" transform="translate(206.613 164.904)"/><rect class="g" width="10.402" height="0.796" transform="translate(161.596 158.061) rotate(-87.37)"/><rect class="b" width="39.736" height="3.979" transform="translate(232.69 169.583)"/><rect class="c" width="12.23" height="3.979" transform="translate(216.163 169.583)"/><rect class="b" width="17.713" height="1.99" transform="translate(64.035 177.541)"/><rect class="b" width="2.564" height="1.99" transform="translate(85.596 177.541)"/><rect class="b" width="58.969" height="1.99" transform="translate(93.199 177.541)"/><rect class="b" width="25.296" height="1.99" transform="translate(158.741 177.541)"/><rect class="b" width="52.918" height="1.99" transform="translate(187.329 177.541)"/><rect class="b" width="2.871" height="1.99" transform="translate(246.397 177.541)"/><rect class="b" width="80.309" height="3.979" transform="translate(134.078 169.583)"/><rect class="c" width="15.227" height="3.979" transform="translate(114.606 169.583)"/><rect class="o" width="3.118" height="3.979" transform="translate(110.003 169.583)"/><rect class="b" width="35.134" height="3.979" transform="translate(73.28 169.583)"/><rect class="b" width="23.312" height="3.979" transform="translate(45.06 169.583)"/><path class="r" d="M1655.259,1501.451a4.966,4.966,0,0,1-2.109-1.052q.258,1.3.427,2.643h5.8l.129-.629-4.251-.955Z" transform="translate(-1476.615 -1344.921)"/><path class="k" d="M1043.263,1182.922l-1.648-6.55.384-.1-1.147-4.555-8.361,9.607-.3-.261-2.882,3.315,15.228,1.984-.891-3.539Z" transform="translate(-906.474 -1031.848)"/><path class="k" d="M1567.466,1417.8h0l-7.442-9.032-1.184-1.432a7.206,7.206,0,0,1-1.1.555l-.665,11.4-.425-.025-.083,1.818h11.961q-.171-1.336-.427-2.643A4.927,4.927,0,0,1,1567.466,1417.8Z" transform="translate(-1391.564 -1262.97)"/><path class="k" d="M1022.06,1282.833a5.161,5.161,0,0,1-.648-.037,4.986,4.986,0,0,1-3.406-7.855h0l2.075-2.885-.322-.231.716-1,.322.232,2.06-2.865-.323-.239,15.237-21.176q-1.508.378-2.966.873l.127.375c-1.059.358-2.115.766-3.142,1.218l-.16-.358a38.922,38.922,0,0,0-3.8,1.922l.2.343a38.489,38.489,0,0,0-19.338,31.686h13.37Z" transform="translate(-909.086 -1121.577)"/><path class="s" d="M1202.972,1251.733l-.127-.375-.128-.378c-1.08.358-2.159.782-3.208,1.241l.16.365.16.358C1200.857,1252.5,1201.913,1252.09,1202.972,1251.733Z" transform="translate(-1077.127 -1125.276)"/><path class="s" d="M1022.128,1278.329l-.2-.343-.2-.346A39.292,39.292,0,0,0,1001.99,1310l.795.037a.1.1,0,0,0,0-.019A38.5,38.5,0,0,1,1022.128,1278.329Z" transform="translate(-903.186 -1148.753)"/><path class="g" d="M1300.122,1040.5a8.312,8.312,0,0,1,.4-10.479l-.6-.525a9.107,9.107,0,0,0-.435,11.482Z" transform="translate(-1163.56 -930.234)"/><path class="t" d="M1512.4,1182.54c.22,0,.437.013.652.035C1512.83,1182.552,1512.617,1182.541,1512.4,1182.54Z" transform="translate(-1352.666 -1065.005)"/><path class="t" d="M1510.76,1182.52Z" transform="translate(-1351.223 -1064.988)"/><path class="t" d="M1518.84,1183c.19.023.376.051.56.088A3.83,3.83,0,0,0,1518.84,1183Z" transform="translate(-1358.338 -1065.411)"/><path class="t" d="M1541.35,1190.59c.136.081.272.164.4.253C1541.622,1190.758,1541.487,1190.671,1541.35,1190.59Z" transform="translate(-1378.161 -1072.095)"/><path class="t" d="M1549.8,1196.67c.156.136.308.278.451.428C1550.109,1196.948,1549.958,1196.807,1549.8,1196.67Z" transform="translate(-1385.602 -1077.449)"/><path class="t" d="M1553.75,1200.44c.147.154.288.316.42.485A6.4,6.4,0,0,0,1553.75,1200.44Z" transform="translate(-1389.081 -1080.769)"/><path class="t" d="M1557.837,1205.282c-.1-.15-.205-.3-.317-.442.111.143.215.292.314.445Z" transform="translate(-1392.401 -1084.644)"/><path class="t" d="M1545.72,1193.44c.15.109.3.221.438.341C1546.018,1193.662,1545.873,1193.55,1545.72,1193.44Z" transform="translate(-1382.009 -1074.604)"/><path class="t" d="M1536.7,1188.119c-.086-.044-.173-.078-.259-.119.129.061.257.119.381.19A1.226,1.226,0,0,0,1536.7,1188.119Z" transform="translate(-1373.837 -1069.814)"/><path class="t" d="M1530.93,1185.75c.139.048.276.1.409.154C1531.2,1185.847,1531.067,1185.8,1530.93,1185.75Z" transform="translate(-1368.984 -1067.832)"/><path class="t" d="M1525,1184c.16.037.319.078.478.119C1525.322,1184.082,1525.163,1184.042,1525,1184Z" transform="translate(-1363.762 -1066.291)"/><path class="l" d="M1673.317,1351.152h15.313v0h-15.32Z" transform="translate(-1473.597 -1189.859)"/><path class="u" d="M1310.13,1192.153a6.829,6.829,0,0,1-1.11,1.76h0l-4.993,5.743-.61.7.3.261-3.716,4.268,1.147,4.555.387-.1,1.649,6.55-.387.1.891,3.538,10.411,1.357,5.193-1.8a3.695,3.695,0,0,1,4.863,4.051h6.47l.083-1.818-.37-.022.647-11.078a5.034,5.034,0,0,1-1.382.229l-2.029-.4.407-.08a6.8,6.8,0,0,1-4.3-2.618l-.093.073-8.875-11.486,10.863-8.394,1.052,1.361,4.417-3.248c-.1-.153-.2-.3-.314-.445l-.03-.041c-.133-.168-.273-.331-.42-.485-.007-.007-.013-.016-.02-.021-.143-.15-.295-.292-.451-.428l-.049-.044a5.381,5.381,0,0,0-.438-.341c-.041-.029-.08-.06-.119-.087-.129-.089-.265-.172-.4-.253-.068-.041-.136-.082-.205-.119-.119-.068-.252-.129-.381-.19-.082-.038-.163-.078-.248-.119-.134-.056-.271-.106-.409-.154-.075-.026-.15-.055-.228-.079a4.565,4.565,0,0,0-.478-.119c-.06-.014-.119-.03-.18-.042-.184-.037-.37-.066-.56-.088-.038,0-.078-.011-.119-.014q-.322-.032-.652-.035h-2.932l-.209,1.089a5.805,5.805,0,0,1-11.506-1.089h-6.063c-.151,0-.3,0-.447.013a6.847,6.847,0,0,1,5.932,9.592Z" transform="translate(-1165.621 -1065.014)"/><path class="u" d="M1183.631,1350.95l-2.975.011v0h-.733l-8.793,0,0,.018h25.085v0h-12.588Z" transform="translate(-1031.364 -1189.683)"/><path class="g" d="M1582.051,875.4a8.914,8.914,0,0,1-2.345,6.456l.587.537a9.7,9.7,0,0,0,2.557-7.029,19.118,19.118,0,0,0-6.832-13.815l-.509.611A18.327,18.327,0,0,1,1582.051,875.4Z" transform="translate(-1408.243 -782.333)"/><path class="q" d="M1317.307,859.106l-1.139.051a1.99,1.99,0,0,1-2.076-1.9l-.057-1.3a1.99,1.99,0,0,1,1.9-2.076l.649-.029h0l.528-.023a16.115,16.115,0,0,0,9.563-3.687h0a20.66,20.66,0,0,1,10.1-4.51l1.266,11.886a8.945,8.945,0,0,0,5.329-8.582h0a18.24,18.24,0,1,0-35.772,5.772,8.258,8.258,0,0,0,7.824,14.257Z" transform="translate(-1169.595 -755.87)"/><path class="l" d="M1389.634,983.378a5.8,5.8,0,0,0,6.793-4.613l.209-1.089.848-4.433,2.865-.126a8.556,8.556,0,0,0,8.128-9.453l-.2-1.868-1.267-11.886a20.66,20.66,0,0,0-10.1,4.51h0a16.116,16.116,0,0,1-9.563,3.688l-.528.023h0l-.649.029a1.99,1.99,0,0,0-1.9,2.076l.057,1.3a1.99,1.99,0,0,0,2.076,1.9l1.139-.051-1.885,9.861-.64,3.342a5.887,5.887,0,0,0-.1,1.092,5.806,5.806,0,0,0,4.712,5.7Zm12.341-16.149a3.2,3.2,0,0,1-3.162-2.157l6.127-.265A3.194,3.194,0,0,1,1401.975,967.23Z" transform="translate(-1239.835 -860.145)"/><path class="g" d="M1506.07,1074.955a3.2,3.2,0,0,0,6.127-.265Z" transform="translate(-1347.092 -970.03)"/><path class="l" d="M1585.47,1366.3l7.442,9.032h0a4.979,4.979,0,0,0,2.745,1.693h0l4.251.955,1.91-9.281-1.791-.655-5.837-8.941Z" transform="translate(-1417.014 -1220.489)"/><path class="u" d="M1435.285,1211.748l-1.052-1.361-10.863,8.394,8.875,11.486.093-.073a6.8,6.8,0,0,0,4.3,2.618l1.616-.318a4.87,4.87,0,0,0,1.386-.262,6.388,6.388,0,0,0,3.136-10.09l-.275-.343.038-.025-5.084-6.58.63-.486,5.61,7.263-.038.024a7.171,7.171,0,0,1-2.113,10.235l1.184,1.432,8.725-7.195-6.388-9.781-5.352-8.2h0Z" transform="translate(-1274.264 -1087.858)"/><path class="j" d="M1134.038,1215.813l.384-.1.387-.1-1.647-6.55-.388.1-.384.1Z" transform="translate(-997.249 -1064.74)"/><path class="u" d="M1195.25,1201.057l8.415,7.32,7.205-8.28.3.261.61-.7,4.993-5.743h0a6.862,6.862,0,1,0-10.744-8.516h0l-1.634,2.268.322.233Z" transform="translate(-1073.376 -1065.019)"/><path class="g" d="M1059.891,1136.371l3.716-4.27-.3-.26-.3-.261-7.205,8.28-4.871,5.6.3.261.3.261Z" transform="translate(-925.513 -996.5)"/><path class="q" d="M1474.546,1522.513h-18.431a3.684,3.684,0,0,1-3.638,3.131h0l-2.626.01v.023h29.843l.653-3.167Z" transform="translate(-1297.583 -1364.392)"/><path class="g" d="M1535.117,1048.25h-1.8l-4.753,23.078-1.912,9.281-.129.629-.653,3.167v0h1.8Z" transform="translate(-1343.758 -923.117)"/><path class="e" d="M1771.262,1246.19h-48.875l-7.448,36.158,52.352-8.16,5.769-28Zm-23.568,18.077a4.781,4.781,0,0,1-4.456,3.7,2.923,2.923,0,0,1-2.934-3.7,4.775,4.775,0,0,1,4.456-3.7A2.925,2.925,0,0,1,1747.695,1264.266Z" transform="translate(-1531.029 -1121.057)"/><path class="o" d="M1540.94,1290.95h50.674l1.637-7.954.042-.206Z" transform="translate(-1357.029 -1129.66)"/><path class="g" d="M1931.3,1366.66a4.776,4.776,0,0,0-4.456,3.7,2.924,2.924,0,0,0,2.934,3.7,4.776,4.776,0,0,0,4.456-3.7A2.923,2.923,0,0,0,1931.3,1366.66Z" transform="translate(-1717.567 -1227.146)"/><path class="l" d="M1119.454,1362.836h.733l2.975-.012,2.626-.01h0a3.694,3.694,0,1,0-1.225-7.183l-5.193,1.8-10.41-1.357-15.23-1.984,2.883-3.314-.3-.261,4.872-5.6-8.415-7.32-7.781,10.812-.322-.231-2.06,2.865.323.233-.716,1-.324-.239-2.075,2.885h0a4.986,4.986,0,0,0,3.406,7.855,5.137,5.137,0,0,0,.648.037h2.76l24.032.012h8.793Z" transform="translate(-970.895 -1201.556)"/><path class="g" d="M1535.247,1278.647a7.18,7.18,0,0,0,3.21-10.79l.038-.024-5.61-7.263-.63.486,5.084,6.58-.038.025.275.343a6.389,6.389,0,0,1-3.136,10.089,4.86,4.86,0,0,1-1.386.263l-1.616.318-.407.08,2.029.4a5.032,5.032,0,0,0,1.382-.229l-.647,11.078.37.021.425.025Z" transform="translate(-1369.072 -1133.721)"/><path class="j" d="M927.4,1251.277l.324.233.322.231.717-1-.323-.232-.322-.233Z" transform="translate(-816.729 -1101.031)"/><path class="j" d="M950.992,1049.71l.323.233,7.78-10.813,9.466-13.156-.323-.233-.323-.231-2.009,2.792-15.236,21.177Z" transform="translate(-837.221 -903.092)"/><rect class="o" width="0.796" height="2.232" transform="translate(71.868 14.963)"/><rect class="o" width="0.796" height="2.232" transform="translate(71.868 28.356)"/><rect class="o" width="0.799" height="2.24" transform="translate(68.37 16.367) rotate(-29.887)"/><rect class="o" width="0.796" height="2.232" transform="translate(74.712 27.812) rotate(-30)"/><rect class="o" width="0.796" height="2.232" transform="translate(65.304 19.217) rotate(-60)"/><rect class="o" width="0.796" height="2.232" transform="translate(76.903 25.914) rotate(-60)"/><rect class="o" width="2.232" height="0.796" transform="translate(64.454 22.378)"/><rect class="o" width="2.232" height="0.796" transform="translate(77.846 22.378)"/><rect class="o" width="2.232" height="0.796" transform="translate(65.301 26.329) rotate(-30)"/><rect class="o" width="2.232" height="0.796" transform="translate(76.898 19.632) rotate(-30)"/><rect class="o" width="2.232" height="0.796" transform="translate(68.015 29.344) rotate(-59.99)"/><rect class="o" width="2.232" height="0.796" transform="matrix(0.5, -0.866, 0.866, 0.5, 74.706, 17.737)"/><path class="o" d="M2319.566,366.955h-.8a5.866,5.866,0,0,0-5.86-5.86V360.3a5.866,5.866,0,0,0,5.86-5.86h.8a5.866,5.866,0,0,0,5.86,5.86v.795A5.866,5.866,0,0,0,2319.566,366.955Zm-4.387-6.258a3.989,3.989,0,1,0,7.979,0,3.989,3.989,0,1,0-7.979,0Z" transform="translate(-2057.617 -335.758)"/><path class="o" d="M2794.961,973.373a4,4,0,1,1,4-4A4,4,0,0,1,2794.961,973.373Zm0-7.205a3.205,3.205,0,1,0,3.205,3.205A3.205,3.205,0,0,0,2794.961,966.167Z" transform="translate(-2478.601 -873.76)"/><path class="o" d="M490.772,1478.714a2.532,2.532,0,1,1,2.532-2.531A2.532,2.532,0,0,1,490.772,1478.714Zm0-4.266a1.736,1.736,0,1,0,1.737,1.736A1.736,1.736,0,0,0,490.772,1474.447Z" transform="translate(-450.764 -1321.365)"/><path class="o" d="M177.965,959.423a4,4,0,1,1,4-4A4,4,0,0,1,177.965,959.423Zm0-7.205a3.205,3.205,0,1,0,3.205,3.2A3.205,3.205,0,0,0,177.965,952.217Z" transform="translate(-174 -861.475)"/><rect class="o" width="7.694" height="0.796" transform="translate(130.9 10.363)"/><rect class="o" width="0.796" height="7.694" transform="translate(134.349 6.914)"/><rect class="o" width="4.407" height="0.796" transform="translate(276.79 158.808)"/><rect class="o" width="0.796" height="4.407" transform="translate(278.595 157.002)"/><rect class="j" width="22.847" height="0.796" transform="matrix(0.199, -0.98, 0.98, 0.199, 237.084, 147.438)"/><path class="v" d="M1981.33,1271.14" transform="translate(-1765.619 -1143.029)"/><path class="v" d="M1918,1271.14" transform="translate(-1709.849 -1143.029)"/><path class="v" d="M1957.58,1271.14" transform="translate(-1744.704 -1143.029)"/></g></g></svg>