<svg xmlns="http://www.w3.org/2000/svg" width="18" height="18" viewBox="0 0 18 18">
  <g id="Org_Health" data-name="Org Health" transform="translate(1.154 0.741)">
    <g id="frame" transform="translate(-0.154 0.259)" fill="none" stroke="#969696" stroke-width="1" opacity="0">
      <rect width="16" height="16" stroke="none"/>
      <rect x="-0.5" y="-0.5" width="17" height="17" fill="none"/>
    </g>
    <path id="Path_1137" data-name="Path 1137" d="M14.914,1.349A1.9,1.9,0,0,0,13.388.588h-.256V.441a.441.441,0,0,0-.883,0V1.618a.441.441,0,0,0,.883,0V1.471h.256a1.03,1.03,0,0,1,.99,1.313l-1.171,4.1a2.679,2.679,0,0,1-5.151,0l-1.171-4.1a1.03,1.03,0,0,1,.99-1.313H8.13v.147a.441.441,0,1,0,.883,0V.441a.441.441,0,1,0-.883,0V.588H7.874A1.912,1.912,0,0,0,6.035,3.026l1.171,4.1A3.535,3.535,0,0,0,8.486,8.99a3.614,3.614,0,0,0,.417.271L10.19,12.3v.318a1.563,1.563,0,1,1-3.126,0V9.59A2.53,2.53,0,0,0,2,9.59v1.925h.883V9.59a1.647,1.647,0,1,1,3.295,0v3.026a2.445,2.445,0,1,0,4.891,0V12.3L12.36,9.26a3.614,3.614,0,0,0,.416-.27,3.534,3.534,0,0,0,1.28-1.865l1.171-4.1a1.9,1.9,0,0,0-.312-1.677Zm-4.283,9.728-.6-1.42a3.594,3.594,0,0,0,1.2,0Z" transform="translate(-0.397 0.699)" fill="#969696" stroke="#969696" stroke-width="0.2"/>
    <circle id="Ellipse_521" data-name="Ellipse 521" cx="1.101" cy="1.101" r="1.101" transform="translate(0.947 10.826)" fill="#969696"/>
  </g>
</svg>
