<svg xmlns="http://www.w3.org/2000/svg" width="169.828" height="89.064" viewBox="0 0 169.828 89.064"><defs><style>.a{fill:#e0e0e0;}.b{opacity:0.1;}.c,.n{fill:#c8c8c8;}.d{fill:#e6e6e6;}.e{fill:#dcdcdc;}.f{fill:#fff;}.g{fill:#c9d7e4;}.h{fill:#3c3c3c;}.i{fill:#ffb8b8;}.j{fill:#feb8b8;}.k,.o{fill:#969696;}.l{fill:#ffc965;}.m{fill:#646464;}.n{stroke:#c8c8c8;}.o{opacity:0.8;}</style></defs><g transform="translate(-1528.397 -296.983)"><g transform="translate(1556.224 302.663)"><g transform="translate(-27.827)"><rect class="a" width="169.828" height="4.148" transform="translate(0 77.54)"/><rect class="a" width="159.458" height="1.697" transform="translate(5.185 81.688)"/><rect class="b" width="159.458" height="0.566" transform="translate(5.185 81.688)"/></g><g transform="translate(-25.299 -6.207)"><path class="c" d="M801.459,566h-.576l.192-11.247h.192Z" transform="translate(-787.744 -487.326)"/><path class="c" d="M3.355,0H5.335A3.355,3.355,0,0,1,8.69,3.355V6.709H0V3.355A3.355,3.355,0,0,1,3.355,0Z" transform="translate(9.369 76.887)"/><path class="d" d="M934.76,486.16l.648-.821a11.255,11.255,0,0,0-.665-1.275l-.419.277.332-.42c-.317-.51-.566-.831-.566-.831a10.821,10.821,0,0,0-1.735,3.455l.832,1.053-.921-.609a4.058,4.058,0,0,0-.05.624c0,2.1.839,3.81,1.874,3.81s1.875-1.706,1.875-3.81a5.507,5.507,0,0,0-.429-1.966Z" transform="translate(-748.491 -658.914) rotate(16)"/><path class="e" d="M935.269,487.04l.778-1.056a14.886,14.886,0,0,0-.8-1.641l-.5.357.4-.541c-.38-.656-.679-1.07-.679-1.07a14.284,14.284,0,0,0-2.082,4.445l1,1.355-1.105-.784a5.585,5.585,0,0,0-.061.8c0,2.707,1.007,4.9,2.249,4.9s2.25-2.195,2.25-4.9a7.518,7.518,0,0,0-.515-2.53Z" transform="translate(-1020.834 -142.223) rotate(-16)"/></g><g transform="translate(18.517 64.948) rotate(90)"><rect class="d" width="12.481" height="15.47" transform="translate(0)"/><rect class="f" width="9.547" height="12.536" transform="translate(1.489 1.488)"/><path class="c" d="M3.25,0A3.247,3.247,0,0,0,1.1,5.685,2.437,2.437,0,0,1,3.25,4.4a1.149,1.149,0,1,1,.9-1.858A1.148,1.148,0,0,1,3.25,4.4a2.427,2.427,0,0,1,1.2.32l0-.007a1.357,1.357,0,0,0,1.99-.9c.006-.032.01-.065.015-.1,0,0,0-.007,0-.01h0A3.227,3.227,0,0,0,3.25,0Z" transform="translate(3.397 11.154) rotate(-90)"/></g><g transform="translate(10.232 0.601)"><path class="g" d="M455.391,466.261c6.935,0,18.269-1.94,23.656-5.274-.584-2.994-1.926-7.838-3.2-12.173-1.62-5.521-11.846-9.349-17.946-9.349h-5.878c-6.119,0-16.36,3.85-17.96,9.395-1.219,4.225-2.521,8.866-3.168,11.59C436.446,464.111,448.092,466.261,455.391,466.261Z" transform="translate(-395.294 -403.819)"/><circle class="h" cx="13.625" cy="13.625" r="13.625" transform="translate(46.205 5.739)"/><path class="i" d="M450.969,258.553h8.339a1.52,1.52,0,0,1,1.677,1.281V265.7c0,2.466-2.618,4.465-5.847,4.465h0c-3.229,0-5.847-2-5.847-4.465v-5.863A1.52,1.52,0,0,1,450.969,258.553Z" transform="translate(-395.232 -229.164)"/><path class="b" d="M563.709,400.539a12.565,12.565,0,0,0,8.73.024V399.49h-8.73Z" transform="translate(-508.26 -366.53)"/><circle class="i" cx="12.513" cy="12.513" r="12.513" transform="translate(47.317 9.567)"/><path class="b" d="M525.046,185.854s5.274,10.7,20.15,4.486l-3.463-5.431-6.139-2.2Z" transform="translate(-474.129 -175.156)"/><path class="h" d="M525.046,184.511s5.274,10.7,20.15,4.486l-3.463-5.431-6.139-2.2Z" transform="translate(-474.129 -173.97)"/><path class="h" d="M522.68,137.019a7.229,7.229,0,0,1,1.792-2.914c2.462-2.433,6.5-2.947,8.566-5.721a1.62,1.62,0,0,1-.742,2.285c1.98-.013,4.281-.186,5.4-1.819a3.709,3.709,0,0,1-.625,3.917c1.758.08,3.633,1.273,3.747,3.028a3.5,3.5,0,0,1-1.619,2.948,9,9,0,0,1-3.269,1.231C532.589,140.71,520.5,143.8,522.68,137.019Z" transform="translate(-471.809 -127.202)"/><path class="h" d="M519.4,307.6h-.332l-6.454,5.746c-6.218-2.912-10.783,0-10.783,0l-6.769-5.51-.683.086A12.512,12.512,0,1,0,519.4,307.6Zm-12.532,7.95c-2.434,0-4.408-.493-4.408-1.1s1.973-1.1,4.408-1.1,4.408.493,4.408,1.1S509.3,315.552,506.867,315.552Z" transform="translate(-447.056 -285.413)"/><ellipse class="i" cx="1.164" cy="2.183" rx="1.164" ry="2.183" transform="translate(46.148 19.885)"/><ellipse class="i" cx="1.164" cy="2.183" rx="1.164" ry="2.183" transform="translate(71.178 19.885)"/><path class="j" d="M504.54,482.38l-4.9,17a3.451,3.451,0,1,0,4.916,2.03l6.562-18.044-.643-6.714C510.471,468.063,504.54,482.38,504.54,482.38Z" transform="translate(-141.177 -616.295) rotate(31)"/><path class="h" d="M3.881,1.279c3.936-.008,4.4,4.1,4.4,4.1H-.4S-.055,1.287,3.881,1.279Z" transform="translate(23.544 71.608)"/></g><g transform="translate(9)"><rect class="k" width="50.151" height="29.412" rx="2" transform="translate(35.776 48.209)"/><circle class="f" cx="2.5" cy="2.5" r="2.5" transform="translate(58.776 61.209)"/></g><g transform="translate(110.626 61.264)"><path class="l" d="M5.538,16.041c-1.208-.015-2.446-.03-3.71-.027V11.646a6.949,6.949,0,1,1,10.062.189v4.179c-1,.041-2.022.055-3.073.055S6.657,16.055,5.538,16.041Z" transform="translate(0 0)"/><circle class="f" cx="4.997" cy="4.997" r="4.997" transform="translate(1.952 1.953)"/><g transform="translate(5.7 2.577)"><circle class="m" cx="1.249" cy="1.249" r="1.249" transform="translate(0 3.123)"/><rect class="m" width="0.625" height="4.997" transform="translate(5.621 4.061) rotate(90)"/><rect class="m" width="0.625" height="4.997" transform="translate(1.561 4.997) rotate(180)"/></g></g><g transform="translate(96.054 -5.179)"><path class="n" d="M318.31,207.944h.013a9.25,9.25,0,1,0-6.385-2.558l-1.861,2.086.1.04a4.048,4.048,0,0,0,3.744-.684,9.232,9.232,0,0,0,4.393,1.116Zm.013-18.349a9.1,9.1,0,1,1-4.375,17.081l-.041-.022-.038.027a3.988,3.988,0,0,1-3.541.734l1.818-2.038-.053-.05a9.1,9.1,0,0,1,6.23-15.733Z" transform="translate(-309.074 -189.446)"/><g transform="translate(0.293 0.5)"><path class="m" d="M386.331,304.737c-1.9-.021-3.8-.057-5.694-.084q-.949-.014-1.9-.024c-.545-.006-.547-.9,0-.892,1.9.021,3.8.056,5.694.084q.949.014,1.9.024C386.876,303.85,386.877,304.743,386.331,304.737Z" transform="translate(-374.218 -297.848)"/><path class="m" d="M385.536,338.055l-7.671-.084-2.182-.024c-.545-.006-.547-.9,0-.893l7.671.084,2.182.024C386.081,337.168,386.082,338.061,385.536,338.055Z" transform="translate(-371.343 -328.666)"/><path class="m" d="M385.536,371.372l-7.671-.084-2.182-.024c-.545-.006-.547-.9,0-.892l7.671.084,2.182.024C386.081,370.486,386.082,371.378,385.536,371.372Z" transform="translate(-371.343 -359.484)"/></g></g><g transform="translate(-11.431 11.628)"><path class="c" d="M0,0H48.031V11.73H0Z"/><path class="f" d="M540.23,204.986h45.983V195.3H540.23Z" transform="translate(-539.205 -194.28)"/><circle class="o" cx="2.333" cy="2.333" r="2.333" transform="translate(4.217 3.409)"/><path class="m" d="M404.536,338.055l-26.671-.084-2.182-.024c-.545-.006-.547-.9,0-.893l7.671.084,21.182.024C405.081,337.168,405.082,338.061,404.536,338.055Z" transform="translate(-363.565 -332.974)"/><path class="m" d="M404.536,371.372l-26.671-.084-2.182-.024c-.545-.006-.547-.9,0-.892l7.671.084,21.182.024C405.081,370.486,405.082,371.378,404.536,371.372Z" transform="translate(-363.565 -363.792)"/></g></g></g></svg>