<svg xmlns="http://www.w3.org/2000/svg" width="17.1" height="10.936" viewBox="0 0 17.1 10.936">
  <g id="Productivity" transform="translate(-67.495 -253.7)">
    <path id="Path_3277" data-name="Path 3277" d="M81.289,253.168h-4.9a1.144,1.144,0,0,0,0,2.288h2.14l-4.887,4.887-2.656-2.656a1.144,1.144,0,0,0-1.617,0l-2.6,2.6a1.144,1.144,0,1,0,1.617,1.618l1.79-1.79,2.656,2.656a1.144,1.144,0,0,0,1.618,0l5.7-5.7v2.139a1.144,1.144,0,1,0,2.288,0v-4.9A1.144,1.144,0,0,0,81.289,253.168Zm0,0" transform="translate(1.662 1.032)" fill="#969696" stroke="#fff" stroke-width="1"/>
  </g>
</svg>
