<svg xmlns="http://www.w3.org/2000/svg" width="380" height="204" viewBox="0 0 380 204"><defs><style>.a{fill:red;opacity:0;}.b{fill:#e0e0e0;}.c{opacity:0.1;}.d,.o{fill:#c8c8c8;}.e{fill:#e6e6e6;}.f{fill:#dcdcdc;}.g{fill:#fff;}.h{fill:#c9d7e4;}.i{fill:#3c3c3c;}.j{fill:#ffb8b8;}.k{fill:#feb8b8;}.l,.p{fill:#969696;}.m{fill:#ffc965;}.n{fill:#646464;}.o{stroke:#c8c8c8;}.p{opacity:0.8;}</style></defs><g transform="translate(-1483 -269.631)"><rect class="a" width="380" height="204" transform="translate(1483 269.631)"/><g transform="translate(1539.396 300.255)"><g transform="translate(0 120.981)"><rect class="b" width="248.381" height="6.066"/><rect class="b" width="233.215" height="2.482" transform="translate(7.583 6.067)"/><rect class="c" width="233.215" height="0.827" transform="translate(7.583 6.067)"/></g><g transform="translate(16.023 89.876)"><path class="d" d="M801.725,571.2h-.842l.281-16.449h.281Z" transform="translate(-793.993 -547.423)"/><path class="d" d="M4.906,0H7.8a4.906,4.906,0,0,1,4.906,4.906V9.812H0V4.906A4.906,4.906,0,0,1,4.906,0Z" transform="translate(1.377 21.164)"/><path class="e" d="M3.72,4.49l.948-1.2A16.427,16.427,0,0,0,3.7,1.425l-.613.406.486-.615C3.105.47,2.741,0,2.741,0A15.826,15.826,0,0,0,.2,5.053l1.217,1.54L.074,5.7A5.945,5.945,0,0,0,0,6.615c0,3.078,1.227,5.573,2.741,5.573S5.483,9.693,5.483,6.615a8.052,8.052,0,0,0-.627-2.876Z" transform="translate(8.816 0) rotate(16)"/><path class="f" d="M4.465,5.777,5.6,4.233a21.763,21.763,0,0,0-1.168-2.4L3.7,2.355l.583-.791C3.727.6,3.29,0,3.29,0A20.892,20.892,0,0,0,.245,6.5L1.705,8.483.089,7.336A8.2,8.2,0,0,0,0,8.511c0,3.96,1.473,7.17,3.29,7.17s3.29-3.21,3.29-7.17a10.993,10.993,0,0,0-.753-3.7Z" transform="translate(0 4.071) rotate(-16)"/></g><g transform="translate(67.779 102.564) rotate(90)"><rect class="e" width="18.254" height="22.625" transform="translate(0)"/><rect class="g" width="13.964" height="18.335" transform="translate(2.177 2.177)"/><path class="d" d="M4.754,0A4.749,4.749,0,0,0,1.612,8.315a3.564,3.564,0,0,1,3.142-1.88A1.68,1.68,0,1,1,6.065,3.717,1.679,1.679,0,0,1,4.754,6.434,3.55,3.55,0,0,1,6.516,6.9l.005-.01a1.985,1.985,0,0,0,2.91-1.313c.008-.047.015-.095.022-.142,0,0,0-.01,0-.015h0A4.72,4.72,0,0,0,4.754,0Z" transform="translate(4.969 16.314) rotate(-90)"/></g><g transform="translate(89.517 10.183)"><path class="h" d="M466.721,478.655c10.142,0,26.719-2.838,34.6-7.714-.853-4.378-2.817-11.463-4.677-17.8-2.37-8.075-17.326-13.673-26.247-13.673h-8.6c-8.95,0-23.927,5.63-26.267,13.74-1.783,6.18-3.686,12.967-4.633,16.951C439.014,475.511,456.046,478.655,466.721,478.655Z" transform="translate(-412.679 -389.06)"/><circle class="i" cx="19.927" cy="19.927" r="19.927" transform="translate(33.724 6.665)"/><path class="j" d="M451.745,258.553h12.2a2.223,2.223,0,0,1,2.453,1.873V269c0,3.607-3.828,6.531-8.551,6.531h0c-4.723,0-8.551-2.924-8.551-6.531v-8.575A2.223,2.223,0,0,1,451.745,258.553Z" transform="translate(-404.081 -217.299)"/><path class="c" d="M563.709,401.024a18.376,18.376,0,0,0,12.768.035V399.49H563.709Z" transform="translate(-516.466 -353.013)"/><circle class="j" cx="18.301" cy="18.301" r="18.301" transform="translate(35.35 12.263)"/><path class="c" d="M525.046,187.31s7.713,15.656,29.47,6.562l-5.065-7.943-8.979-3.223Z" transform="translate(-484.431 -173.393)"/><path class="i" d="M525.046,185.967s7.713,15.656,29.47,6.562l-5.065-7.943-8.979-3.223Z" transform="translate(-484.431 -172.28)"/><path class="i" d="M522.8,141.013a10.573,10.573,0,0,1,2.62-4.262c3.6-3.558,9.5-4.31,12.528-8.367a2.369,2.369,0,0,1-1.085,3.341c2.9-.019,6.261-.273,7.9-2.661a5.425,5.425,0,0,1-.915,5.728c2.571.117,5.313,1.861,5.479,4.429a5.114,5.114,0,0,1-2.368,4.311,13.162,13.162,0,0,1-4.781,1.8C537.294,146.411,519.612,150.927,522.8,141.013Z" transform="translate(-482.254 -128.384)"/><path class="i" d="M530.972,307.6h-.485l-9.439,8.4c-9.094-4.259-15.771,0-15.771,0l-9.9-8.058-1,.125a18.3,18.3,0,1,0,36.6-.471Zm-18.328,11.627c-3.56,0-6.447-.722-6.447-1.612s2.886-1.612,6.447-1.612,6.447.722,6.447,1.612S516.2,319.229,512.644,319.229Z" transform="translate(-459.021 -276.878)"/><ellipse class="j" cx="1.702" cy="3.192" rx="1.702" ry="3.192" transform="translate(33.64 27.355)"/><ellipse class="j" cx="1.702" cy="3.192" rx="1.702" ry="3.192" transform="translate(70.247 27.355)"/><path class="k" d="M9.854,12.39,2.682,37.255a5.047,5.047,0,1,0,7.189,2.969l9.6-26.39-.94-9.819C18.527-8.55,9.854,12.39,9.854,12.39Z" transform="translate(26.758 66.004) rotate(31)"/><path class="i" d="M5.86,1.279c5.757-.012,6.439,6,6.439,6H-.4S.1,1.291,5.86,1.279Z" transform="translate(0.397 103.593)"/></g><g transform="translate(106.185 78.084)"><rect class="l" width="73.349" height="43.016" rx="2"/><circle class="g" cx="3.5" cy="3.5" r="3.5" transform="translate(34.419 19.292)"/></g><g transform="translate(202.494 97.177)"><path class="m" d="M8.1,23.461c-1.767-.021-3.578-.044-5.426-.039V17.033a10.163,10.163,0,1,1,14.716.277v6.112c-1.458.06-2.957.08-4.495.08C11.335,23.5,9.736,23.482,8.1,23.461Z" transform="translate(0 0)"/><circle class="g" cx="7.309" cy="7.309" r="7.309" transform="translate(2.854 2.856)"/><g transform="translate(8.336 3.769)"><circle class="n" cx="1.827" cy="1.827" r="1.827" transform="translate(0 4.568)"/><rect class="n" width="0.914" height="7.309" transform="translate(8.222 5.939) rotate(90)"/><rect class="n" width="0.914" height="7.309" transform="translate(2.284 7.309) rotate(180)"/></g></g><g transform="translate(181.181 0)"><path class="o" d="M322.582,216.5h.019a13.529,13.529,0,1,0-9.338-3.741l-2.721,3.051.14.059c2.256.957,4.541-.347,5.475-1a13.5,13.5,0,0,0,6.425,1.632Zm.019-26.837a13.31,13.31,0,1,1-6.4,24.982l-.06-.033-.056.04c-.848.6-3.024,1.893-5.179,1.074l2.658-2.98-.077-.072a13.309,13.309,0,0,1,9.112-23.01Z" transform="translate(-309.074 -189.446)"/><g transform="translate(6.177 9.344)"><path class="n" d="M390.032,305.2c-2.776-.031-5.552-.083-8.327-.122q-1.388-.02-2.776-.035c-.8-.009-.8-1.314,0-1.305,2.776.03,5.552.083,8.327.122q1.388.02,2.776.035C390.829,303.9,390.831,305.208,390.032,305.2Z" transform="translate(-378.064 -303.737)"/><path class="n" d="M390.282,338.517l-11.219-.122-3.191-.035c-.8-.009-.8-1.314,0-1.305l11.219.122,3.191.035C391.08,337.22,391.082,338.526,390.282,338.517Z" transform="translate(-375.274 -333.398)"/><path class="n" d="M390.282,371.835l-11.219-.122-3.191-.035c-.8-.009-.8-1.314,0-1.305l11.219.122,3.191.035C391.08,370.538,391.082,371.844,390.282,371.835Z" transform="translate(-375.274 -363.06)"/></g></g><g transform="translate(23.98 24.582)"><path class="d" d="M0,0H70.247V17.156H0Z"/><path class="g" d="M540.23,209.465h67.252V195.3H540.23Z" transform="translate(-538.731 -193.806)"/><circle class="p" cx="3.411" cy="3.411" r="3.411" transform="translate(6.167 4.986)"/><path class="n" d="M418.071,338.517l-39.008-.122-3.191-.035c-.8-.009-.8-1.314,0-1.305l11.219.122,30.979.035C418.868,337.22,418.87,338.526,418.071,338.517Z" transform="translate(-358.15 -331.086)"/><path class="n" d="M418.071,371.835l-39.008-.122-3.191-.035c-.8-.009-.8-1.314,0-1.305l11.219.122,30.979.035C418.868,370.538,418.87,371.844,418.071,371.835Z" transform="translate(-358.15 -360.748)"/></g></g></g></svg>