<svg id="illustration" xmlns="http://www.w3.org/2000/svg" width="183.767" height="129.505" viewBox="0 0 183.767 129.505">
  <g id="Group_950" data-name="Group 950">
    <path id="Path_3876" data-name="Path 3876" d="M428.055,317.73c5.6-1.681,11.551-3.435,15.991-7.432,3.968-3.572,6.646-9.026,5-14.383S442.5,287,437.422,285.232a47.7,47.7,0,0,0-8.9-2c-3.271-.476-6.556-.867-9.84-1.242q-19.945-2.281-40.04-2.787c-6.61-.167-13.22-.162-19.831-.066-5.9.086-12.123.084-17.6-2.426-4.259-1.951-8.125-5.5-9.312-10.167-1.37-5.386,1.157-10.87,4.782-14.771a38.715,38.715,0,0,1,6.448-5.378c2.5-1.726,5.086-3.33,7.728-4.827a107.61,107.61,0,0,1,16.266-7.5c2.773-1.008,5.587-1.878,8.426-2.681a72.1,72.1,0,0,0,7.118-2.279c4.478-1.785,8.737-4.808,9.876-9.764,1.079-4.7-.74-9.8-3.93-13.286-3.69-4.037-9.255-5.807-14.59-6.093-5.989-.321-11.84,1.177-17.469,3.08-6,2.029-11.878,4.362-18.009,6.005a121.178,121.178,0,0,1-18.535,3.445,50.279,50.279,0,0,1-9.3.445,11.248,11.248,0,0,1-7.056-2.8,6.979,6.979,0,0,1-2.27-6.012c.061-.414.69-.238.629.174-.407,2.775,1.479,5.332,3.8,6.642,2.686,1.514,5.955,1.516,8.946,1.343a117.009,117.009,0,0,0,19.257-2.784,154.759,154.759,0,0,0,18.211-5.622c5.69-2.061,11.508-4.072,17.588-4.518,5.275-.387,10.824.381,15.419,3.138a17.057,17.057,0,0,1,7.955,11.1,12.866,12.866,0,0,1-3.786,12.252c-3.551,3.273-8.42,4.673-12.957,5.962a118.714,118.714,0,0,0-16.837,6.027,105.7,105.7,0,0,0-15.838,8.9c-4.84,3.307-9.616,7.469-11.147,13.369a12.316,12.316,0,0,0,.612,8.26,15.093,15.093,0,0,0,4.843,5.748c4.856,3.573,10.976,4.307,16.842,4.38,6.588.082,13.176-.14,19.766-.032q20.146.331,40.209,2.452,5.027.532,10.042,1.176a90.8,90.8,0,0,1,8.981,1.456c5.257,1.22,10.372,3.566,13.639,8.023a12.687,12.687,0,0,1,1.081,13.873c-2.509,4.937-7.209,8.076-12.2,10.139a86.569,86.569,0,0,1-8.213,2.773.327.327,0,0,1-.174-.629Z" transform="translate(-274.415 -189.063)" fill="#f0f0f0"/>
    <circle id="Ellipse_1584" data-name="Ellipse 1584" cx="5.221" cy="5.221" r="5.221" transform="translate(22.167 9.899)" fill="#f0f0f0"/>
    <circle id="Ellipse_1585" data-name="Ellipse 1585" cx="5.221" cy="5.221" r="5.221" transform="translate(58.391 19.798)" fill="#f0f0f0"/>
    <circle id="Ellipse_1586" data-name="Ellipse 1586" cx="5.221" cy="5.221" r="5.221" transform="translate(89.067)" fill="#f0f0f0"/>
    <circle id="Ellipse_1587" data-name="Ellipse 1587" cx="5.221" cy="5.221" r="5.221" transform="translate(108.212 22.191)" fill="#f0f0f0"/>
    <circle id="Ellipse_1588" data-name="Ellipse 1588" cx="5.221" cy="5.221" r="5.221" transform="translate(82.323 47.863)" fill="#f0f0f0"/>
    <circle id="Ellipse_1589" data-name="Ellipse 1589" cx="5.221" cy="5.221" r="5.221" transform="translate(49.471 60.264)" fill="#f0f0f0"/>
    <circle id="Ellipse_1590" data-name="Ellipse 1590" cx="5.221" cy="5.221" r="5.221" transform="translate(84.281 79.627)" fill="#f0f0f0"/>
    <circle id="Ellipse_1591" data-name="Ellipse 1591" cx="5.221" cy="5.221" r="5.221" transform="translate(121.701 90.505)" fill="#f0f0f0"/>
    <circle id="Ellipse_1592" data-name="Ellipse 1592" cx="5.221" cy="5.221" r="5.221" transform="translate(165.431 88.112)" fill="#f0f0f0"/>
  </g>
  <path id="Path_3878" data-name="Path 3878" d="M361.17,745.768H177.921a.259.259,0,0,1,0-.518H361.17a.259.259,0,0,1,0,.518Z" transform="translate(-177.662 -616.263)" fill="#3f3d56"/>
  <g id="Group_951" data-name="Group 951" transform="translate(-10)">
    <path id="Path_4122" data-name="Path 4122" d="M0,0S1.778,20.467,7.666,34.324,18.719,52.24,33.586,60.867s20.877,7.584,42.261,7.593" transform="translate(116.768 59.505)" fill="none" stroke="#222" stroke-width="1.5"/>
    <line id="Line_734" data-name="Line 734" y2="26" transform="translate(116.767 59.505)" fill="none" stroke="#222" stroke-width="1.5"/>
    <path id="Path_3906" data-name="Path 3906" d="M2,0A2,2,0,0,1,4,2H0A2,2,0,0,1,2,0Z" transform="translate(114.767 84.505)" fill="#222"/>
    <line id="Line_735" data-name="Line 735" y1="1" transform="translate(115.767 86.505)" fill="none" stroke="#222" stroke-linecap="round" stroke-width="1"/>
    <line id="Line_736" data-name="Line 736" y1="1" transform="translate(117.767 86.505)" fill="none" stroke="#222" stroke-linecap="round" stroke-width="1"/>
  </g>
  <g id="Group_948" data-name="Group 948" transform="translate(-10)">
    <circle id="Ellipse_1593" data-name="Ellipse 1593" cx="6.527" cy="6.527" r="6.527" transform="translate(130.198 46.339)" fill="#3c3c3c"/>
    <path id="Path_3879" data-name="Path 3879" d="M558.856,545.129h-2.667l-1.269-10.288h3.937Z" transform="translate(-434.192 -418.481)" fill="#a0616a"/>
    <path id="Path_3880" data-name="Path 3880" d="M540.347,578.626h5.144v3.239h-8.383A3.239,3.239,0,0,1,540.347,578.626Z" transform="translate(-420.256 -452.74)" fill="#3c3c3c"/>
    <path id="Path_3881" data-name="Path 3881" d="M653.856,545.129h-2.667l-1.269-10.288h3.937Z" transform="translate(-508.524 -418.481)" fill="#a0616a"/>
    <path id="Path_3882" data-name="Path 3882" d="M635.347,578.626h5.144v3.239h-8.383A3.239,3.239,0,0,1,635.347,578.626Z" transform="translate(-494.587 -452.74)" fill="#3c3c3c"/>
    <circle id="Ellipse_1594" data-name="Ellipse 1594" cx="5.343" cy="5.343" r="5.343" transform="translate(130.39 48.744)" fill="#a0616a"/>
    <path id="Path_3883" data-name="Path 3883" d="M747.481,449.934l2.391-5.493a6.828,6.828,0,0,0-1.512-7.745,6.946,6.946,0,0,0-.668-.581,6.73,6.73,0,0,0-4.131-1.429,7,7,0,0,0-2.915.648c-.078.035-.155.072-.233.109-.15.072-.3.15-.442.231a6.892,6.892,0,0,0-3.416,5.2L735.5,449.71c-.265.694-9.734,25.757-6.422,44.891a.972.972,0,0,0,.831.8l3.357.457a.978.978,0,0,0,1.09-.768l5.633-26.849a.762.762,0,0,1,1.479-.05l7.958,28.235a.973.973,0,0,0,.938.714,1.125,1.125,0,0,0,.189-.017l4.1-.79a.973.973,0,0,0,.79-1.046C754.841,488.564,751.638,454.9,747.481,449.934Z" transform="translate(-608.563 -373.265)" fill="#3c3c3c"/>
    <path id="Path_3884" data-name="Path 3884" d="M706.048,414.375a2.188,2.188,0,0,0,2.3,2.437l2.987,7.178,2.259-3.349-3.183-6.3a2.2,2.2,0,0,0-4.368.037Z" transform="translate(-591.082 -355.84)" fill="#a0616a"/>
    <path id="Path_3885" data-name="Path 3885" d="M791.289,506.335a2.188,2.188,0,0,0,1.833-2.809l6.284-4.577-3.783-1.417-5.388,4.564a2.2,2.2,0,0,0,1.054,4.24Z" transform="translate(-655.852 -422.438)" fill="#a0616a"/>
    <path id="Path_3886" data-name="Path 3886" d="M725.325,449.1a3.71,3.71,0,0,1-.718-.071,3.547,3.547,0,0,1-2.6-2.092l-4.185-5.1a.979.979,0,0,1,.242-1.453l2.977-1.843a.979.979,0,0,1,1.352.324l2.949,4.859,5.648-4.174a2.115,2.115,0,0,1,2.461,3.386l-5.637,5.142A3.536,3.536,0,0,1,725.325,449.1Z" transform="translate(-600.132 -376.164)" fill="#3c3c3c"/>
    <path id="Path_3887" data-name="Path 3887" d="M810.212,462.51h-.023a.981.981,0,0,1-.72-.342l-2.647-3.088a.979.979,0,0,1,.2-1.452l4.956-3.3-4.49-5.4a2.115,2.115,0,0,1,3.239-2.65l5.457,5.333a3.6,3.6,0,0,1-.8,5.861l-4.46,4.733a.98.98,0,0,1-.713.307Z" transform="translate(-669.757 -381.901)" fill="#3c3c3c"/>
    <path id="Path_3888" data-name="Path 3888" d="M784.676,440.539a1.016,1.016,0,0,1-.127-.008.97.97,0,0,1-.807-.668l-1.989-6.1a.671.671,0,0,1,.347-.81l.065-.03c.059-.028.117-.055.176-.082a7.087,7.087,0,0,1,2.959-.658,6.815,6.815,0,0,1,3.734,1.122.681.681,0,0,1,.2.934l-3.731,5.845A.969.969,0,0,1,784.676,440.539Z" transform="translate(-650.302 -371.309)" fill="#e6e6e6"/>
    <circle id="Ellipse_1595" data-name="Ellipse 1595" cx="2.136" cy="2.136" r="2.136" transform="translate(139.735 45.681)" fill="#3c3c3c"/>
    <path id="Path_3889" data-name="Path 3889" d="M775.768,361.365h0a5.657,5.657,0,0,0-5.656,5.657v2.393h2.943l1.408-2.393.422,2.393h8.933l-2.393-2.393A5.657,5.657,0,0,0,775.768,361.365Z" transform="translate(-641.218 -315.896)" fill="#3c3c3c"/>
    <path id="Path_3890" data-name="Path 3890" d="M834.809,357.187a3.3,3.3,0,0,1,3.586-2.262,4.567,4.567,0,0,1,3.078,2.543,25.044,25.044,0,0,1,1.368,3.9,7.063,7.063,0,0,0,2.131,3.477,3.17,3.17,0,0,0,3.827.206,4.377,4.377,0,0,1-8.154,1.562,9.469,9.469,0,0,1-.877-3.318,7.251,7.251,0,0,0-1.058-3.25,2.689,2.689,0,0,0-3-1.118Z" transform="translate(-691.84 -310.833)" fill="#3c3c3c"/>
  </g>
  <g id="Group_949" data-name="Group 949" transform="translate(27)">
    <path id="Path_3903" data-name="Path 3903" d="M283.87,500a2.189,2.189,0,0,0-3.376-.97l-6.479-4.3-.011,4.04,6.154,3.462A2.2,2.2,0,0,0,283.87,500Z" transform="translate(-253.044 -420.245)" fill="#ffb8b8"/>
    <path id="Path_3894" data-name="Path 3894" d="M126.539,545.584h2.667l1.269-10.288h-3.937Z" transform="translate(-99.008 -418.837)" fill="#ffb8b8"/>
    <path id="Path_3895" data-name="Path 3895" d="M0,0H8.383V3.239H3.239A3.239,3.239,0,0,1,0,0H0Z" transform="translate(35.34 129.224) rotate(179.997)" fill="#3c3c3c"/>
    <path id="Path_3896" data-name="Path 3896" d="M82.539,545.584h2.667L86.475,535.3H82.538Z" transform="translate(-64.581 -418.837)" fill="#ffb8b8"/>
    <path id="Path_3897" data-name="Path 3897" d="M0,0H8.383V3.239H3.239A3.239,3.239,0,0,1,0,0H0Z" transform="translate(25.768 129.224) rotate(179.997)" fill="#3c3c3c"/>
    <path id="Path_3898" data-name="Path 3898" d="M258.082,592.041l-2.605-.137a1.017,1.017,0,0,1-.961-1.081l3.114-34.476,14.34,3.869,1.382-.377-4.32,30.52a1.022,1.022,0,0,1-.948.858l-2.808.131a1.017,1.017,0,0,1-1.073-1.043l.509-18.318a.339.339,0,0,0-.671-.078l-4.907,19.322a1.011,1.011,0,0,1-.994.811Z" transform="translate(-237.794 -468.458)" fill="#3c3c3c"/>
    <circle id="Ellipse_1596" data-name="Ellipse 1596" cx="5.343" cy="5.343" r="5.343" transform="translate(22.666 48.994)" fill="#ffb8b8"/>
    <path id="Path_3899" data-name="Path 3899" d="M265.478,443.839l.587,12.677.212,4.612a1.01,1.01,0,0,0,.669.908l13.779,4.992a.974.974,0,0,0,.348.061,1.01,1.01,0,0,0,1.015-1.042l-.565-22.793a8.034,8.034,0,0,0-6.689-7.762c-.133-.02-.269-.041-.4-.059a7.886,7.886,0,0,0-6.345,2.054,8.1,8.1,0,0,0-2.608,6.352Z" transform="translate(-246.366 -373.803)" fill="#ccc"/>
    <path id="Path_3900" data-name="Path 3900" d="M344.849,534.087a2.189,2.189,0,0,1-1.168-3.313l-4.673-6.214,4.032-.25,3.819,5.939a2.2,2.2,0,0,1-2.011,3.837Z" transform="translate(-303.906 -443.392)" fill="#ffb8b8"/>
    <path id="Path_3901" data-name="Path 3901" d="M322.684,473.029a1.011,1.011,0,0,1-.553-.548l-7.04-16.773a2.712,2.712,0,1,1,5-2.1l7.04,16.773a1.018,1.018,0,0,1-.544,1.331l-3.125,1.312A1.01,1.01,0,0,1,322.684,473.029Z" transform="translate(-285.027 -386.771)" fill="#ccc"/>
    <path id="Path_3902" data-name="Path 3902" d="M298.075,497.522l6.762-12.947a1.061,1.061,0,0,1,1.43-.449l9.814,5.126a1.061,1.061,0,0,1,.449,1.43l-6.762,12.947a1.061,1.061,0,0,1-1.43.449l-9.814-5.126A1.061,1.061,0,0,1,298.075,497.522Z" transform="translate(-276.785 -413.855)" fill="#2f4d6f"/>
    <path id="Path_4055" data-name="Path 4055" d="M344.849,534.087a2.189,2.189,0,0,1-1.168-3.313l-4.673-6.214,4.032-.25,3.819,5.939a2.2,2.2,0,0,1-2.011,3.837Z" transform="translate(-537.526 -207.805) rotate(-30)" fill="#ffb8b8"/>
    <path id="Path_3904" data-name="Path 3904" d="M253.5,461.247l-5.295-4.194a3.734,3.734,0,0,1-1.7-5.9l4.807-6.3a2.2,2.2,0,0,1,3.727,2.237l-3.8,6.222,5.59,2.651a1.017,1.017,0,0,1,.424,1.462l-2.256,3.571a1.019,1.019,0,0,1-.689.459l-.017,0A1.021,1.021,0,0,1,253.5,461.247Z" transform="translate(-230.87 -380.587)" fill="#ccc"/>
    <path id="Path_3905" data-name="Path 3905" d="M278.4,378.637a.464.464,0,0,1,.4-.613,1.073,1.073,0,0,1,.756.373,3.01,3.01,0,0,0,.668.574.575.575,0,0,0,.756-.137,1.052,1.052,0,0,0-.04-.817,8.033,8.033,0,0,1-.355-2.126,3.744,3.744,0,0,1,.535-2.273,3.008,3.008,0,0,1,2.577-1.1,17.321,17.321,0,0,1,2.9.513.973.973,0,0,0,.947-.159,1.22,1.22,0,0,0,.049-1.089,7.562,7.562,0,0,0-1.145-2.731,4.112,4.112,0,0,0-2.624-1.477,6.3,6.3,0,0,0-2.929.333,7.853,7.853,0,0,0-3.847,2.68,6.361,6.361,0,0,0-1.214,4.7,5.8,5.8,0,0,0,2.151,3.667Z" transform="translate(-254.426 -320.721)" fill="#3c3c3c"/>
  </g>
</svg>
