<svg xmlns="http://www.w3.org/2000/svg" xmlns:xlink="http://www.w3.org/1999/xlink" width="100" height="20" viewBox="0 0 100 20"><defs><style>.a{fill:red;opacity:0.1;}.b{clip-path:url(#a);}.c{fill:none;stroke:#f0f0f0;stroke-width:3px;}</style><clipPath id="a"><rect class="a" width="100" height="20" transform="translate(1437 281)"/></clipPath></defs><g class="b" transform="translate(-1437 -281)"><line class="c" x1="100" y2="100" transform="translate(1355 266)"/><line class="c" x1="100" y2="100" transform="translate(1365 266)"/><line class="c" x1="100" y2="100" transform="translate(1375 266)"/><line class="c" x1="100" y2="100" transform="translate(1385 266)"/><line class="c" x1="100" y2="100" transform="translate(1395 266)"/><line class="c" x1="100" y2="100" transform="translate(1405 266)"/><line class="c" x1="100" y2="100" transform="translate(1415 266)"/><line class="c" x1="100" y2="100" transform="translate(1425 266)"/><line class="c" x1="100" y2="100" transform="translate(1435 266)"/><line class="c" x1="100" y2="100" transform="translate(1445 266)"/><line class="c" x1="100" y2="100" transform="translate(1455 266)"/><line class="c" x1="100" y2="100" transform="translate(1465 266)"/><line class="c" x1="100" y2="100" transform="translate(1475 266)"/><line class="c" x1="100" y2="100" transform="translate(1485 266)"/><line class="c" x1="100" y2="100" transform="translate(1495 266)"/><line class="c" x1="100" y2="100" transform="translate(1505 266)"/><line class="c" x1="100" y2="100" transform="translate(1515 266)"/><line class="c" x1="100" y2="100" transform="translate(1525 266)"/><line class="c" x1="100" y2="100" transform="translate(1535 266)"/><line class="c" x1="100" y2="100" transform="translate(1545 266)"/><line class="c" x1="100" y2="100" transform="translate(1555 266)"/><line class="c" x1="100" y2="100" transform="translate(1565 266)"/><line class="c" x1="100" y2="100" transform="translate(1575 266)"/><line class="c" x1="100" y2="100" transform="translate(1585 266)"/><line class="c" x1="100" y2="100" transform="translate(1595 266)"/><line class="c" x1="100" y2="100" transform="translate(1605 266)"/><line class="c" x1="100" y2="100" transform="translate(1615 266)"/><line class="c" x1="100" y2="100" transform="translate(1625 266)"/><line class="c" x1="100" y2="100" transform="translate(1635 266)"/><line class="c" x1="100" y2="100" transform="translate(1645 266)"/><line class="c" x1="100" y2="100" transform="translate(1655 266)"/><line class="c" x1="100" y2="100" transform="translate(1665 266)"/><line class="c" x1="100" y2="100" transform="translate(1675 266)"/><line class="c" x1="100" y2="100" transform="translate(1685 266)"/><line class="c" x1="100" y2="100" transform="translate(1695 266)"/><line class="c" x1="100" y2="100" transform="translate(1705 266)"/><line class="c" x1="100" y2="100" transform="translate(1715 266)"/><line class="c" x1="100" y2="100" transform="translate(1725 266)"/><line class="c" x1="100" y2="100" transform="translate(1735 266)"/><line class="c" x1="100" y2="100" transform="translate(1745 266)"/><line class="c" x1="100" y2="100" transform="translate(1755 266)"/><line class="c" x1="100" y2="100" transform="translate(1765 266)"/></g></svg>