<svg xmlns="http://www.w3.org/2000/svg" xmlns:xlink="http://www.w3.org/1999/xlink" width="380" height="203" viewBox="0 0 380 203"><defs><style>.a,.b{fill:red;}.a,.k{opacity:0.2;}.b{opacity:0.001;}.c{fill:#dcdcdc;}.d{fill:#e6e6e6;}.e,.h{fill:#c8c8c8;}.e{opacity:0.8;}.f{fill:#f0f0f0;isolation:isolate;}.g,.l{fill:#fff;}.i{clip-path:url(#a);}.j{fill:#505f79;}.l{stroke:#fff;stroke-width:0.4px;}.m{fill:#feb8b8;}.n{fill:#2f2e41;}.o{fill:#ffb8b8;}.p{fill:#ffb6b6;}.q{fill:#c9d7e4;}</style><clipPath id="a"><rect class="a" width="5.998" height="11.995"/></clipPath></defs><g transform="translate(55.05 34.275)"><rect class="b" width="380" height="203" transform="translate(-55.05 -34.275)"/><g transform="translate(24.113 1.169)"><path class="c" d="M418.353,606.122H272.88c-.209,0-.38-.327-.38-.731s.171-.731.38-.731H418.353c.214,0,.383.327.383.731S418.567,606.122,418.353,606.122Z" transform="translate(-234.479 -484.159)"/><path class="c" d="M493.733,606.122H273.076a.752.752,0,0,1,0-1.462H493.733a.751.751,0,0,1,0,1.462Z" transform="translate(-272.5 -491.472)"/><g transform="translate(34.256 3.373)"><g transform="translate(109.559 32.474)"><path class="d" d="M4.193,15.562A42.6,42.6,0,0,0,1.408,3.471Q.78,1.873.025.345A.252.252,0,0,1,.1.032.191.191,0,0,1,.379.109a42.421,42.421,0,0,1,3.8,11.923q.285,1.753.428,3.53C4.627,15.861,4.217,15.859,4.193,15.562Z" transform="matrix(0.951, 0.309, -0.309, 0.951, 7.657, 4.989)"/><ellipse class="e" cx="2.645" cy="2.645" rx="2.645" ry="2.645" transform="translate(4.715 0)"/><path class="d" d="M3.118,9.276A21.265,21.265,0,0,0,1.047,2.069Q.58,1.116.018.205A.133.133,0,0,1,.076.019.161.161,0,0,1,.282.065,21.89,21.89,0,0,1,3.1,7.172q.212,1.045.319,2.1C3.441,9.454,3.136,9.453,3.118,9.276Z" transform="translate(4.491 11.248) rotate(20)"/><ellipse class="e" cx="2.105" cy="2.105" rx="2.105" ry="2.105" transform="translate(2.166 7.341)"/><path class="d" d="M676.269,349.033a18.089,18.089,0,0,0,3.516-6.086,15.809,15.809,0,0,0,.485-1.82.166.166,0,0,1,.186-.1c.089.009.152.069.143.135a17.184,17.184,0,0,1-2.8,6.391,20.264,20.264,0,0,1-1.272,1.634C676.416,349.319,676.154,349.166,676.269,349.033Z" transform="translate(-669.98 -328.362)"/><ellipse class="e" cx="2.105" cy="2.105" rx="2.105" ry="2.105" transform="translate(8.517 8.453)"/><path class="f" d="M682.809,366.846v-4.135a1.552,1.552,0,0,0-1.551-1.551H671.61a1.553,1.553,0,0,0-1.551,1.551v4.135a1.553,1.553,0,0,0,1.551,1.551h9.649A1.552,1.552,0,0,0,682.809,366.846Z" transform="translate(-670.059 -344.383)"/></g><path class="c" d="M789.277,383.123H641.02c-.287,0-.52-.327-.52-.731s.233-.731.52-.731H789.277c.288,0,.52.327.52.731S789.565,383.123,789.277,383.123Z" transform="translate(-636.19 -359.211)"/><path class="c" d="M798.386,464.123H641.052a.76.76,0,0,1,0-1.462H798.386a.76.76,0,0,1,0,1.462Z" transform="translate(-640.5 -406.171)"/><g transform="translate(44.997 39.548) rotate(90)"><rect class="d" width="16.94" height="20.996" transform="translate(0)"/><rect class="g" width="12.958" height="17.015" transform="translate(2.02 2.02)"/><path class="h" d="M4.412,0A4.407,4.407,0,0,0,1.5,7.716,3.308,3.308,0,0,1,4.412,5.971,1.559,1.559,0,1,1,5.629,3.45,1.558,1.558,0,0,1,4.412,5.971,3.3,3.3,0,0,1,6.047,6.4l0-.009a1.842,1.842,0,0,0,2.7-1.218c.008-.044.014-.088.02-.132,0,0,0-.009,0-.014h0A4.38,4.38,0,0,0,4.412,0Z" transform="translate(4.611 15.139) rotate(-90)"/></g><g transform="translate(99.469 0)"><g transform="translate(11.057 0.185)"><path class="f" d="M792.226,346.305h3.112c.644,0,1.166-.77,1.167-1.718V325.878c0-.948-.523-1.717-1.167-1.718h-3.112c-.644,0-1.166.77-1.167,1.718v18.709C791.06,345.536,791.582,346.3,792.226,346.305Z" transform="translate(-791.059 -324.16)"/><rect class="e" width="5.065" height="1.527" transform="translate(0.19 3.627)"/><rect class="e" width="5.065" height="1.527" transform="translate(0.19 15.464)"/></g><g transform="translate(5.286 22.803) rotate(-164)"><path class="f" d="M4.321,0H1.178C.528,0,0,.77,0,1.718V20.427c0,.948.528,1.717,1.178,1.718H4.321c.651,0,1.178-.77,1.178-1.718V1.718C5.5.77,4.971,0,4.321,0Z" transform="translate(0 0)"/><rect class="e" width="5.117" height="1.527" transform="translate(0.191 16.991)"/><rect class="e" width="5.117" height="1.527" transform="translate(0.191 5.154)"/></g><g transform="translate(17.843 0.184)"><path class="f" d="M792.226,346.305h3.112c.644,0,1.166-.77,1.167-1.718V325.878c0-.948-.523-1.717-1.167-1.718h-3.112c-.644,0-1.166.77-1.167,1.718v18.709C791.06,345.536,791.582,346.3,792.226,346.305Z" transform="translate(-791.059 -324.16)"/><rect class="e" width="5.065" height="1.527" transform="translate(0.19 3.627)"/><rect class="e" width="5.065" height="1.527" transform="translate(0.19 15.464)"/></g><g transform="translate(24.629 0.184)"><path class="f" d="M792.226,346.305h3.112c.644,0,1.166-.77,1.167-1.718V325.878c0-.948-.523-1.717-1.167-1.718h-3.112c-.644,0-1.166.77-1.167,1.718v18.709C791.06,345.536,791.582,346.3,792.226,346.305Z" transform="translate(-791.059 -324.16)"/><rect class="e" width="5.065" height="1.527" transform="translate(0.19 3.627)"/><rect class="e" width="5.065" height="1.527" transform="translate(0.19 15.464)"/></g><g transform="translate(31.415 0.184)"><path class="f" d="M792.226,346.305h3.112c.644,0,1.166-.77,1.167-1.718V325.878c0-.948-.523-1.717-1.167-1.718h-3.112c-.644,0-1.166.77-1.167,1.718v18.709C791.06,345.536,791.582,346.3,792.226,346.305Z" transform="translate(-791.059 -324.16)"/><rect class="e" width="5.065" height="1.527" transform="translate(0.19 3.627)"/><rect class="e" width="5.065" height="1.527" transform="translate(0.19 15.464)"/></g></g></g><g transform="translate(162.715 75.635)"><g transform="translate(0 0)"><g class="i" transform="translate(0 22.592)"><path class="j" d="M992.214,665.745a4.536,4.536,0,1,1-4.536,4.536A4.536,4.536,0,0,1,992.214,665.745Zm0,7.327a2.791,2.791,0,1,0-2.792-2.791A2.791,2.791,0,0,0,992.214,673.071Z" transform="translate(-986.238 -663.861)"/></g><path class="j" d="M832.185,531.776H818.016V545.8a1.846,1.846,0,0,0,1.846,1.846h10.477a1.846,1.846,0,0,0,1.846-1.846Z" transform="translate(-812.04 -510.136)"/><path class="k" d="M980.488,650.776v13.106a2.763,2.763,0,0,0,2.763,2.763h-1.417a2.763,2.763,0,0,1-2.763-2.763V650.776Z" transform="translate(-971.962 -629.135)"/><path class="d" d="M952.227,593.71a.8.8,0,0,1,.483.653,3.237,3.237,0,0,1-.354,1.951,13.142,13.142,0,0,0-1.2,2.971,9.2,9.2,0,0,0-.066,4.118c.425,1.537,1.439,1.867,1.538,3.758a4.91,4.91,0,0,1-.73,2.859c-.985,1.5-2.254,1.9-2.967,4.258a4.2,4.2,0,0,0-1.613-2.951,11.819,11.819,0,0,0-2.008-.64.913.913,0,0,1-.554-.784c-.187-1.008.345-2.218.161-3.23-.14-.771-.55-.711-.849-1.02-.487-.5-.688-2.175-.55-3.519s1.381-2.426,1.792-3.287c1.108-2.32.661-3.5,2.008-4.483a4.7,4.7,0,0,1,2.259-1.135A5.2,5.2,0,0,1,952.227,593.71Z" transform="translate(-935.461 -593.199)"/></g></g><g transform="translate(10.606 68.781)"><path class="c" d="M283.926,509c1.037-8.34,6.206-16.557,14.159-19.271a38.721,38.721,0,0,0,0,26.585c1.222,3.306,2.926,6.856,1.776,10.188a8.656,8.656,0,0,1-4.421,4.651,25.715,25.715,0,0,1-6.271,1.928l-.422.349C285.346,525.748,282.888,517.343,283.926,509Z" transform="translate(-283.686 -489.555)"/><g transform="translate(2.556)"><path class="l" d="M308.882,489.5a33.1,33.1,0,0,0-8.228,18.626,14.253,14.253,0,0,0,.162,4.463,8.174,8.174,0,0,0,2.033,3.792,16.914,16.914,0,0,1,2.626,3.142,5,5,0,0,1,.245,4.086,13,13,0,0,1-2.882,4.3,12.77,12.77,0,0,0-3.2,4.778c-.066.229-.418.113-.352-.116.954-3.29,4.148-5.159,5.671-8.122A5.069,5.069,0,0,0,305.3,520a13.128,13.128,0,0,0-2.605-3.241,8.723,8.723,0,0,1-2.126-3.633,13.177,13.177,0,0,1-.333-4.44,32.111,32.111,0,0,1,2.345-9.758,33.683,33.683,0,0,1,6.057-9.706C308.8,489.046,309.039,489.325,308.882,489.5Z" transform="translate(-296.96 -489.166)"/><path class="l" d="M295.657,530.84a4.966,4.966,0,0,1-3.78-5.2.185.185,0,0,1,.37.019,4.6,4.6,0,0,0,3.526,4.831C296,530.544,295.888,530.895,295.657,530.84Z" transform="translate(-291.863 -514.121)"/><path class="l" d="M308.8,562.393a9.571,9.571,0,0,0,4.274-5.512c.067-.229.419-.112.352.116a9.955,9.955,0,0,1-4.459,5.727C308.757,562.846,308.592,562.515,308.8,562.393Z" transform="translate(-303.439 -535.628)"/><path class="l" d="M315.049,509.783a2.811,2.811,0,0,0,2.664-.135c.2-.124.369.207.166.331a3.15,3.15,0,0,1-2.946.156.192.192,0,0,1-.118-.234A.186.186,0,0,1,315.049,509.783Z" transform="translate(-307.635 -503.226)"/></g><path class="d" d="M333.063,535.433c-.125.081-.25.162-.375.247a37,37,0,0,0-4.733,3.7c-.116.1-.232.209-.344.316a39.024,39.024,0,0,0-8.475,11.6,37.9,37.9,0,0,0-2.076,5.371c-.766,2.542-1.394,5.358-2.91,7.437a6.5,6.5,0,0,1-.506.625h-13.7c-.031-.016-.062-.028-.094-.044l-.547.025c.022-.1.047-.2.069-.294.013-.056.028-.113.041-.169.009-.037.019-.075.025-.109,0-.012.006-.025.009-.034.006-.034.016-.066.022-.1q.206-.839.425-1.679s0,0,0-.006a55.724,55.724,0,0,1,4.689-12.311c.063-.116.125-.234.194-.35a36.162,36.162,0,0,1,3.248-4.927,31.95,31.95,0,0,1,2.129-2.435,26.58,26.58,0,0,1,6.652-4.983,21.109,21.109,0,0,1,15.856-2C332.8,535.348,332.928,535.389,333.063,535.433Z" transform="translate(-294.419 -520.36)"/><g transform="translate(4.945 14.873)"><path class="l" d="M333.172,537.118a33.1,33.1,0,0,0-17.784,9.919,14.252,14.252,0,0,0-2.557,3.661,8.175,8.175,0,0,0-.659,4.251,16.914,16.914,0,0,1,.2,4.09,5.005,5.005,0,0,1-2.265,3.41,13.008,13.008,0,0,1-4.889,1.7,12.77,12.77,0,0,0-5.432,1.888c-.191.143-.4-.162-.211-.3,2.742-2.052,6.418-1.622,9.418-3.071a5.069,5.069,0,0,0,2.951-3.345,13.123,13.123,0,0,0-.129-4.156,8.723,8.723,0,0,1,.49-4.181,13.174,13.174,0,0,1,2.407-3.746,32.112,32.112,0,0,1,7.747-6.379,33.68,33.68,0,0,1,10.68-4.1C333.377,536.7,333.4,537.072,333.172,537.118Z" transform="translate(-299.504 -536.745)"/><path class="l" d="M352.413,549.859a4.965,4.965,0,0,1,.114-6.429c.158-.178.443.059.284.238a4.6,4.6,0,0,0-.094,5.98C352.869,549.832,352.564,550.042,352.413,549.859Z" transform="translate(-335.1 -541.297)"/><path class="l" d="M339.061,588.7a9.571,9.571,0,0,0,6.731-1.828c.191-.142.4.162.211.3a9.955,9.955,0,0,1-7.008,1.888C338.757,589.042,338.825,588.678,339.061,588.7Z" transform="translate(-326.548 -571.179)"/><path class="l" d="M382.969,544.975a2.81,2.81,0,0,0,2.208,1.5c.238.023.17.388-.066.365a3.15,3.15,0,0,1-2.446-1.649.191.191,0,0,1,.047-.258A.186.186,0,0,1,382.969,544.975Z" transform="translate(-356.647 -542.348)"/></g></g><g transform="translate(64.499)"><path class="m" d="M574,653.1s3.505-5.751,8.006-2.351,12.834,9.137,12.834,9.137,1.707,3.67-2.711,2.291-18.841-3.6-18.841-3.6Z" transform="translate(-540.34 -534.661)"/><path class="n" d="M491.868,616.587a34.583,34.583,0,0,1-9.968-1.216c-3.261-1.015-5.308-2.657-6.086-4.884a5.75,5.75,0,0,1,.9-5.7c4.824-6.286,21.563-8.058,23.81-8.268l4.557-8.628c.292-2.059-1.088-3.617,1.3-3.656l28.192-.383c2.341-.049,1.676,1.4,2.077,3.407l4.3,7.668-18.486,7.8,2.8,6.811-.182.106C519.658,612.783,504.1,616.586,491.868,616.587Z" transform="translate(-475.427 -490.996)"/><path class="n" d="M609.339,616.634s25.817-2.954,24.133,8.864-21.327,20.189-51.073,0l3.367-5.909s11.085-.551,17.82-3.506Z" transform="translate(-546.383 -512.377)"/><path class="m" d="M516.674,458.637s-4.907-.892-6.245,6.691-3.482,25.546-3.482,25.546l-6.656,23.074a4.684,4.684,0,1,0,6.672,2.755l8.906-24.49,1.7-21.086V460.08A1.614,1.614,0,0,0,516.674,458.637Z" transform="translate(-490.269 -407.919)"/><path class="m" d="M654.68,458.637s4.907-.892,6.245,6.691,3.482,25.546,3.482,25.546l6.656,23.074a4.684,4.684,0,1,1-6.672,2.755l-8.906-24.49-1.7-21.086V460.08A1.614,1.614,0,0,1,654.68,458.637Z" transform="translate(-593.737 -407.919)"/><path class="m" d="M598.407,643.527s-2.891-6.083-7.719-3.167-13.712,7.759-13.712,7.759-2.078,3.473,2.459,2.56,19.112-1.626,19.112-1.626Z" transform="translate(-542.471 -527.956)"/><path class="n" d="M572.473,309.551c.041-.039.084-.074.124-.115,2.583-2.584,3.107-6.249,1.169-8.186-1.831-1.831-5.2-1.462-7.75.765-2.183-2.078-5.11-2.657-7-1.223-2.185,1.654-2.168,5.357.038,8.269.151.2.31.388.472.569a15.254,15.254,0,0,0-10.011,14.325l2.715,24.019a3.242,3.242,0,0,0,3.242,3.242h21.4A3.133,3.133,0,0,0,580,348.082l2.714-24.127a15.251,15.251,0,0,0-10.244-14.4Z" transform="translate(-524.569 -300)"/><path class="o" d="M451.863,258.553h8.281a1.7,1.7,0,0,1,1.666,1.739s-1.435,3.256-.432,5.133,4.269,1.488,4.141,2.29c-.4,2.779-5.233,8.111-9.792,7.978s-10.829-8.052-8.447-8.509,2.709-.966,2.918-1.624a43.832,43.832,0,0,0,0-5.266A1.7,1.7,0,0,1,451.863,258.553Z" transform="translate(-413.777 -225.076)"/><circle class="p" cx="12.733" cy="12.733" r="12.733" transform="translate(23.965 27.533) rotate(-45)"/><path class="n" d="M560.348,344.557a17.317,17.317,0,0,0,9.9,3.059,10.614,10.614,0,0,1-4.206,1.73,34.919,34.919,0,0,0,14.264.08,9.234,9.234,0,0,0,2.986-1.026,3.778,3.778,0,0,0,1.843-2.465c.313-1.788-1.08-3.412-2.528-4.507a18.646,18.646,0,0,0-15.669-3.131,8.581,8.581,0,0,0-4.641,2.622,4.227,4.227,0,0,0-.39,5.02Z" transform="translate(-531.756 -325.033)"/><path class="q" d="M586.342,432.549l-10.492-2.8s-5.275,7.094-8.151,7.092-7.4-7.092-7.4-7.092l-8.972,2.8,2.175,12.5s-4.391,7.436.444,14.872l1.085,26.5s17.345,10.058,31.985-2.02l-3.309-24.637s5.535-11.431,1.245-15.677Z" transform="translate(-525.773 -388.1)"/><path class="q" d="M644.1,443.967l3.78-3.884s8.25,4.34,8.081,18.854l-10.408-3.207Z" transform="translate(-587.309 -395.633)"/><path class="q" d="M542.254,443.707l-4.016-4.016s-7.087,5.482-6.917,20l9.48-4.217Z" transform="translate(-512.5 -395.373)"/></g></g></g></svg>