<svg xmlns="http://www.w3.org/2000/svg" xmlns:xlink="http://www.w3.org/1999/xlink" width="163.428" height="94.184" viewBox="0 0 163.428 94.184"><defs><style>.a{fill:red;}.a,.j{opacity:0.2;}.b{fill:#dcdcdc;}.c{fill:#e6e6e6;}.d,.g{fill:#c8c8c8;}.d{opacity:0.8;}.e{fill:#f0f0f0;isolation:isolate;}.f,.k{fill:#fff;}.h{clip-path:url(#a);}.i{fill:#505f79;}.k{stroke:#fff;stroke-width:0.4px;}.l{fill:#feb8b8;}.m{fill:#2f2e41;}.n{fill:#ffb8b8;}.o{fill:#ffb6b6;}.p{fill:#c9d7e4;}</style><clipPath id="a"><rect class="a" width="4.419" height="8.838"/></clipPath></defs><g transform="translate(-3.287 8.161)"><path class="b" d="M379.962,605.738H272.78c-.154,0-.28-.241-.28-.539s.126-.539.28-.539H379.962c.158,0,.282.241.282.539S380.12,605.738,379.962,605.738Z" transform="translate(-241.2 -524.038)"/><path class="b" d="M435.5,605.738H272.924a.554.554,0,0,1,0-1.077H435.5a.553.553,0,0,1,0,1.077Z" transform="translate(-269.213 -529.425)"/><g transform="translate(28.526 -5.909)"><g transform="translate(80.721 24.16)"><path class="c" d="M3.089,11.466A31.389,31.389,0,0,0,1.038,2.558Q.574,1.38.018.254A.185.185,0,0,1,.075.024a.141.141,0,0,1,.2.057,31.255,31.255,0,0,1,2.8,8.785q.21,1.291.316,2.6C3.409,11.686,3.107,11.685,3.089,11.466Z" transform="matrix(0.951, 0.309, -0.309, 0.951, 5.642, 3.676)"/><ellipse class="d" cx="1.948" cy="1.949" rx="1.948" ry="1.949" transform="translate(3.474 0)"/><path class="c" d="M2.3,6.834A15.668,15.668,0,0,0,.772,1.524Q.427.822.014.151A.1.1,0,0,1,.056.014.119.119,0,0,1,.207.048a16.128,16.128,0,0,1,2.08,5.236q.156.77.235,1.55C2.535,6.966,2.311,6.965,2.3,6.834Z" transform="translate(3.309 8.288) rotate(20)"/><ellipse class="d" cx="1.551" cy="1.551" rx="1.551" ry="1.551" transform="translate(1.596 5.409)"/><path class="c" d="M676.261,346.925a13.328,13.328,0,0,0,2.59-4.484,11.652,11.652,0,0,0,.357-1.341.122.122,0,0,1,.137-.075c.066.007.112.051.106.1a12.66,12.66,0,0,1-2.06,4.709,14.927,14.927,0,0,1-.937,1.2C676.369,347.136,676.177,347.023,676.261,346.925Z" transform="translate(-671.628 -331.695)"/><ellipse class="d" cx="1.551" cy="1.551" rx="1.551" ry="1.551" transform="translate(6.275 6.228)"/><path class="e" d="M679.453,365.349V362.3a1.144,1.144,0,0,0-1.143-1.143H671.2a1.144,1.144,0,0,0-1.143,1.142v3.047a1.144,1.144,0,0,0,1.143,1.143h7.109A1.144,1.144,0,0,0,679.453,365.349Z" transform="translate(-670.059 -348.799)"/></g><path class="b" d="M750.117,382.738H640.883c-.212,0-.383-.241-.383-.539s.172-.539.383-.539H750.117c.212,0,.383.241.383.539S750.329,382.738,750.117,382.738Z" transform="translate(-637.324 -364.886)"/><path class="b" d="M756.828,463.738H640.907a.56.56,0,0,1,0-1.077H756.828a.56.56,0,0,1,0,1.077Z" transform="translate(-640.5 -420.806)"/><g transform="translate(33.153 29.372) rotate(90)"><rect class="c" width="12.481" height="15.47" transform="translate(0)"/><rect class="f" width="9.547" height="12.536" transform="translate(1.489 1.488)"/><path class="g" d="M3.25,0A3.247,3.247,0,0,0,1.1,5.685,2.437,2.437,0,0,1,3.25,4.4a1.149,1.149,0,1,1,.9-1.858A1.148,1.148,0,0,1,3.25,4.4a2.427,2.427,0,0,1,1.2.32l0-.007a1.357,1.357,0,0,0,1.99-.9c.006-.032.01-.065.015-.1,0,0,0-.007,0-.01h0A3.227,3.227,0,0,0,3.25,0Z" transform="translate(3.397 11.154) rotate(-90)"/></g><g transform="translate(69.503 -0.278)"><g transform="translate(11.931 0.648)"><path class="e" d="M791.919,340.476h2.293c.475,0,.859-.567.86-1.266V325.426c0-.7-.385-1.265-.86-1.266h-2.293c-.475,0-.859.567-.86,1.266v13.784C791.06,339.909,791.444,340.476,791.919,340.476Z" transform="translate(-791.059 -324.16)"/><rect class="d" width="3.732" height="1.125" transform="translate(0.14 2.672)"/><rect class="d" width="3.732" height="1.125" transform="translate(0.14 11.393)"/></g><g transform="translate(7.679 17.313) rotate(-164)"><path class="e" d="M3.183,0H.868C.389,0,0,.567,0,1.266V15.05c0,.7.389,1.265.868,1.266H3.183c.479,0,.868-.567.868-1.266V1.266C4.051.567,3.663,0,3.183,0Z" transform="translate(0)"/><rect class="d" width="3.77" height="1.125" transform="translate(0.141 12.519)"/><rect class="d" width="3.77" height="1.125" transform="translate(0.141 3.798)"/></g><g transform="translate(16.931 0.647)"><path class="e" d="M791.919,340.476h2.293c.475,0,.859-.567.86-1.266V325.426c0-.7-.385-1.265-.86-1.266h-2.293c-.475,0-.859.567-.86,1.266v13.784C791.06,339.909,791.444,340.476,791.919,340.476Z" transform="translate(-791.059 -324.16)"/><rect class="d" width="3.732" height="1.125" transform="translate(0.14 2.672)"/><rect class="d" width="3.732" height="1.125" transform="translate(0.14 11.393)"/></g><g transform="translate(21.931 0.647)"><path class="e" d="M791.919,340.476h2.293c.475,0,.859-.567.86-1.266V325.426c0-.7-.385-1.265-.86-1.266h-2.293c-.475,0-.859.567-.86,1.266v13.784C791.06,339.909,791.444,340.476,791.919,340.476Z" transform="translate(-791.059 -324.16)"/><rect class="d" width="3.732" height="1.125" transform="translate(0.14 2.672)"/><rect class="d" width="3.732" height="1.125" transform="translate(0.14 11.393)"/></g><g transform="translate(26.931 0.647)"><path class="e" d="M791.919,340.476h2.293c.475,0,.859-.567.86-1.266V325.426c0-.7-.385-1.265-.86-1.266h-2.293c-.475,0-.859.567-.86,1.266v13.784C791.06,339.909,791.444,340.476,791.919,340.476Z" transform="translate(-791.059 -324.16)"/><rect class="d" width="3.732" height="1.125" transform="translate(0.14 2.672)"/><rect class="d" width="3.732" height="1.125" transform="translate(0.14 11.393)"/></g></g></g><g transform="translate(123.173 47.566)"><g transform="translate(0 0)"><g class="h" transform="translate(0 16.645)"><path class="i" d="M991.02,665.745a3.342,3.342,0,1,1-3.342,3.342A3.342,3.342,0,0,1,991.02,665.745Zm0,5.4a2.056,2.056,0,1,0-2.057-2.056A2.056,2.056,0,0,0,991.02,671.143Z" transform="translate(-986.617 -664.357)"/></g><path class="i" d="M828.455,531.776H818.016v10.332a1.36,1.36,0,0,0,1.36,1.36h7.72a1.36,1.36,0,0,0,1.36-1.36Z" transform="translate(-813.613 -515.832)"/><path class="j" d="M980.115,650.776v9.657a2.036,2.036,0,0,0,2.036,2.036h-1.044a2.036,2.036,0,0,1-2.036-2.036v-9.657Z" transform="translate(-973.833 -634.831)"/><path class="c" d="M949.924,593.575a.586.586,0,0,1,.356.481,2.386,2.386,0,0,1-.26,1.437,9.676,9.676,0,0,0-.882,2.189,6.776,6.776,0,0,0-.049,3.034c.313,1.132,1.06,1.376,1.133,2.768a3.617,3.617,0,0,1-.538,2.107c-.725,1.108-1.661,1.4-2.186,3.137a3.091,3.091,0,0,0-1.188-2.175,8.709,8.709,0,0,0-1.479-.471.673.673,0,0,1-.408-.578c-.138-.743.254-1.634.119-2.38-.1-.568-.405-.524-.625-.751a4.174,4.174,0,0,1-.405-2.593c.1-.99,1.017-1.788,1.32-2.422.816-1.709.487-2.58,1.479-3.3a3.462,3.462,0,0,1,1.664-.837A3.83,3.83,0,0,1,949.924,593.575Z" transform="translate(-937.571 -593.199)"/></g></g><g transform="translate(-81.584 -305.733)"><path class="b" d="M283.862,503.931c.764-6.145,4.572-12.2,10.432-14.2a28.529,28.529,0,0,0,0,19.587c.9,2.436,2.156,5.051,1.309,7.506a6.378,6.378,0,0,1-3.257,3.427,18.943,18.943,0,0,1-4.62,1.42l-.311.257C284.909,516.268,283.1,510.076,283.862,503.931Z" transform="translate(-191 -141.353)"/><g transform="translate(94.569 348.249)"><path class="k" d="M306.354,489.413a24.385,24.385,0,0,0-6.062,13.724,10.5,10.5,0,0,0,.119,3.288,6.023,6.023,0,0,0,1.5,2.793,12.464,12.464,0,0,1,1.935,2.315,3.688,3.688,0,0,1,.18,3.01,9.581,9.581,0,0,1-2.123,3.167,9.408,9.408,0,0,0-2.358,3.521c-.049.169-.308.083-.259-.086.7-2.424,3.056-3.8,4.178-5.984a3.735,3.735,0,0,0,.253-3.277,9.671,9.671,0,0,0-1.919-2.388,6.427,6.427,0,0,1-1.566-2.677,9.709,9.709,0,0,1-.245-3.271,23.659,23.659,0,0,1,1.728-7.189,24.818,24.818,0,0,1,4.462-7.151C306.29,489.078,306.47,489.283,306.354,489.413Z" transform="translate(-297.57 -489.166)"/><path class="k" d="M294.658,529.426a3.659,3.659,0,0,1-2.785-3.832.137.137,0,0,1,.273.014,3.388,3.388,0,0,0,2.6,3.56C294.915,529.208,294.828,529.467,294.658,529.426Z" transform="translate(-291.863 -517.108)"/><path class="k" d="M308.772,560.91a7.051,7.051,0,0,0,3.149-4.061c.049-.169.309-.083.259.086a7.334,7.334,0,0,1-3.285,4.219C308.743,561.244,308.621,561,308.772,560.91Z" transform="translate(-304.824 -541.19)"/><path class="k" d="M314.986,509.74a2.071,2.071,0,0,0,1.963-.1c.15-.092.272.153.123.244A2.321,2.321,0,0,1,314.9,510a.141.141,0,0,1-.087-.172A.137.137,0,0,1,314.986,509.74Z" transform="translate(-309.523 -504.909)"/></g><path class="c" d="M324.176,535.2c-.092.06-.184.12-.276.182a27.269,27.269,0,0,0-3.487,2.722c-.085.076-.171.154-.253.233a28.752,28.752,0,0,0-6.244,8.547,27.922,27.922,0,0,0-1.529,3.957c-.564,1.873-1.027,3.948-2.144,5.48a4.79,4.79,0,0,1-.373.461h-10.1l-.069-.032-.4.018c.016-.071.035-.145.051-.216.009-.042.021-.083.03-.124s.014-.055.018-.081c0-.009,0-.018.007-.025,0-.025.012-.048.016-.071q.152-.618.313-1.237s0,0,0,0a41.057,41.057,0,0,1,3.455-9.07c.046-.085.092-.173.143-.258a26.641,26.641,0,0,1,2.393-3.63,23.552,23.552,0,0,1,1.569-1.794,19.584,19.584,0,0,1,4.9-3.671,15.553,15.553,0,0,1,11.682-1.476C323.98,535.137,324.077,535.167,324.176,535.2Z" transform="translate(-203.019 -175.845)"/><g transform="translate(96.329 359.207)"><path class="k" d="M324.31,537.02a24.385,24.385,0,0,0-13.1,7.308,10.5,10.5,0,0,0-1.884,2.7,6.023,6.023,0,0,0-.486,3.132,12.463,12.463,0,0,1,.151,3.014,3.688,3.688,0,0,1-1.669,2.512,9.583,9.583,0,0,1-3.6,1.25,9.408,9.408,0,0,0-4,1.391c-.141.105-.3-.119-.155-.224,2.021-1.512,4.728-1.195,6.939-2.262a3.735,3.735,0,0,0,2.174-2.464,9.67,9.67,0,0,0-.095-3.062,6.427,6.427,0,0,1,.361-3.08,9.706,9.706,0,0,1,1.774-2.76,23.659,23.659,0,0,1,5.708-4.7,24.815,24.815,0,0,1,7.869-3.023C324.461,536.714,324.481,536.986,324.31,537.02Z" transform="translate(-299.504 -536.745)"/><path class="k" d="M352.117,548.15a3.658,3.658,0,0,1,.084-4.737c.116-.131.326.043.209.175a3.388,3.388,0,0,0-.069,4.406C352.453,548.13,352.228,548.285,352.117,548.15Z" transform="translate(-339.361 -541.842)"/><path class="k" d="M339,588.214a7.052,7.052,0,0,0,4.959-1.347c.141-.1.3.12.155.224a7.335,7.335,0,0,1-5.163,1.391C338.781,588.463,338.83,588.194,339,588.214Z" transform="translate(-329.785 -575.301)"/><path class="k" d="M382.881,544.954a2.07,2.07,0,0,0,1.627,1.1c.175.017.125.286-.049.269a2.321,2.321,0,0,1-1.8-1.215.141.141,0,0,1,.034-.19A.137.137,0,0,1,382.881,544.954Z" transform="translate(-363.487 -543.018)"/></g></g><g transform="translate(-233.618 -169.243)"><path class="l" d="M573.813,652.2s2.583-4.237,5.9-1.732,9.456,6.732,9.456,6.732,1.258,2.7-2,1.688-13.882-2.65-13.882-2.65Z" transform="translate(-264.586 -403.853)"/><path class="m" d="M487.541,607.97a25.482,25.482,0,0,1-7.344-.9c-2.4-.748-3.911-1.958-4.484-3.6a4.237,4.237,0,0,1,.664-4.2c3.554-4.631,15.888-5.937,17.542-6.092l3.357-6.357c.215-1.517-.8-2.665.954-2.694L519,583.851c1.724-.036,1.235,1.032,1.53,2.511l3.165,5.649-13.62,5.748,2.059,5.018-.134.078C508.016,605.167,496.552,607.969,487.541,607.97Z" transform="translate(-191 -354.354)"/><path class="m" d="M602.248,616.489s19.022-2.177,17.781,6.53-15.714,14.875-37.63,0l2.481-4.354s8.167-.406,13.129-2.583Z" transform="translate(-271.436 -378.591)"/><path class="l" d="M511.707,458.628s-3.615-.657-4.6,4.93-2.565,18.822-2.565,18.822l-4.9,17a3.451,3.451,0,1,0,4.916,2.03l6.562-18.044,1.251-15.536v-8.14a1.189,1.189,0,0,0-.657-1.064Z" transform="translate(-207.825 -260.178)"/><path class="l" d="M654.445,458.628s3.615-.657,4.6,4.93,2.565,18.822,2.565,18.822l4.9,17a3.451,3.451,0,1,1-4.916,2.03l-6.562-18.044-1.251-15.536v-8.14A1.189,1.189,0,0,1,654.445,458.628Z" transform="translate(-325.116 -260.178)"/><path class="l" d="M592.641,642.485s-2.13-4.482-5.687-2.333-10.1,5.717-10.1,5.717-1.531,2.559,1.812,1.886,14.081-1.2,14.081-1.2Z" transform="translate(-267.001 -396.251)"/><path class="m" d="M566.429,307.037c.03-.029.062-.055.091-.085,1.9-1.9,2.289-4.6.862-6.031-1.349-1.349-3.834-1.077-5.71.563-1.608-1.531-3.765-1.958-5.161-.9-1.61,1.219-1.6,3.947.028,6.093.111.147.228.286.348.42a11.239,11.239,0,0,0-7.376,10.554l2,17.7a2.388,2.388,0,0,0,2.388,2.388h15.77a2.308,2.308,0,0,0,2.308-2.308l2-17.777a11.236,11.236,0,0,0-7.548-10.612Z" transform="translate(-246.707 -138.917)"/><path class="n" d="M450.519,258.553h6.1a1.255,1.255,0,0,1,1.227,1.281s-1.058,2.4-.318,3.782,3.146,1.1,3.051,1.687c-.295,2.048-3.855,5.976-7.215,5.878s-7.979-5.933-6.224-6.27,2-.711,2.15-1.2a32.3,32.3,0,0,0,0-3.88A1.255,1.255,0,0,1,450.519,258.553Z" transform="translate(-138.031 -72.805)"/><circle class="o" cx="9.381" cy="9.381" r="9.381" transform="translate(302.084 181.369) rotate(-45)"/><path class="m" d="M560.348,342.763a12.759,12.759,0,0,0,7.292,2.253,7.82,7.82,0,0,1-3.1,1.275,25.728,25.728,0,0,0,10.509.059,6.8,6.8,0,0,0,2.2-.756,2.784,2.784,0,0,0,1.358-1.816c.231-1.317-.8-2.514-1.862-3.32a13.738,13.738,0,0,0-11.544-2.307,6.322,6.322,0,0,0-3.419,1.932,3.115,3.115,0,0,0-.288,3.7Z" transform="translate(-254.855 -167.295)"/><path class="p" d="M577.126,431.811l-7.731-2.064s-3.887,5.227-6.006,5.226-5.452-5.226-5.452-5.226l-6.61,2.064,1.6,9.21s-3.235,5.478.327,10.958l.8,19.523s12.779,7.41,23.566-1.488l-2.438-18.152s4.078-8.422.917-11.551Z" transform="translate(-248.072 -237.979)"/><path class="p" d="M644.1,442.945l2.785-2.862s6.079,3.2,5.954,13.892l-7.668-2.363Z" transform="translate(-317.83 -246.25)"/><path class="p" d="M539.376,442.65l-2.959-2.959s-5.222,4.039-5.1,14.733l6.985-3.107Z" transform="translate(-233.026 -245.956)"/></g></g></svg>