<svg xmlns="http://www.w3.org/2000/svg" width="66.627" height="147.156" viewBox="0 0 66.627 147.156">
  <g id="drawing" transform="translate(-180.951 12.275)">
    <g id="undraw_yoga_248n" transform="translate(134.34 -28.508)">
      <ellipse id="Ellipse_1772" data-name="Ellipse 1772" cx="30" cy="5" rx="30" ry="5" transform="translate(53.238 153.389)" fill="#f0f0f0"/>
      <path id="Path_4504" data-name="Path 4504" d="M560.12,187.839s-4-1.428-6.571,4.285a112.665,112.665,0,0,1-6.571,12l2.285.571s.571-4,2-4.571l-.571,5.142s17.141,6,24.855-.571l-.286-2s1.143.286,1.143,2l.857-.857a15.353,15.353,0,0,0-3.428-4c-1.688-1.5-2.268-4.354-2.467-6.138a7.428,7.428,0,0,0-1.71-4.045C567.947,187.674,564.834,185.57,560.12,187.839Z" transform="translate(-478.359 -156.188)" fill="#3c3c3c"/>
      <path id="Path_4505" data-name="Path 4505" d="M541.185,157.436l-4.142-5.178-3.107-10.615,11.91-12.686s2.589-9.838.259-9.321-2.848,7.767-2.848,7.767L528.24,139.053s1.553,16.311,5.955,22.007l3.366,10.615Z" transform="translate(-463.643 -103.383)" fill="#ffb9b9"/>
      <path id="Path_4506" data-name="Path 4506" d="M620.055,157.436l4.143-5.178,3.107-10.615-11.91-12.686s-2.589-9.838-.259-9.321,2.848,7.767,2.848,7.767L633,139.053s-1.553,16.311-5.955,22.007l-3.366,10.615Z" transform="translate(-531.121 -103.383)" fill="#ffb9b9"/>
      <circle id="Ellipse_1773" data-name="Ellipse 1773" cx="6.732" cy="6.732" r="6.732" transform="translate(76.507 36.188)" fill="#ffb9b9"/>
      <path id="Path_4507" data-name="Path 4507" d="M591.161,260.815s.259,5.437-1.294,7.249-3.107,11.133,4.4,11.392S601,271.689,601,271.689l-1.553-4.4s-2.33-3.366-1.553-6.473Z" transform="translate(-511.03 -214.271)" fill="#ffb9b9"/>
      <path id="Path_4508" data-name="Path 4508" d="M565.2,541.824l5.567,1.683s4.531-2.719,4.531-.13-1.554,5.955-1.036,8.285,1.553,8.026,0,8.026-4.66-10.1-4.66-10.1l-5.178-2.848Z" transform="translate(-492.057 -434.955)" fill="#ffb9b9"/>
      <path id="Path_4509" data-name="Path 4509" d="M590.079,710.671l-2.071,8.026s-1.812,2.33,0,3.366a5.259,5.259,0,0,1,1.894,2.409,4.428,4.428,0,0,0,4.348,2.63,1.748,1.748,0,0,0,1.809-1.331,2.083,2.083,0,0,0-.4-1.632,13.988,13.988,0,0,1-2.343-4.278l.777-9.062Z" transform="translate(-509.948 -567.554)" fill="#ffb9b9"/>
      <path id="Path_4510" data-name="Path 4510" d="M576.2,215.011s2.285-3.143,4.285-3.714,2.285-3.428,2.285-3.428,5.142,5.714,8.285,6,.286-6.856.286-6.856l-5.714-1.428-5.428.571-4.285,2.857Z" transform="translate(-501.086 -170.896)" fill="#3c3c3c"/>
      <path id="Path_4511" data-name="Path 4511" d="M468.657,440.086l-1.036,2.071s-25.114,8.026-23.043,15.534,13.722,5.437,13.722,5.437l12.945,2.33,1.295-5.7-9.062-2.33,15.534-5.7.518,26.408-2.071,18.9,5.178.518s5.7-17.347,4.919-24.6c0,0,9.58-29.515,4.142-33.917S468.657,440.086,468.657,440.086Z" transform="translate(-397.846 -352.893)" fill="#3c3c3c"/>
      <path id="Path_4512" data-name="Path 4512" d="M566.128,292.438l-4.04-4.882-2.736,1.254-2.848,9.062a9.622,9.622,0,0,0,.518,9.062s.518,3.107-.259,3.884-1.036,5.7-1.036,5.7l-3.366,6.473s19.159,3.366,24.855-1.295c0,0-2.989-11.019-1.177-14.385s2.071-8.526,0-10.856-4.26-8.417-4.26-8.417l-1.254-.8Z" transform="translate(-482.586 -235.016)" fill="#c9d7e4"/>
    </g>
  </g>
</svg>
