<svg xmlns="http://www.w3.org/2000/svg" width="22" height="22" viewBox="0 0 22 22">
  <g id="DEI" transform="translate(-339 -115.521)">
    <g id="frame" transform="translate(340 116.521)" fill="none" stroke="#fff" stroke-width="1" opacity="0">
      <rect width="20" height="20" stroke="none"/>
      <rect x="-0.5" y="-0.5" width="21" height="21" fill="none"/>
    </g>
    <g id="DEI-2" data-name="DEI" transform="translate(341 117.521)">
      <path id="Path_3921" data-name="Path 3921" d="M37.908,33a4.908,4.908,0,1,0,4.908,4.908A4.908,4.908,0,0,0,37.908,33Zm0,8.084a3.176,3.176,0,1,1,3.176-3.176A3.176,3.176,0,0,1,37.908,41.084Z" transform="translate(-28.958 -28.958)" fill="#222"/>
      <path id="Path_3922" data-name="Path 3922" d="M50,20.732a7.218,7.218,0,0,1,3.609.967l.866-1.5A8.951,8.951,0,0,0,50,19Z" transform="translate(-41.049 -19)" fill="#222"/>
      <path id="Path_3923" data-name="Path 3923" d="M71.65,35.363a7.218,7.218,0,0,1,.967,3.609H74.35a8.952,8.952,0,0,0-1.2-4.477Z" transform="translate(-56.448 -30.021)" fill="#222"/>
      <path id="Path_3924" data-name="Path 3924" d="M62.5,65.142l.866,1.5a8.951,8.951,0,0,0,3.277-3.277l-1.5-.866A7.218,7.218,0,0,1,62.5,65.142Z" transform="translate(-49.94 -49.94)" fill="#222"/>
      <path id="Path_3925" data-name="Path 3925" d="M34.5,73.152a8.951,8.951,0,0,0,4.475,1.2V72.618a7.218,7.218,0,0,1-3.609-.967Z" transform="translate(-30.025 -56.449)" fill="#222"/>
      <path id="Path_3926" data-name="Path 3926" d="M19,50a8.952,8.952,0,0,0,1.2,4.477l1.5-.868A7.218,7.218,0,0,1,20.732,50Z" transform="translate(-19 -41.049)" fill="#222"/>
      <path id="Path_3927" data-name="Path 3927" d="M26.427,23.15a8.951,8.951,0,0,0-3.277,3.277l1.5.866a7.218,7.218,0,0,1,2.642-2.642Z" transform="translate(-21.952 -21.952)" fill="#222"/>
    </g>
  </g>
</svg>
