<svg xmlns="http://www.w3.org/2000/svg" width="22" height="22" viewBox="0 0 22 22">
  <g id="Leadership" transform="translate(-338.619 -116)">
    <g id="frame" transform="translate(339.619 117)" fill="none" stroke="#fff" stroke-width="1" opacity="0">
      <rect width="20" height="20" stroke="none"/>
      <rect x="-0.5" y="-0.5" width="21" height="21" fill="none"/>
    </g>
    <g id="goal" transform="translate(344.087 117.818)">
      <path id="Path_1257" data-name="Path 1257" d="M242.374,18.441V15.235c1.521-.628,2.787-.241,4.361.241a12.961,12.961,0,0,0,3.937.742,8.944,8.944,0,0,0,1.626-.15.687.687,0,0,0,.4-1.117l-2.434-2.9,2.44-3a.687.687,0,0,0-.657-1.11,9.681,9.681,0,0,1-4.911-.555,7.73,7.73,0,0,0-4.764-.385v-.15a.687.687,0,1,0-1.374,0V18.441Zm0-9.976c1.521-.628,2.787-.241,4.361.241a13.075,13.075,0,0,0,3.879.742l-1.773,2.176a.687.687,0,0,0,.006.876l1.966,2.342a11.425,11.425,0,0,1-3.677-.68,7.73,7.73,0,0,0-4.764-.385Zm-.687,15.689a.687.687,0,0,0,.687-.687v-5.4H241v5.4A.687.687,0,0,0,241.687,24.154Z" transform="translate(-241 -6.17)" fill="#222"/>
    </g>
  </g>
</svg>
