<svg xmlns="http://www.w3.org/2000/svg" width="22" height="22" viewBox="0 0 22 22">
  <g id="Retention" transform="translate(-339.388 -116)">
    <g id="frame" transform="translate(340.388 117)" fill="none" stroke="#fff" stroke-width="1" opacity="0">
      <rect width="20" height="20" stroke="none"/>
      <rect x="-0.5" y="-0.5" width="21" height="21" fill="none"/>
    </g>
    <g id="Retention-2" data-name="Retention" transform="translate(341.698 117.85)">
      <path id="Path_1058" data-name="Path 1058" d="M15.228,48.179a.57.57,0,0,0-.806,0c-3.141,3.136-1.675,1.673-4.8,4.787a2.894,2.894,0,0,1-4.1-4.087l4.8-4.787a.571.571,0,0,0,0-.808L7.836,40.8a.572.572,0,0,0-.806,0C3.9,43.926,5.367,42.46,2.216,45.6A7.551,7.551,0,0,0,12.9,56.274c2.949-2.942,1.853-1.848,4.813-4.8a.571.571,0,0,0,0-.808Zm1.278,2.888L14.9,52.672l-1.68-1.679,1.607-1.6ZM9.114,43.687l-1.6,1.6-1.68-1.68,1.6-1.6ZM12.1,55.467A6.411,6.411,0,0,1,3.022,46.41l2-2,1.68,1.68L4.721,48.071a4.035,4.035,0,0,0,5.709,5.7l1.98-1.975,1.68,1.68Z" transform="translate(-0.001 -40.633)" fill="#222"/>
    </g>
  </g>
</svg>
