<svg xmlns="http://www.w3.org/2000/svg" width="22" height="22" viewBox="0 0 22 22">
  <g id="Wellbeing" transform="translate(-338.548 -116)">
    <g id="frame" transform="translate(339.548 117)" fill="none" stroke="#fff" stroke-width="1" opacity="0">
      <rect width="20" height="20" stroke="none"/>
      <rect x="-0.5" y="-0.5" width="21" height="21" fill="none"/>
    </g>
    <g id="calm" transform="translate(340.549 120)">
      <path id="Shape" d="M34.569,9.185a.429.429,0,0,0-.5-.322A10.52,10.52,0,0,0,30.4,10.514,11.126,11.126,0,0,0,28.26,7.128.429.429,0,0,0,27.954,7a.386.386,0,0,0-.308.131,11.168,11.168,0,0,0-2.117,3.406,10.5,10.5,0,0,0-3.695-1.671.429.429,0,0,0-.5.321,10.586,10.586,0,0,0-.163,3.145,9.994,9.994,0,0,0-1.854-.006.429.429,0,0,0-.378.461c.013.153.34,3.775,2.829,5.819a8.691,8.691,0,0,0,5.394,1.682c.3,0,.534-.012.686-.024a.425.425,0,0,0,.107.021.414.414,0,0,0,.117-.024c.138.009.352.021.639.021a8.792,8.792,0,0,0,5.426-1.676c2.487-2.046,2.816-5.668,2.83-5.822a.429.429,0,0,0-.378-.461,9.846,9.846,0,0,0-1.852.009A10.578,10.578,0,0,0,34.569,9.185Zm-.715,3.268a7.5,7.5,0,0,0-3.523,1.509c-.073.058-.14.116-.208.179l-.009.009-.005.006-.018.018a7.382,7.382,0,0,0-1.7,2.4c0-.149,0-.3-.011-.459a6.668,6.668,0,0,1,.961-3.3,5.786,5.786,0,0,1,1.137-1.28,9.419,9.419,0,0,1,3.336-1.725,10.026,10.026,0,0,1,.04,2.64Zm-5.9-4.374A10.41,10.41,0,0,1,29.7,11.088a6.15,6.15,0,0,0-1.752,2.679,6.205,6.205,0,0,0-1.717-2.648A10.445,10.445,0,0,1,27.957,8.079ZM22.088,9.814a9.386,9.386,0,0,1,3.366,1.752,5.7,5.7,0,0,1,1.1,1.254,6.688,6.688,0,0,1,.964,3.291c-.007.156-.011.307-.012.453a7.448,7.448,0,0,0-1.675-2.357.4.4,0,0,0-.069-.063c-.064-.057-.124-.118-.192-.171a7.607,7.607,0,0,0-3.529-1.523A10.067,10.067,0,0,1,22.088,9.814Zm.222,8.128a8.145,8.145,0,0,1-2.46-4.792,8.125,8.125,0,0,1,5.179,1.48,8.127,8.127,0,0,1,2.46,4.792A8.118,8.118,0,0,1,22.31,17.943ZM36.048,13.15a8.129,8.129,0,0,1-2.46,4.794,8.078,8.078,0,0,1-5.179,1.478c.029-.182.072-.408.133-.666a.156.156,0,0,1,.006-.027A7.733,7.733,0,0,1,30.7,14.781a.49.49,0,0,0,.039-.04l.132-.111a7.029,7.029,0,0,1,3.424-1.381A10.035,10.035,0,0,1,36.048,13.15Z" transform="translate(-18.935 -6.999)" fill="#222"/>
    </g>
  </g>
</svg>
