<svg xmlns="http://www.w3.org/2000/svg" width="60" height="45" viewBox="0 0 60 45">
  <g id="broken" transform="translate(-930 -456)">
    <path id="Icon_material-cloud-off" data-name="Icon material-cloud-off" d="M48.375,21.1a18.707,18.707,0,0,0-28.4-12.175l3.65,3.65A13.738,13.738,0,0,1,43.75,24.75V26H47.5a7.481,7.481,0,0,1,3.6,14.05l3.625,3.625A12.435,12.435,0,0,0,48.375,21.1ZM7.5,9.175l6.875,6.85A14.994,14.994,0,0,0,15,46H44.325l5,5L52.5,47.825,10.675,6ZM19.325,21l20,20H15a10,10,0,0,1,0-20Z" transform="translate(930 450)" fill="#fff"/>
  </g>
</svg>
