<svg xmlns="http://www.w3.org/2000/svg" width="50" height="50" viewBox="0 0 50 50">
  <g id="avatar" transform="translate(-1508.5 -355)">
    <g id="Ellipse_1648" data-name="Ellipse 1648" transform="translate(1513.5 360)" fill="#fff" stroke="#fff" stroke-width="5">
      <circle cx="20" cy="20" r="20" stroke="none"/>
      <circle cx="20" cy="20" r="22.5" fill="none"/>
    </g>
    <g id="avatar-2" data-name="avatar" transform="translate(1503.5 350)">
      <circle id="Ellipse_1534" data-name="Ellipse 1534" cx="20" cy="20" r="20" transform="translate(10 10)" fill="#fff"/>
      <path id="Path_1042" data-name="Path 1042" d="M194.392,196.341a16.984,16.984,0,0,0-11.236,29.733,12.746,12.746,0,0,1,11.236-6.724,6.008,6.008,0,1,1,4.69-9.716,6.005,6.005,0,0,1-4.69,9.716,12.692,12.692,0,0,1,6.3,1.672l.018-.035a7.1,7.1,0,0,0,10.408-4.695c.03-.168.054-.339.079-.509,0-.017,0-.035,0-.053l0,0a16.878,16.878,0,0,0-16.813-19.392Z" transform="translate(-164.393 -183.341)" fill="#2f4d6f"/>
    </g>
  </g>
</svg>
