<svg xmlns="http://www.w3.org/2000/svg" width="34.026" height="34.026" viewBox="0 0 34.026 34.026"><defs><style>.a,.b{fill:#222;}.b{stroke:#222;stroke-width:0.2px;}</style></defs><g transform="translate(-9 -9)"><path class="a" d="M17.013,0A17.013,17.013,0,1,0,34.026,17.013,17,17,0,0,0,17.013,0Zm0,31.368A14.355,14.355,0,1,1,31.368,17.013,14.347,14.347,0,0,1,17.013,31.368Z" transform="translate(9 9)"/><circle class="a" cx="1.5" cy="1.5" r="1.5" transform="translate(24.5 30.988)"/><path class="b" d="M180.257,128.5A4.262,4.262,0,0,0,176,132.757a1.064,1.064,0,0,0,2.128,0,2.128,2.128,0,1,1,2.128,2.128,1.064,1.064,0,0,0-1.064,1.064v2.66a1.064,1.064,0,1,0,2.128,0v-1.731a4.257,4.257,0,0,0-1.064-8.379Z" transform="translate(-154.244 -111.017)"/></g></svg>