<svg xmlns="http://www.w3.org/2000/svg" width="40" height="40" viewBox="0 0 40 40">
  <g id="Group_1380" data-name="Group 1380" transform="translate(-2548 -466)">
    <circle id="Ellipse_2690" data-name="Ellipse 2690" cx="20" cy="20" r="20" transform="translate(2548 466)" fill="#f0f0f0"/>
    <g id="My_Managers" data-name="My Managers" transform="translate(2535.5 196)">
      <g id="frame" transform="translate(19.5 277)" fill="none" stroke="#969696" stroke-width="1" opacity="0">
        <rect width="26.01" height="26.01" stroke="none"/>
        <rect x="-0.5" y="-0.5" width="27.01" height="27.01" fill="none"/>
      </g>
      <g id="group" transform="translate(20.222 281.336)">
        <path id="Path_7346" data-name="Path 7346" d="M10.185,8.258a3.874,3.874,0,1,1,2.744-1.135,3.878,3.878,0,0,1-2.744,1.135Zm0-6.936a3.053,3.053,0,1,0,3.047,3.056,3.053,3.053,0,0,0-3.047-3.056Z" transform="translate(2.084 -0.501)" fill="#969696" stroke="#969696" stroke-width="0.4"/>
        <path id="Path_7347" data-name="Path 7347" d="M15.369,7.778A2.712,2.712,0,1,1,17.3,6.983,2.724,2.724,0,0,1,15.369,7.778Zm0-4.624a1.9,1.9,0,1,0,1.9,1.9,1.9,1.9,0,0,0-1.9-1.9Z" transform="translate(4.905 0.313)" fill="#969696" stroke="#969696" stroke-width="0.4"/>
        <path id="Path_7348" data-name="Path 7348" d="M4.29,7.778a2.712,2.712,0,1,1,1.931-.8A2.724,2.724,0,0,1,4.29,7.778Zm0-4.624a1.9,1.9,0,1,0,1.9,1.9,1.9,1.9,0,0,0-1.9-1.9Z" transform="translate(-0.025 0.313)" fill="#969696" stroke="#969696" stroke-width="0.4"/>
        <path id="Path_7349" data-name="Path 7349" d="M15.745,12.416a16.184,16.184,0,0,1-2.365-.144l-.329-.055v-.455A6.1,6.1,0,0,0,12.005,8.4l-.144-.192.11-.22a4.312,4.312,0,0,1,3.747-2.448,4.517,4.517,0,0,1,4.292,4.539C20.009,12.416,17.842,12.416,15.745,12.416Zm-1.871-.907a16.192,16.192,0,0,0,1.871.082c2.614,0,3.439-.22,3.439-1.513a3.692,3.692,0,0,0-3.468-3.714A3.445,3.445,0,0,0,12.8,8.152a6.9,6.9,0,0,1,1.072,3.357Z" transform="translate(4.556 1.743)" fill="#969696" stroke="#969696" stroke-width="0.4"/>
        <path id="Path_7350" data-name="Path 7350" d="M4.764,12.416c-2.1,0-4.264,0-4.264-2.332A4.479,4.479,0,0,1,4.764,5.545,4.28,4.28,0,0,1,8.505,7.993l.11.22L8.471,8.4a5.77,5.77,0,0,0-1.011,3.323V12.2l-.329.055a12.55,12.55,0,0,1-2.365.165Zm0-6.052a3.669,3.669,0,0,0-3.439,3.714c0,1.293.825,1.513,3.439,1.513a16.185,16.185,0,0,0,1.87-.082A6.583,6.583,0,0,1,7.679,8.152,3.445,3.445,0,0,0,4.764,6.37Z" transform="translate(-0.5 1.743)" fill="#969696" stroke="#969696" stroke-width="0.4"/>
        <path id="Path_7351" data-name="Path 7351" d="M10.888,15.145c-3.163,0-6.161,0-6.161-3.273A6.557,6.557,0,0,1,10.888,5.3a6.557,6.557,0,0,1,6.161,6.575C17.05,15.145,14.051,15.145,10.888,15.145Zm0-9.022A5.713,5.713,0,0,0,5.555,11.87c0,2.228,1.623,2.448,5.336,2.448s5.336-.22,5.336-2.448a5.713,5.713,0,0,0-5.339-5.748Z" transform="translate(1.381 1.634)" fill="#969696" stroke="#969696" stroke-width="0.4"/>
      </g>
    </g>
  </g>
</svg>
