<svg xmlns="http://www.w3.org/2000/svg" width="13.66" height="13.622" viewBox="0 0 13.66 13.622"><defs><style>.a{fill:#a1aebe;stroke-width:0.4px;}.a,.b{stroke:#a1aebe;}.b,.d{fill:none;}.c{stroke:none;}</style></defs><g transform="translate(-0.662 249.336)"><path class="a" d="M13.516,4l1.421-1.421a1.411,1.411,0,1,0-.407-.422L13.1,3.585A.293.293,0,0,0,13.516,4ZM15.727.586a.824.824,0,1,1-.824.824A.825.825,0,0,1,15.727.586Z" transform="translate(-3.016 -249.136)"/><path class="a" d="M16.637,4,15.216,2.579a1.411,1.411,0,1,1,.407-.422l1.429,1.429A.293.293,0,0,1,16.637,4ZM14.426.586a.824.824,0,1,0,.824.824A.825.825,0,0,0,14.426.586Z" transform="translate(-12.153 -249.136)"/><path class="a" d="M13.516.086l1.421,1.421a1.41,1.41,0,1,1-.407.422L13.1.5a.293.293,0,0,1,.415-.415ZM15.727,3.5a.824.824,0,1,0-.824-.824A.825.825,0,0,0,15.727,3.5Z" transform="translate(-3.016 -240)"/><path class="a" d="M16.637.086,15.216,1.507a1.41,1.41,0,1,0,.407.422L17.051.5a.293.293,0,0,0-.415-.415ZM14.426,3.5a.824.824,0,1,1,.824-.824A.825.825,0,0,1,14.426,3.5Z" transform="translate(-12.153 -240)"/><g class="b" transform="translate(5 -245)"><circle class="c" cx="2.5" cy="2.5" r="2.5"/><circle class="d" cx="2.5" cy="2.5" r="2"/></g></g></svg>