<svg xmlns="http://www.w3.org/2000/svg" width="22.008" height="22.008" viewBox="0 0 22.008 22.008">
  <g id="DEI" transform="translate(-19 -19)">
    <path id="Path_3921" data-name="Path 3921" d="M39.034,33a6.034,6.034,0,1,0,6.034,6.034A6.034,6.034,0,0,0,39.034,33Zm0,9.939a3.9,3.9,0,1,1,3.9-3.9A3.9,3.9,0,0,1,39.034,42.939Z" transform="translate(-9.03 -9.03)" fill="#222"/>
    <path id="Path_3922" data-name="Path 3922" d="M50,21.13a8.874,8.874,0,0,1,4.437,1.189L55.5,20.473A11,11,0,0,0,50,19Z" transform="translate(-19.996)" fill="#222"/>
    <path id="Path_3923" data-name="Path 3923" d="M71.65,35.562A8.874,8.874,0,0,1,72.839,40h2.13a11.006,11.006,0,0,0-1.474-5.5Z" transform="translate(-33.961 -9.995)" fill="#222"/>
    <path id="Path_3924" data-name="Path 3924" d="M62.5,65.748l1.065,1.846a11,11,0,0,0,4.029-4.029L65.748,62.5A8.874,8.874,0,0,1,62.5,65.748Z" transform="translate(-28.059 -28.059)" fill="#222"/>
    <path id="Path_3925" data-name="Path 3925" d="M34.5,73.5A11,11,0,0,0,40,74.969v-2.13a8.874,8.874,0,0,1-4.437-1.189Z" transform="translate(-9.998 -33.961)" fill="#222"/>
    <path id="Path_3926" data-name="Path 3926" d="M19,50a11.006,11.006,0,0,0,1.474,5.5l1.845-1.067A8.874,8.874,0,0,1,21.13,50Z" transform="translate(0 -19.996)" fill="#222"/>
    <path id="Path_3927" data-name="Path 3927" d="M27.179,23.15a11,11,0,0,0-4.029,4.029L25,28.244A8.874,8.874,0,0,1,28.244,25Z" transform="translate(-2.677 -2.677)" fill="#222"/>
  </g>
</svg>
