<svg xmlns="http://www.w3.org/2000/svg" width="23.925" height="23.005" viewBox="0 0 23.925 23.005">
  <g id="icon" transform="translate(0 0)">
    <g id="Group_855" data-name="Group 855" transform="translate(5.524 5.523)">
      <g id="Group_854" data-name="Group 854">
        <path id="Path_3052" data-name="Path 3052" d="M107.962,96H96.92a.92.92,0,0,0,0,1.84h11.042a.92.92,0,0,0,0-1.84Z" transform="translate(-96 -96)" fill="#222"/>
      </g>
    </g>
    <g id="Group_857" data-name="Group 857" transform="translate(5.523 9.205)">
      <g id="Group_856" data-name="Group 856">
        <path id="Path_3053" data-name="Path 3053" d="M104.282,160H96.92a.92.92,0,1,0,0,1.84h7.361a.92.92,0,1,0,0-1.84Z" transform="translate(-96 -160)" fill="#222"/>
      </g>
    </g>
    <g id="Group_859" data-name="Group 859" transform="translate(0 0)">
      <g id="Group_858" data-name="Group 858">
        <path id="Path_3054" data-name="Path 3054" d="M20.244,0H3.681A3.684,3.684,0,0,0,0,3.681v18.4a.919.919,0,0,0,.53.834A.934.934,0,0,0,.92,23a.92.92,0,0,0,.589-.213L6.774,18.4h13.47a3.684,3.684,0,0,0,3.681-3.681V3.681A3.684,3.684,0,0,0,20.244,0Zm1.84,14.723a1.842,1.842,0,0,1-1.84,1.84H6.441a.919.919,0,0,0-.589.213L1.84,20.121V3.681a1.842,1.842,0,0,1,1.84-1.84H20.244a1.842,1.842,0,0,1,1.84,1.84Z" fill="#222"/>
      </g>
    </g>
  </g>
</svg>
