<svg xmlns="http://www.w3.org/2000/svg" width="15.346" height="15.346" viewBox="0 0 15.346 15.346"><defs><style>.a{fill:#a1aebe;}</style></defs><g transform="translate(-4.596 -59)"><g transform="translate(0 59)"><path class="a" d="M305.251,282.919h-2.173a.572.572,0,1,0,0,1.144h.793l-2.744,2.744a.572.572,0,0,0,.809.809l2.744-2.744v.793a.572.572,0,0,0,1.144,0v-2.174h0A.573.573,0,0,0,305.251,282.919Z" transform="translate(-287.052 -274.437)"/><path class="a" d="M19.163,59h-4.6a.779.779,0,0,0-.779.779V63.6H9.971a.779.779,0,0,0-.779.779v3.817H5.375a.779.779,0,0,0-.779.779l0,4.6a.592.592,0,0,0,.25.547,1,1,0,0,0,.525.232.779.779,0,0,0,.779-.779V69.75H9.971a.779.779,0,0,0,.779-.779V65.154h3.817a.779.779,0,0,0,.779-.779V60.558h3.817a.779.779,0,0,0,0-1.558Z" transform="translate(0 -59)"/></g></g></svg>