<svg xmlns="http://www.w3.org/2000/svg" width="14.828" height="22.3" viewBox="0 0 14.828 22.3">
  <g id="goal" transform="translate(-154.028 -205.477)">
    <path id="Path_1257" data-name="Path 1257" d="M242.681,21.181V17.259c1.86-.769,3.409-.3,5.335.295a15.855,15.855,0,0,0,4.816.908,10.941,10.941,0,0,0,1.989-.184.84.84,0,0,0,.491-1.367l-2.977-3.546L255.32,9.7a.84.84,0,0,0-.8-1.357,11.843,11.843,0,0,1-6.008-.678c-1.814-.556-3.681-1.127-5.827-.471V7.01a.84.84,0,1,0-1.681,0V21.181Zm0-12.2c1.86-.769,3.409-.3,5.335.295a16,16,0,0,0,4.746.908l-2.169,2.662a.84.84,0,0,0,.008,1.071l2.405,2.865a13.977,13.977,0,0,1-4.5-.832c-1.814-.556-3.681-1.127-5.827-.471Zm-.84,19.192a.84.84,0,0,0,.84-.84V20.72H241V27.33A.84.84,0,0,0,241.84,28.17Z" transform="translate(-86.822 199.457)" fill="#222" stroke="#222" stroke-width="0.3"/>
  </g>
</svg>
