<svg xmlns="http://www.w3.org/2000/svg" width="14.68" height="13.505" viewBox="0 0 14.68 13.505">
  <g id="hazard" transform="translate(-111.326 -16)">
    <path id="Path_7107" data-name="Path 7107" d="M126.4,70l-4.372-7.573a2.969,2.969,0,0,0-5.144,0L112.516,70a2.969,2.969,0,0,0,2.572,4.445h8.745a2.969,2.969,0,0,0,2.572-4.453Zm-.937,2.429a1.868,1.868,0,0,1-1.636.937h-8.745a1.889,1.889,0,0,1-1.636-2.834l4.372-7.573a1.889,1.889,0,0,1,3.271,0l4.372,7.573a1.864,1.864,0,0,1,0,1.9Z" transform="translate(-0.796 -44.937)" fill="#222"/>
    <path id="Path_7109" data-name="Path 7109" d="M119.84,71.054a.54.54,0,0,1,0,.764.482.482,0,0,1-.081.067.593.593,0,0,1-.092.049.654.654,0,0,1-.1.032.668.668,0,0,1-.105,0,.7.7,0,0,1-.105,0,.655.655,0,0,1-.1-.032.6.6,0,0,1-.092-.049.482.482,0,0,1-.081-.067.54.54,0,0,1,0-.764.488.488,0,0,1,.081-.067.511.511,0,0,1,.094-.049.62.62,0,0,1,.1-.032.539.539,0,0,1,.211,0,.751.751,0,0,1,.1.032.6.6,0,0,1,.092.049.488.488,0,0,1,.081.067Z" transform="translate(-0.796 -45.095)" fill="#222" stroke="#222" stroke-width="0.2"/>
    <path id="Path_7108" data-name="Path 7108" d="M120,65.23v4.588a.54.54,0,1,1-1.08,0V65.23a.54.54,0,1,1,1.08,0Z" transform="translate(-0.796 -45.39)" fill="#222" stroke="#222" stroke-width="0.2"/>
  </g>
</svg>
