<svg xmlns="http://www.w3.org/2000/svg" width="20.509" height="24.084" viewBox="0 0 20.509 24.084">
  <g id="shield" transform="translate(0 0.001)">
    <path id="Path_1247" data-name="Path 1247" d="M20.485,6.534V6.515c-.01-.231-.017-.476-.022-.748a2.553,2.553,0,0,0-2.4-2.5A9.9,9.9,0,0,1,11.318.424L11.3.41a1.541,1.541,0,0,0-2.095,0L9.192.424A9.906,9.906,0,0,1,2.45,3.266a2.552,2.552,0,0,0-2.4,2.5c0,.27-.011.515-.022.748v.044C-.03,9.382-.1,12.9,1.079,16.086a12.128,12.128,0,0,0,2.91,4.532,15.221,15.221,0,0,0,5.694,3.368,1.761,1.761,0,0,0,.233.064,1.724,1.724,0,0,0,.678,0,1.762,1.762,0,0,0,.234-.064,15.23,15.23,0,0,0,5.688-3.37,12.146,12.146,0,0,0,2.91-4.533C20.605,12.883,20.539,9.363,20.485,6.534ZM18.1,15.594c-1.24,3.362-3.771,5.671-7.738,7.058a.364.364,0,0,1-.045.012.318.318,0,0,1-.124,0,.358.358,0,0,1-.044-.012c-3.971-1.385-6.5-3.692-7.743-7.054-1.084-2.94-1.022-6.166-.968-9.012V6.57c.011-.245.018-.5.022-.782a1.134,1.134,0,0,1,1.069-1.11,12.4,12.4,0,0,0,4.209-.926,11.01,11.01,0,0,0,3.43-2.3.13.13,0,0,1,.175,0,11.014,11.014,0,0,0,3.43,2.3,12.4,12.4,0,0,0,4.209.926A1.134,1.134,0,0,1,19.05,5.788c0,.283.012.539.023.782C19.126,9.419,19.186,12.647,18.1,15.594Zm0,0" transform="translate(0 0)" fill="#c8c8c8"/>
    <path id="Path_1248" data-name="Path 1248" d="M96.4,128.41a6,6,0,1,0,6,6A6.009,6.009,0,0,0,96.4,128.41ZM96.4,139a4.589,4.589,0,1,1,4.589-4.589A4.594,4.594,0,0,1,96.4,139Zm0,0" transform="translate(-86.146 -122.371)" fill="#c8c8c8"/>
    <path id="Path_1249" data-name="Path 1249" d="M158.424,212.2l-2.788,2.788-.757-.757a.707.707,0,1,0-1,1l1.256,1.256a.707.707,0,0,0,1,0l3.288-3.288a.707.707,0,0,0-1-1Zm0,0" transform="translate(-146.444 -202.02)" fill="#c8c8c8"/>
  </g>
</svg>
