<svg xmlns="http://www.w3.org/2000/svg" width="17.503" height="16" viewBox="0 0 17.503 16"><defs><style>.a{fill:#fff;}</style></defs><path class="a" d="M219.053,333.382a.828.828,0,1,0,0,1.655.828.828,0,0,0,0-1.655Z" transform="translate(-210.302 -322.025)"/><path class="a" d="M17.076,35.313a3.072,3.072,0,0,0,.007-3.109l-5.634-9.758a3.1,3.1,0,0,0-5.39,0L.418,32.212a3.116,3.116,0,0,0,2.7,4.67H14.371A3.1,3.1,0,0,0,17.076,35.313Zm-1.223-.705a1.7,1.7,0,0,1-1.486.86H3.113a1.677,1.677,0,0,1-1.468-.842,1.7,1.7,0,0,1,0-1.716l5.642-9.765a1.694,1.694,0,0,1,2.943,0l5.638,9.765A1.68,1.68,0,0,1,15.853,34.608Z" transform="translate(0 -20.882)"/><path class="a" d="M218.364,157.2a.9.9,0,0,0-.639.9c.02.262.036.526.056.788.056,1,.113,1.973.169,2.97a.606.606,0,0,0,.619.583.619.619,0,0,0,.619-.6c0-.205,0-.394.02-.6.036-.639.076-1.278.113-1.917.02-.414.056-.828.076-1.241a1.022,1.022,0,0,0-.076-.414A.83.83,0,0,0,218.364,157.2Z" transform="translate(-209.819 -152.054)"/></svg>