<svg xmlns="http://www.w3.org/2000/svg" width="30" height="30" viewBox="0 0 30 30">
  <g id="lightbulb" transform="translate(-103.326 -8)">
    <circle id="Ellipse_2190" data-name="Ellipse 2190" cx="15" cy="15" r="15" transform="translate(103.326 8)" fill="#f0f0f0"/>
    <path id="Path_5163" data-name="Path 5163" d="M208.474,107.389a4.957,4.957,0,0,0-4.132,8.017,7.793,7.793,0,0,1,1.289,2.293l.019.057v1.99a.527.527,0,0,0,.436.512,2.169,2.169,0,0,0,4.321-.019.512.512,0,0,0,.436-.512v-1.971l.019-.057a7.483,7.483,0,0,1,1.289-2.274,4.908,4.908,0,0,0,1.061-3.279,5.023,5.023,0,0,0-4.738-4.757Zm1.327,10.575v1.251h-3.108v-1.251Zm-1.554,3.222a1.14,1.14,0,0,1-1.118-.948h2.236A1.123,1.123,0,0,1,208.247,121.187Zm3.07-6.425a8.909,8.909,0,0,0-1.289,2.161h-3.563a9.291,9.291,0,0,0-1.289-2.161,3.882,3.882,0,0,1-.834-2.426,3.943,3.943,0,0,1,1.213-2.843,3.879,3.879,0,0,1,2.9-1.08,3.955,3.955,0,0,1,3.734,3.734,4.036,4.036,0,0,1-.872,2.615Z" transform="translate(-89.816 -90.224)" fill="#222"/>
    <path id="Path_5164" data-name="Path 5164" d="M335.391,15.99a.51.51,0,0,0,.512-.512v-.967a.512.512,0,0,0-1.023,0v.967A.51.51,0,0,0,335.391,15.99Z" transform="translate(-216.96)" fill="#222"/>
    <path id="Path_5165" data-name="Path 5165" d="M223.494,45.932a.51.51,0,0,0,.455.265.474.474,0,0,0,.265-.076.507.507,0,0,0,.19-.7l-.474-.834a.514.514,0,0,0-.891.512Z" transform="translate(-108.835 -29.298)" fill="#222"/>
    <path id="Path_5166" data-name="Path 5166" d="M141.691,126.629l-.834-.474a.514.514,0,0,0-.512.891l.834.474a.616.616,0,0,0,.265.076.513.513,0,0,0,.246-.967Z" transform="translate(-28.756 -108.289)" fill="#222"/>
    <path id="Path_5167" data-name="Path 5167" d="M505.15,127.6a.474.474,0,0,0,.265-.076l.834-.474a.514.514,0,1,0-.512-.891l-.834.474a.507.507,0,0,0-.19.7.468.468,0,0,0,.436.265Z" transform="translate(-380.977 -108.292)" fill="#222"/>
    <path id="Path_5168" data-name="Path 5168" d="M433.062,46.12a.616.616,0,0,0,.265.076.533.533,0,0,0,.455-.265l.474-.834a.514.514,0,0,0-.891-.512l-.474.834a.5.5,0,0,0,.17.7Z" transform="translate(-311.58 -29.296)" fill="#222"/>
  </g>
</svg>
