<svg xmlns="http://www.w3.org/2000/svg" width="21.495" height="15.298" viewBox="0 0 21.495 15.298">
  <g id="list" transform="translate(-337 -120.5)">
    <path id="Path_7309" data-name="Path 7309" d="M77.983,72.865h13.3" transform="translate(265.668 61.269)" fill="none" stroke="#222" stroke-linecap="round" stroke-width="3"/>
    <path id="Path_7310" data-name="Path 7310" d="M78,65.761H91.33" transform="translate(265.665 62.455)" fill="none" stroke="#222" stroke-linecap="round" stroke-width="3"/>
    <path id="Path_7311" data-name="Path 7311" d="M77.983,58.5h13.3" transform="translate(265.668 63.667)" fill="none" stroke="#222" stroke-linecap="round" stroke-width="3"/>
    <path id="Path_7312" data-name="Path 7312" d="M71.663,59.826A1.663,1.663,0,1,0,70,58.163,1.663,1.663,0,0,0,71.663,59.826Z" transform="translate(267 64)" fill="#222"/>
    <path id="Path_7313" data-name="Path 7313" d="M71.663,67.011A1.663,1.663,0,1,0,70,65.348,1.663,1.663,0,0,0,71.663,67.011Z" transform="translate(267 62.801)" fill="#222"/>
    <path id="Path_7314" data-name="Path 7314" d="M71.663,74.2A1.663,1.663,0,1,0,70,72.533,1.663,1.663,0,0,0,71.663,74.2Z" transform="translate(267 61.602)" fill="#222"/>
  </g>
</svg>
