<?xml version="1.0" encoding="utf-8"?>
<!-- Generator: Adobe Illustrator 26.0.1, SVG Export Plug-In . SVG Version: 6.00 Build 0)  -->
<svg version="1.1" id="Layer_1" xmlns="http://www.w3.org/2000/svg" xmlns:xlink="http://www.w3.org/1999/xlink" x="0px" y="0px"
	 viewBox="0 0 100 100" style="enable-background:new 0 0 100 100;" xml:space="preserve">
<style type="text/css">
	.st0{fill:#FFFFFF;}
</style>
<g id="Layer_2_00000000182515243550175800000005981475919764104077_">
	<path class="st0" d="M71.9,39.8v-9.3C71.1,18.5,60.8,9.3,48.7,10c-11,0.7-19.8,9.5-20.5,20.5v9.3c-5.2,0-9.3,4.2-9.3,9.4v31.4
		c0,5.2,4.2,9.4,9.4,9.4h43.5c5.2,0,9.3-4.2,9.3-9.4V49.2C81.1,44.1,77,39.9,71.9,39.8z M38.1,26.3c0.3-0.5,0.6-1.3,0.6-1.3
		c1.8-4.3,6-7.2,11-7.2c2.4,0,4.6,0.7,6.4,1.9l0.2,0.1c2.7,1.7,4.6,4.4,5.3,7.5c0,0.8,0,1.6,0,2.4v10.1H37.7v-8v-1.2
		c0-0.8,0-2.4,0-3.4 M71.7,80.6H28.4V49.3h43.3V80.6z"/>
</g>
</svg>
