<svg xmlns="http://www.w3.org/2000/svg" width="23.111" height="14.653" viewBox="0 0 23.111 14.653"><defs><style>.a{fill:#222;stroke:#fff;}</style></defs><g transform="translate(-67.469 -253.7)"><path class="a" d="M86.847,253.168H80.113a1.572,1.572,0,0,0,0,3.143h2.94l-6.715,6.715-3.65-3.65a1.572,1.572,0,0,0-2.223,0l-3.572,3.571a1.572,1.572,0,1,0,2.223,2.223l2.46-2.46,3.65,3.65a1.572,1.572,0,0,0,2.223,0l7.826-7.826v2.939a1.572,1.572,0,1,0,3.143,0V254.74A1.572,1.572,0,0,0,86.847,253.168Zm0,0" transform="translate(1.662 1.032)"/></g></svg>