<svg xmlns="http://www.w3.org/2000/svg" width="16" height="20.945" viewBox="0 0 16 20.945"><defs><style>.a{fill:#fff;}</style></defs><g transform="translate(-4 -40.92)"><g transform="translate(4 40.92)"><path class="a" d="M19.345,54.665H17.791l-1.218-7.307a.655.655,0,0,0-.645-.547H15.92a.654.654,0,0,0-.641.561l-1.2,8.408-1.428-14.27a.657.657,0,0,0-.638-.589H12a.654.654,0,0,0-.648.562L9.469,54.665h-.9L7.393,50.559a.655.655,0,0,0-1.27.043l-.858,4.063H4.655a.655.655,0,1,0,0,1.309h1.14a.654.654,0,0,0,.64-.519l.423-2L7.442,55.5a.655.655,0,0,0,.63.475h1.964a.654.654,0,0,0,.648-.561l1.2-8.407,1.428,14.27a.656.656,0,0,0,.638.589h.014a.654.654,0,0,0,.648-.561l1.365-9.559.614,3.682a.655.655,0,0,0,.645.547h2.109a.655.655,0,1,0,0-1.309Z" transform="translate(-4 -40.92)"/></g></g></svg>