<svg xmlns="http://www.w3.org/2000/svg" width="15.218" height="15.368" viewBox="0 0 15.218 15.368"><defs><style>.a{fill:#fff;stroke:#fff;stroke-width:0.4px;}</style></defs><g transform="translate(-6.935 -191.515)"><path class="a" d="M15.953,27.391V23.736l-.3-.6-3.237-1.887V17.316a.334.334,0,0,0-.166-.288L8.712,14.965a.334.334,0,0,0-.336,0L4.838,17.027a.334.334,0,0,0-.166.288v3.932L1.436,23.135l-.3.6v3.655l.3.6,3.238,1.888H5.34l3.2-1.868,3.2,1.868h.667l3.238-1.888ZM8.544,15.64l3.2,1.868v3.741l-3.2,1.868-3.2-1.868V17.507ZM1.8,23.694l3.2-1.868,3.2,1.868v3.741L5.006,29.3,1.8,27.435Zm13.484,3.741-3.2,1.868-3.2-1.868V23.694l3.2-1.868,3.2,1.868Z" transform="translate(6 176.801)"/></g></svg>