<svg id="smilie" xmlns="http://www.w3.org/2000/svg" width="53" height="53" viewBox="0 0 53 53">
  <g id="Ellipse_1265" data-name="Ellipse 1265" fill="none" stroke="#222" stroke-width="3">
    <circle cx="26.5" cy="26.5" r="26.5" stroke="none"/>
    <circle cx="26.5" cy="26.5" r="25" fill="none"/>
  </g>
  <path id="Path_2761" data-name="Path 2761" d="M10,1a11.416,11.416,0,0,0,8.5-2C23-4,24-7,24-7" transform="translate(16 39)" fill="none" stroke="#222" stroke-linecap="round" stroke-width="3"/>
  <path id="Path_2868" data-name="Path 2868" d="M8,1a5.088,5.088,0,0,1,4.5-3A5.088,5.088,0,0,1,17,1" transform="translate(6 19)" fill="none" stroke="#222" stroke-linecap="round" stroke-width="3"/>
  <path id="Path_2869" data-name="Path 2869" d="M8,1a5.088,5.088,0,0,1,4.5-3A5.088,5.088,0,0,1,17,1" transform="translate(22 19)" fill="none" stroke="#222" stroke-linecap="round" stroke-width="3"/>
</svg>
