<svg xmlns="http://www.w3.org/2000/svg" width="15.859" height="17.104" viewBox="0 0 15.859 17.104"><defs><style>.a{fill:#fff;}</style></defs><g transform="translate(-1.245)"><path class="a" d="M16.664,1.532A2.154,2.154,0,0,0,14.931.668H14.64V.5a.5.5,0,0,0-1,0V1.837a.5.5,0,0,0,1,0V1.67h.291a1.169,1.169,0,0,1,1.124,1.49l-1.33,4.655a3.042,3.042,0,0,1-5.85,0L7.545,3.161A1.169,1.169,0,0,1,8.67,1.67h.291v.167a.5.5,0,1,0,1,0V.5a.5.5,0,1,0-1,0V.668H8.67A2.171,2.171,0,0,0,6.582,3.436l1.33,4.655a4.014,4.014,0,0,0,1.453,2.118,4.1,4.1,0,0,0,.473.308L11.3,13.965v.362a1.775,1.775,0,1,1-3.55,0V10.89A2.873,2.873,0,0,0,2,10.89v2.186h1V10.89a1.871,1.871,0,0,1,3.741,0v3.437a2.777,2.777,0,0,0,5.554,0v-.362l1.462-3.45a4.1,4.1,0,0,0,.472-.307,4.013,4.013,0,0,0,1.453-2.118l1.33-4.655a2.154,2.154,0,0,0-.354-1.9ZM11.8,12.579l-.683-1.613a4.081,4.081,0,0,0,1.366,0Z"/><circle class="a" cx="1.25" cy="1.25" r="1.25" transform="translate(1.245 12.258)"/></g></svg>