<svg xmlns="http://www.w3.org/2000/svg" width="22.902" height="22.902" viewBox="0 0 22.902 22.902"><defs><style>.a{fill:#8294a8;}</style></defs><g transform="translate(5.695 5.695)"><path class="a" d="M85.015,76.9a5.775,5.775,0,0,0-4.059-1.7A5.65,5.65,0,0,0,76.9,76.9a5.756,5.756,0,0,0,4.059,9.815,5.65,5.65,0,0,0,4.059-1.7,5.775,5.775,0,0,0,1.7-4.059A5.65,5.65,0,0,0,85.015,76.9Zm-1.091,7.028a4.243,4.243,0,1,1,1.212-2.969A4.19,4.19,0,0,1,83.925,83.925Z" transform="translate(-75.2 -75.2)"/></g><g transform="translate(18.994 10.664)"><path class="a" d="M253.92,140.8h-2.333a.788.788,0,1,0,0,1.575h2.333a.788.788,0,0,0,0-1.575Z" transform="translate(-250.8 -140.8)"/></g><g transform="translate(10.664 18.994)"><path class="a" d="M141.588,250.8a.8.8,0,0,0-.788.788v2.333a.788.788,0,0,0,1.575,0v-2.333A.8.8,0,0,0,141.588,250.8Z" transform="translate(-140.8 -250.8)"/></g><g transform="translate(16.556 16.556)"><path class="a" d="M221.584,220.493l-1.666-1.666a.771.771,0,0,0-1.091,1.091l1.666,1.666a.771.771,0,0,0,1.091-1.091Z" transform="translate(-218.6 -218.6)"/></g><g transform="translate(10.664)"><path class="a" d="M141.588,0a.8.8,0,0,0-.788.788V3.12a.788.788,0,0,0,1.575,0V.788A.8.8,0,0,0,141.588,0Z" transform="translate(-140.8)"/></g><g transform="translate(16.586 3.135)"><path class="a" d="M221.984,41.627a.768.768,0,0,0-1.091,0l-1.666,1.666a.771.771,0,0,0,1.091,1.091l1.666-1.666A.768.768,0,0,0,221.984,41.627Z" transform="translate(-219 -41.4)"/></g><g transform="translate(0 10.664)"><path class="a" d="M3.12,140.8H.788a.8.8,0,0,0-.788.788.782.782,0,0,0,.788.788H3.12a.788.788,0,0,0,0-1.575Z" transform="translate(0 -140.8)"/></g><g transform="translate(3.105 16.556)"><path class="a" d="M43.984,218.827a.768.768,0,0,0-1.091,0l-1.666,1.666a.771.771,0,0,0,1.091,1.091l1.666-1.666A.768.768,0,0,0,43.984,218.827Z" transform="translate(-41 -218.6)"/></g><g transform="translate(3.105 3.135)"><path class="a" d="M43.984,43.293l-1.666-1.666a.771.771,0,0,0-1.091,1.091l1.666,1.666a.771.771,0,0,0,1.091-1.091Z" transform="translate(-41 -41.4)"/></g></svg>