<svg xmlns="http://www.w3.org/2000/svg" xmlns:xlink="http://www.w3.org/1999/xlink" width="40" height="40" viewBox="0 0 40 40"><defs><style>.a{fill:#fff;}.b{clip-path:url(#a);}.c{fill:#222;}.d,.f{fill:none;}.d{stroke:#f0f0f0;stroke-width:2px;}.e{stroke:none;}</style><clipPath id="a"><circle class="a" cx="20" cy="20" r="20" transform="translate(-25 20)"/></clipPath></defs><g class="b" transform="translate(25 -20)"><circle class="a" cx="20" cy="20" r="20" transform="translate(-25 20)"/><g transform="translate(-15 -52.333)"><g transform="translate(6.956 85.333)"><circle class="c" cx="3.043" cy="3.043" r="3.043"/></g><g transform="translate(13.913 88.811)"><g transform="translate(0 0)"><circle class="c" cx="2.174" cy="2.174" r="2.174"/></g></g><g transform="translate(1.801 88.811)"><g transform="translate(0 0)"><circle class="c" cx="2.174" cy="2.174" r="2.174"/></g></g><g transform="translate(4.348 92.29)"><path class="c" d="M112.318,256a5.659,5.659,0,0,0-5.652,5.652.435.435,0,0,0,.435.435h10.435a.435.435,0,0,0,.435-.435A5.659,5.659,0,0,0,112.318,256Z" transform="translate(-106.666 -256)"/></g><g transform="translate(0 94.029)"><path class="c" d="M4.724,298.761a3.9,3.9,0,0,0-.811-.094A3.918,3.918,0,0,0,0,302.58a.435.435,0,0,0,.435.435H3.558a1.29,1.29,0,0,1-.08-.435A6.481,6.481,0,0,1,4.724,298.761Z" transform="translate(0 -298.667)"/></g><g transform="translate(15.276 94.029)"><path class="c" d="M375.574,298.667a3.9,3.9,0,0,0-.811.094,6.481,6.481,0,0,1,1.246,3.819,1.29,1.29,0,0,1-.08.435h3.123a.435.435,0,0,0,.435-.435A3.918,3.918,0,0,0,375.574,298.667Z" transform="translate(-374.763 -298.667)"/></g></g><g class="d" transform="translate(-25 20)"><circle class="e" cx="20" cy="20" r="20"/><circle class="f" cx="20" cy="20" r="19"/></g></g></svg>