<svg xmlns="http://www.w3.org/2000/svg" width="20" height="20" viewBox="0 0 20 20">
  <g id="CareerGrowth" transform="translate(-11.6 -17.326)">
    <g id="frame" transform="translate(12.6 18.326)" fill="none" stroke="#fff" stroke-width="1" opacity="0">
      <rect width="18" height="18" stroke="none"/>
      <rect x="-0.5" y="-0.5" width="19" height="19" fill="none"/>
    </g>
    <path id="Path_1359" data-name="Path 1359" d="M34.139,30.973a.256.256,0,0,0-.072-.072,8.482,8.482,0,0,0-11.941,0,.328.328,0,0,0-.04.033.319.319,0,0,0-.033.04,8.482,8.482,0,0,0,0,11.941.257.257,0,0,0,.072.072,8.482,8.482,0,0,0,11.941,0,.312.312,0,0,0,.04-.033.3.3,0,0,0,.033-.04,8.482,8.482,0,0,0,0-11.941Zm1.548,6.306h.231a7.8,7.8,0,0,1-2.056,4.957l-.161-.161a.335.335,0,1,0-.474.474l.161.161a7.8,7.8,0,0,1-4.957,2.056v-.231a.335.335,0,1,0-.67,0v.231A7.8,7.8,0,0,1,22.8,42.708l.161-.161a.335.335,0,0,0-.474-.474l-.161.161a7.8,7.8,0,0,1-2.056-4.956h.231a.335.335,0,0,0,0-.67h-.231a7.8,7.8,0,0,1,2.056-4.958l.161.161a.335.335,0,0,0,.474-.473l-.161-.161a7.8,7.8,0,0,1,4.956-2.056v.231a.335.335,0,1,0,.67,0v-.231a7.8,7.8,0,0,1,4.957,2.056l-.161.161a.335.335,0,1,0,.474.474l.161-.161a7.8,7.8,0,0,1,2.056,4.957h-.231a.335.335,0,1,0,0,.67Z" transform="translate(-6.496 -9.617)" fill="#fff" stroke="#fff" stroke-width="0.5"/>
    <path id="Path_1361" data-name="Path 1361" d="M40.33,43.127l-3.624-.72,1.44-2.156a.3.3,0,0,0-.411-.411L35.58,41.281l-.72-3.624a.3.3,0,0,0-.582,0l-.72,3.624L31.4,39.839a.3.3,0,0,0-.411.411l1.44,2.156-3.624.72a.3.3,0,0,0,0,.581l3.625.72-1.441,2.156A.3.3,0,0,0,31.4,47l2.156-1.441.72,3.624a.3.3,0,0,0,.582,0l.72-3.624L37.735,47a.3.3,0,0,0,.411-.411L36.7,44.429l3.625-.72a.3.3,0,0,0,0-.581Zm-3.505-1.966-.749,1.121-.31-.062-.062-.31Zm-4.513,0,1.121.749-.062.31-.31.062Zm0,4.513.748-1.119.309.061.061.31Zm4.51,0L35.7,44.925l.061-.31.309-.061Zm-1.367-1.6a.3.3,0,0,0-.233.233l-.654,3.3-.655-3.3a.3.3,0,0,0-.233-.233l-3.295-.655,3.3-.655a.3.3,0,0,0,.233-.234l.655-3.295.655,3.295a.3.3,0,0,0,.233.233l3.295.656Z" transform="translate(-12.969 -16.092)" fill="#fff"/>
  </g>
</svg>
