<svg xmlns="http://www.w3.org/2000/svg" width="20" height="20" viewBox="0 0 20 20">
  <g id="Leadership" transform="translate(-149 -204.17)">
    <g id="frame" transform="translate(150 205.17)" fill="none" stroke="#fff" stroke-width="1" opacity="0">
      <rect width="18" height="18" stroke="none"/>
      <rect x="-0.5" y="-0.5" width="19" height="19" fill="none"/>
    </g>
    <path id="Path_1257" data-name="Path 1257" d="M242.375,18.452V15.243c1.522-.629,2.789-.241,4.365.241a12.972,12.972,0,0,0,3.94.743,8.951,8.951,0,0,0,1.627-.15.688.688,0,0,0,.4-1.118l-2.436-2.9,2.442-3a.688.688,0,0,0-.658-1.111,9.689,9.689,0,0,1-4.915-.555,7.737,7.737,0,0,0-4.768-.385v-.15a.688.688,0,1,0-1.375,0V18.452Zm0-9.985c1.522-.629,2.789-.241,4.365.241a13.087,13.087,0,0,0,3.883.743l-1.774,2.178a.688.688,0,0,0,.007.876l1.968,2.344a11.435,11.435,0,0,1-3.68-.681,7.737,7.737,0,0,0-4.768-.385Zm-.688,15.7a.688.688,0,0,0,.688-.688V18.075H241v5.408A.688.688,0,0,0,241.688,24.17Z" transform="translate(-86.822 199)" fill="#fff"/>
  </g>
</svg>
