<svg xmlns="http://www.w3.org/2000/svg" width="20" height="20" viewBox="0 0 20 20">
  <g id="LearningCenter" transform="translate(-5 -551)">
    <g id="frame" transform="translate(6 552)" fill="none" stroke="#fff" stroke-width="1" opacity="0">
      <rect width="18" height="18" stroke="none"/>
      <rect x="-0.5" y="-0.5" width="19" height="19" fill="none"/>
    </g>
    <path id="mortarboard" d="M16.945,42.737V35.451l.712-.266a.527.527,0,0,0,0-.988L9.184,31.033a.527.527,0,0,0-.369,0L.343,34.2a.527.527,0,0,0,0,.988L3.854,36.5a9.976,9.976,0,0,0-.655,4,.527.527,0,0,0,.232.437A12.314,12.314,0,0,0,9,42.867a12.314,12.314,0,0,0,5.569-1.938.527.527,0,0,0,.232-.437,10.049,10.049,0,0,0-.655-4l1.744-.651v6.891a1.726,1.726,0,0,0-.69.774,3.948,3.948,0,0,0-.365,1.727v1.055a.527.527,0,0,0,.527.527h2.109A.527.527,0,0,0,18,46.293V45.238a3.948,3.948,0,0,0-.365-1.727,1.726,1.726,0,0,0-.69-.774ZM9,32.09l6.965,2.6L9,37.293l-6.965-2.6Zm4.742,7.671C13.2,39.608,11.371,41.43,9,41.43s-4.2-1.822-4.742-1.668a8.741,8.741,0,0,1,.584-2.9l3.974,1.484a.527.527,0,0,0,.369,0l3.974-1.484a8.743,8.743,0,0,1,.584,2.9Zm3.2,6H15.891v-.527a2.927,2.927,0,0,1,.253-1.256c.135-.27.256-.326.274-.326s.139.057.274.326a2.927,2.927,0,0,1,.253,1.256Z" transform="translate(6 523)" fill="#fff"/>
  </g>
</svg>
