<svg xmlns="http://www.w3.org/2000/svg" width="20" height="20" viewBox="0 0 20 20">
  <g id="Logout" transform="translate(3 3)">
    <g id="frame" transform="translate(-2 -2)" fill="none" stroke="#fff" stroke-width="1" opacity="0">
      <rect width="18" height="18" stroke="none"/>
      <rect x="-0.5" y="-0.5" width="19" height="19" fill="none"/>
    </g>
    <path id="Path_768" data-name="Path 768" d="M7.789,18.066H4.273a1.758,1.758,0,0,1-1.758-1.758V5.758A1.758,1.758,0,0,1,4.273,4H7.789V5.758H4.273V16.308H7.789Z" transform="translate(-4.514 -4)" fill="#fff"/>
    <path id="Path_769" data-name="Path 769" d="M13.076,15.846l1.249-1.238-3.445-3.475h8.038a.879.879,0,0,0,0-1.758H10.862l3.5-3.47L13.123,4.657,7.5,10.228Z" transform="translate(-4.117 -3.079)" fill="#fff"/>
  </g>
</svg>
