<svg xmlns="http://www.w3.org/2000/svg" width="20" height="20" viewBox="0 0 20 20">
  <g id="My_Managers" data-name="My Managers" transform="translate(-18.5 -276)">
    <g id="frame" transform="translate(19.5 277)" fill="none" stroke="#fff" stroke-width="1" opacity="0">
      <rect width="18" height="18" stroke="none"/>
      <rect x="-0.5" y="-0.5" width="19" height="19" fill="none"/>
    </g>
    <g id="group" transform="translate(19.5 279.5)">
      <path id="Path_7346" data-name="Path 7346" d="M8.991,5.869a2.684,2.684,0,1,1,2.684-2.684A2.681,2.681,0,0,1,8.991,5.869Zm0-4.8A2.113,2.113,0,1,0,11.1,3.184,2.121,2.121,0,0,0,8.991,1.071Z" fill="#fff" stroke="#fff" stroke-width="0.4"/>
      <path id="Path_7347" data-name="Path 7347" d="M14.53,6.1a1.885,1.885,0,1,1,1.885-1.885A1.877,1.877,0,0,1,14.53,6.1Zm0-3.2a1.314,1.314,0,1,0,1.314,1.313A1.316,1.316,0,0,0,14.53,2.9Z" fill="#fff" stroke="#fff" stroke-width="0.4"/>
      <path id="Path_7348" data-name="Path 7348" d="M3.451,6.1A1.885,1.885,0,1,1,5.336,4.212,1.877,1.877,0,0,1,3.451,6.1Zm0-3.2A1.314,1.314,0,1,0,4.764,4.212,1.316,1.316,0,0,0,3.451,2.9Z" fill="#fff" stroke="#fff" stroke-width="0.4"/>
      <path id="Path_7349" data-name="Path 7349" d="M14.549,10.3a11.2,11.2,0,0,1-1.637-.1l-.228-.038V9.847a4.223,4.223,0,0,0-.723-2.323l-.1-.133.076-.152A2.984,2.984,0,0,1,14.53,5.545,3.126,3.126,0,0,1,17.5,8.686C17.5,10.3,16,10.3,14.549,10.3Zm-1.295-.628a11.206,11.206,0,0,0,1.295.057c1.809,0,2.38-.152,2.38-1.047a2.555,2.555,0,0,0-2.4-2.57,2.384,2.384,0,0,0-2.018,1.237,4.775,4.775,0,0,1,.742,2.323Z" fill="#fff" stroke="#fff" stroke-width="0.4"/>
      <path id="Path_7350" data-name="Path 7350" d="M3.451,10.3C2,10.3.5,10.3.5,8.686A3.1,3.1,0,0,1,3.451,5.545,2.962,2.962,0,0,1,6.04,7.239l.076.152-.1.133a3.993,3.993,0,0,0-.7,2.3v.324l-.228.038a8.685,8.685,0,0,1-1.637.114Zm0-4.188a2.539,2.539,0,0,0-2.38,2.57c0,.895.571,1.047,2.38,1.047a11.2,11.2,0,0,0,1.294-.057,4.556,4.556,0,0,1,.723-2.323A2.384,2.384,0,0,0,3.451,6.116Z" fill="#fff" stroke="#fff" stroke-width="0.4"/>
      <path id="Path_7351" data-name="Path 7351" d="M8.991,12.113c-2.189,0-4.264,0-4.264-2.265A4.538,4.538,0,0,1,8.991,5.3a4.538,4.538,0,0,1,4.264,4.55C13.255,12.113,11.18,12.113,8.991,12.113Zm0-6.244A3.954,3.954,0,0,0,5.3,9.847c0,1.542,1.123,1.694,3.693,1.694s3.693-.152,3.693-1.694A3.954,3.954,0,0,0,8.991,5.869Z" fill="#fff" stroke="#fff" stroke-width="0.4"/>
    </g>
  </g>
</svg>
