<svg xmlns="http://www.w3.org/2000/svg" width="20" height="20" viewBox="0 0 20 20">
  <g id="Retention" transform="translate(2.998 -0.078)">
    <g id="frame" transform="translate(-1.998 1.078)" fill="none" stroke="#fff" stroke-width="1" opacity="0">
      <rect width="18" height="18" stroke="none"/>
      <rect x="-0.5" y="-0.5" width="19" height="19" fill="none"/>
    </g>
    <path id="Path_1058" data-name="Path 1058" d="M14.426,47.781a.54.54,0,0,0-.764,0c-2.976,2.971-1.587,1.585-4.545,4.535a2.741,2.741,0,0,1-3.882-3.872l4.545-4.535a.541.541,0,0,0,0-.765L7.423,40.79a.542.542,0,0,0-.764,0c-2.967,2.962-1.576,1.574-4.56,4.551a7.154,7.154,0,0,0,10.125,10.11c2.793-2.787,1.755-1.751,4.56-4.551a.541.541,0,0,0,0-.765Zm1.211,2.736-1.523,1.521-1.592-1.591,1.522-1.52Zm-7-6.991L7.116,45.042,5.524,43.451l1.517-1.515Zm2.826,11.159a6.073,6.073,0,0,1-8.6-8.58l1.9-1.892,1.592,1.591L4.473,47.679a3.822,3.822,0,0,0,5.409,5.4l1.876-1.871L13.349,52.8Z" transform="translate(-1.498 -39.27)" fill="#fff"/>
  </g>
</svg>
