<svg xmlns="http://www.w3.org/2000/svg" width="20" height="20" viewBox="0 0 20 20">
  <g id="Wellbeing" transform="translate(-16.887 -2.281)">
    <g id="frame" transform="translate(17.887 3.281)" fill="none" stroke="#fff" stroke-width="1" opacity="0">
      <rect width="18" height="18" stroke="none"/>
      <rect x="-0.5" y="-0.5" width="19" height="19" fill="none"/>
    </g>
    <path id="Shape" d="M34.2,9.133a.418.418,0,0,0-.491-.315,10.269,10.269,0,0,0-3.576,1.612,10.861,10.861,0,0,0-2.092-3.305.419.419,0,0,0-.3-.126.377.377,0,0,0-.3.128,10.9,10.9,0,0,0-2.067,3.324A10.249,10.249,0,0,0,21.765,8.82a.418.418,0,0,0-.491.314,10.332,10.332,0,0,0-.159,3.07,9.755,9.755,0,0,0-1.809-.005.418.418,0,0,0-.369.45c.013.15.332,3.685,2.761,5.68a8.484,8.484,0,0,0,5.265,1.642c.293,0,.521-.012.669-.023a.415.415,0,0,0,.1.021.4.4,0,0,0,.115-.023c.135.009.343.02.624.02a8.582,8.582,0,0,0,5.3-1.636c2.428-2,2.749-5.532,2.762-5.683a.418.418,0,0,0-.369-.45,9.611,9.611,0,0,0-1.808.009A10.326,10.326,0,0,0,34.2,9.133Zm-.7,3.19A7.316,7.316,0,0,0,30.059,13.8c-.071.056-.137.113-.2.174l-.009.009,0,.005L29.825,14a7.206,7.206,0,0,0-1.659,2.341c0-.146,0-.3-.011-.448a6.509,6.509,0,0,1,.938-3.217,5.647,5.647,0,0,1,1.11-1.249,9.194,9.194,0,0,1,3.256-1.684,9.786,9.786,0,0,1,.039,2.577Zm-5.756-4.27a10.163,10.163,0,0,1,1.7,2.937A6,6,0,0,0,27.733,13.6a6.056,6.056,0,0,0-1.676-2.585A10.2,10.2,0,0,1,27.742,8.053ZM22.013,9.747A9.162,9.162,0,0,1,25.3,11.458a5.563,5.563,0,0,1,1.076,1.224,6.528,6.528,0,0,1,.941,3.212c-.007.152-.01.3-.011.442a7.27,7.27,0,0,0-1.635-2.3.4.4,0,0,0-.068-.061c-.063-.056-.121-.115-.187-.167A7.426,7.426,0,0,0,21.97,12.32,9.825,9.825,0,0,1,22.013,9.747Zm.217,7.935A7.951,7.951,0,0,1,19.828,13a7.931,7.931,0,0,1,5.056,1.445,7.933,7.933,0,0,1,2.4,4.678A7.925,7.925,0,0,1,22.229,17.682ZM35.64,13a7.935,7.935,0,0,1-2.4,4.68,7.885,7.885,0,0,1-5.055,1.443c.028-.177.07-.4.13-.651a.152.152,0,0,1,.005-.027,7.549,7.549,0,0,1,2.1-3.854.482.482,0,0,0,.038-.039l.128-.109A6.861,6.861,0,0,1,33.928,13.1,9.8,9.8,0,0,1,35.64,13Z" transform="translate(-0.847 -1.217)" fill="#fff" stroke="#fff" stroke-width="0.3"/>
  </g>
</svg>
