<svg xmlns="http://www.w3.org/2000/svg" width="18.032" height="13.29" viewBox="0 0 18.032 13.29"><defs><style>.a{fill:#fff;}</style></defs><g transform="translate(-17.935 -5.999)"><path class="a" d="M34.571,9.185a.429.429,0,0,0-.5-.322A10.521,10.521,0,0,0,30.4,10.514a11.128,11.128,0,0,0-2.143-3.386A.429.429,0,0,0,27.955,7a.386.386,0,0,0-.308.131,11.169,11.169,0,0,0-2.117,3.406,10.5,10.5,0,0,0-3.7-1.672.429.429,0,0,0-.5.321,10.587,10.587,0,0,0-.163,3.146,9.995,9.995,0,0,0-1.854-.006.429.429,0,0,0-.378.461c.013.153.34,3.775,2.829,5.819a8.692,8.692,0,0,0,5.394,1.682c.3,0,.534-.012.686-.024a.425.425,0,0,0,.107.021.415.415,0,0,0,.117-.024c.138.009.352.021.639.021a8.793,8.793,0,0,0,5.426-1.676c2.487-2.047,2.816-5.668,2.83-5.822a.429.429,0,0,0-.378-.461,9.847,9.847,0,0,0-1.852.009A10.579,10.579,0,0,0,34.571,9.185Zm-.715,3.268a7.5,7.5,0,0,0-3.523,1.51c-.073.058-.14.116-.208.179l-.009.009-.005.006-.018.018a7.383,7.383,0,0,0-1.7,2.4c0-.149,0-.3-.011-.459a6.669,6.669,0,0,1,.961-3.3,5.786,5.786,0,0,1,1.137-1.28,9.419,9.419,0,0,1,3.336-1.725,10.026,10.026,0,0,1,.04,2.64Zm-5.9-4.375A10.411,10.411,0,0,1,29.7,11.088a6.151,6.151,0,0,0-1.753,2.679,6.206,6.206,0,0,0-1.717-2.648A10.446,10.446,0,0,1,27.958,8.079Zm-5.87,1.736a9.387,9.387,0,0,1,3.366,1.753,5.7,5.7,0,0,1,1.1,1.254,6.689,6.689,0,0,1,.964,3.291c-.007.156-.011.307-.012.453a7.448,7.448,0,0,0-1.675-2.357.4.4,0,0,0-.069-.063c-.064-.057-.124-.118-.192-.171a7.608,7.608,0,0,0-3.529-1.523A10.068,10.068,0,0,1,22.088,9.815Zm.222,8.129a8.146,8.146,0,0,1-2.46-4.792,8.126,8.126,0,0,1,5.18,1.48,8.127,8.127,0,0,1,2.46,4.792A8.119,8.119,0,0,1,22.31,17.944Zm13.74-4.793a8.13,8.13,0,0,1-2.46,4.795,8.079,8.079,0,0,1-5.179,1.478c.029-.182.072-.408.133-.667a.156.156,0,0,1,.006-.027A7.734,7.734,0,0,1,30.7,14.782a.49.49,0,0,0,.039-.04l.132-.111A7.029,7.029,0,0,1,34.3,13.249,10.036,10.036,0,0,1,36.05,13.151Z" transform="translate(-1 -1)"/></g></svg>