<svg xmlns="http://www.w3.org/2000/svg" width="62" height="40.998" viewBox="0 0 62 40.998"><defs><style>.a{fill:#f4effe;}.b{fill:#c4b8ff;}.c{fill:#7760db;}.d{fill:#fff;}.e{fill:#f8f7ff;}.f{fill:#e9e6ff;}</style></defs><g transform="translate(-620.805 -746)"><path class="a" d="M24.007,15.2c9.074-10.087,23.6-3.66,23.6,8.459S30.634,43.088,19.662,43.088s-34.053,2.014-34.053-10.1S14.933,25.29,24.007,15.2Z" transform="translate(635.195 743.785)"/><g transform="translate(-26.891 17.033)"><path class="b" d="M929.567,526.275a14.385,14.385,0,0,0,4.563-28.026l.092-.286a14.689,14.689,0,0,0-19.162,11.622l.3.048a14.554,14.554,0,0,0-.177,2.259,14.3,14.3,0,0,0,1.032,5.361l-.276.113a14.673,14.673,0,0,0,2.421,4.014l.232-.2A14.367,14.367,0,0,0,929.567,526.275Zm0-27.558a13.168,13.168,0,0,1,6.278,1.6l-.146.27a12.865,12.865,0,1,1-13.3,21.989l-.171.254a13.172,13.172,0,0,1,7.344-24.109Z" transform="translate(-262.874 231.762)"/><path class="c" d="M964.544,502.22l-.1.3-.092.286a14.383,14.383,0,1,1-15.535,22.936l-.232.2-.237.2a14.994,14.994,0,1,0,16.194-23.915Z" transform="translate(-293.086 227.211)"/><path class="c" d="M910.366,633.464a14.6,14.6,0,0,1,.177-2.266l-.3-.05-.306-.048a15.267,15.267,0,0,0-.185,2.364,14.976,14.976,0,0,0,1.081,5.612l.289-.117.277-.114a14.355,14.355,0,0,1-1.031-5.381Z" transform="translate(-258.055 110.183)"/><path class="d" d="M948.744,520.29a12.552,12.552,0,0,0-7,22.974l-.171.254a12.858,12.858,0,1,0,13.3-21.977l-.147.269A12.553,12.553,0,0,0,948.744,520.29Zm9.926,6.114.018-.01.613,1.063-.019.011a11.754,11.754,0,0,1,1.283,4.762h.019v1.227h-.019a11.739,11.739,0,0,1-1.281,4.763l.018.011-.615,1.062-.018-.011a11.938,11.938,0,0,1-3.486,3.486l.011.019-1.063.614-.01-.018a11.744,11.744,0,0,1-4.764,1.281v.016H948.13v-.019a11.749,11.749,0,0,1-4.762-1.28l-.012.02-1.062-.614.01-.018a11.911,11.911,0,0,1-3.482-3.489l-.022.013-.614-1.063.016-.008a11.743,11.743,0,0,1-1.273-4.765h-.02V532.23h.016a11.738,11.738,0,0,1,1.281-4.763l-.018-.011.614-1.062.019.011a11.923,11.923,0,0,1,3.486-3.485l-.011-.019,1.062-.615.01.018a11.746,11.746,0,0,1,4.764-1.281v-.016h1.228v.021a11.754,11.754,0,0,1,4.763,1.274l.009-.016,1.063.614-.013.022A11.929,11.929,0,0,1,958.67,526.4Z" transform="translate(-282.05 210.81)"/><path class="e" d="M1072.57,785.26Z" transform="translate(-405.877 -29.773)"/><path class="e" d="M1025.624,607.971l2.251,1.913-.832.974-2.3-1.95a17.879,17.879,0,0,1-10.446,5.085l-.141.245a11.8,11.8,0,0,0,4.782,1.285v-.61h1.232v.618a11.8,11.8,0,0,0,4.787-1.287l-.307-.531,1.068-.617.306.53a11.988,11.988,0,0,0,3.5-3.5l-.53-.306.618-1.067.53.306a11.791,11.791,0,0,0,1.286-4.783h-.618v-1.233h.618a11.805,11.805,0,0,0-1.285-4.783l-.245.141A17.844,17.844,0,0,1,1025.624,607.971Z" transform="translate(-352.922 139.94)"/><path class="e" d="M1201.17,656.68Z" transform="translate(-522.644 86.976)"/><path class="f" d="M1072.57,528.08Z" transform="translate(-405.877 203.741)"/><path class="f" d="M961.125,530.068l.308-.533a11.8,11.8,0,0,0-4.784-1.279v.613h-1.233v-.618a11.8,11.8,0,0,0-4.784,1.287l.307.53-1.067.617-.306-.529a11.973,11.973,0,0,0-3.5,3.5l.53.306-.617,1.068-.531-.307a11.788,11.788,0,0,0-1.287,4.783h.618v1.233h-.613a11.8,11.8,0,0,0,1.279,4.785l.534-.308.616,1.068-.527.3a11.965,11.965,0,0,0,3.5,3.5l.307-.531,1.067.617-.164.284a17.879,17.879,0,0,0,10.446-5.084l-4.658-3.958a1.4,1.4,0,0,1-1.346-2.433,1.348,1.348,0,0,1,.5-.219l1.664-6.568,1.24.314-1.664,6.6a1.524,1.524,0,0,1,.2.223,1.411,1.411,0,0,1,.232,1.1l4.715,4.007a17.842,17.842,0,0,0,4.275-9.569l-.285.165-.619-1.075.531-.307a11.982,11.982,0,0,0-3.5-3.5l-.3.527Zm-14.315,8.143c-.647-.346-.3-1.281.228-1.222C948.064,537.1,947.608,538.639,946.81,538.211Zm1.989-2.576c-1.756.555-.886-2.418.432-3.257.867-.555,2.244-1.033,2.446-.555.432,1.031-1.12,3.257-2.878,3.814Z" transform="translate(-289.284 203.586)"/><path class="c" d="M935.446,537.71l.172-.254.172-.254a12.566,12.566,0,0,1,13.035-21.451l.15-.268.147-.27a13.176,13.176,0,0,0-13.675,22.5Z" transform="translate(-276.07 216.865)"/><path class="c" d="M1067.329,585.053l-2.251-1.913-4.715-4.007a1.41,1.41,0,0,0-.232-1.1,1.534,1.534,0,0,0-.2-.223l1.664-6.6-1.24-.314-1.664,6.568a1.352,1.352,0,0,0-.5.219,1.4,1.4,0,0,0,1.346,2.433l4.658,3.958,2.3,1.95Zm-8.61-6.009a.363.363,0,1,1,.511.092A.37.37,0,0,1,1058.719,579.044Z" transform="translate(-392.339 164.829)"/><path class="c" d="M953.67,561.437l.307.532.011.018,1.067-.617-.011-.019-.306-.53Z" transform="translate(-281.906 192.218)"/><path class="c" d="M829.894,344.588l-.306-.53-.011-.018-1.067.618.011.018.306.53Z" transform="translate(-168.273 389.066)"/><path class="c" d="M1000.67,514.907l.53.305.019.011.617-1.067-.019-.01-.53-.306Z" transform="translate(-324.593 234.887)"/><path class="c" d="M785.046,388.987l-.53-.306-.019-.011-.617,1.067.018.01.532.307Z" transform="translate(-127.736 348.53)"/><path class="c" d="M1020.31,453.3h.633V452.07h-.633Z" transform="translate(-342.419 290.969)"/><path class="c" d="M770.624,452.07h-.634V453.3h.634Z" transform="translate(-115.129 290.969)"/><path class="c" d="M1001.286,390.045l.285-.164.245-.142.019-.011-.616-1.068-.018.011-.531.306Z" transform="translate(-324.593 348.54)"/><path class="c" d="M784.439,513.83l-.534.308-.015.009.616,1.068.022-.013.527-.3Z" transform="translate(-127.744 234.897)"/><path class="c" d="M953.988,344.04l-.009.016-.309.533,1.068.617.3-.527.013-.022Z" transform="translate(-281.906 389.066)"/><path class="c" d="M829.895,561.437l-1.068-.617-.307.532-.01.018,1.067.617.012-.019.141-.246Z" transform="translate(-168.273 192.218)"/><path class="c" d="M893.152,330.783v-.633H891.92v.633Z" transform="translate(-225.842 401.672)"/><path class="c" d="M891.91,580.47v.634h1.232v-.634Z" transform="translate(-225.832 174.384)"/><path class="d" d="M1069.23,653.373a.37.37,0,1,0-.511-.092A.37.37,0,0,0,1069.23,653.373Z" transform="translate(-402.322 90.589)"/><path class="d" d="M985.072,565.589c-1.317.838-2.19,3.815-.432,3.257s3.31-2.784,2.878-3.809C987.316,564.556,985.94,565.04,985.072,565.589Z" transform="translate(-325.154 170.352)"/><path class="d" d="M969.58,622.784c-.53-.059-.878.876-.228,1.222C970.15,624.431,970.606,622.894,969.58,622.784Z" transform="translate(-311.847 117.75)"/></g></g></svg>