<svg xmlns="http://www.w3.org/2000/svg" width="62" height="38.001" viewBox="0 0 62 38.001"><defs><style>.a{fill:#f4effe;}.b{fill:#ffcf5a;}.c{fill:#978ee5;}.d{fill:#7551cd;}.e{fill:#f780b9;}.f{fill:#ffa700;}</style></defs><g transform="translate(-497 -771.998)"><path class="a" d="M24.007,15.2c9.074-10.087,23.6-3.66,23.6,8.459S30.634,43.088,19.662,43.088s-34.053,2.014-34.053-10.1S14.933,25.29,24.007,15.2Z" transform="translate(511.391 766.785)"/><g transform="translate(439.99 773.148)"><g transform="translate(63.01 -1.151)"><circle class="b" cx="3.053" cy="3.053" r="3.053" transform="translate(0)"/></g><g transform="translate(66.253 2.865)"><path class="c" d="M126.431,44.7a.493.493,0,0,0-.394-.79H109.443a.493.493,0,0,0-.394.79l.846,1.124.349.255,6.058,8.026a2.743,2.743,0,0,1,.442.775c.02.06-.056.277-.04.338a2.9,2.9,0,0,1,.1.75v7.613a3.39,3.39,0,0,1-2.661,3.326l-.134.027a1.736,1.736,0,0,0-1.413,1.187h10.29a1.736,1.736,0,0,0-1.413-1.187l-.119-.024a3.394,3.394,0,0,1-2.675-3.329V55.971a2.9,2.9,0,0,1,.118-.82c.013-.043-.009-.148.006-.19a3.041,3.041,0,0,1,.426-.819l5.865-7.757.179-.14Z" transform="translate(-108.949 -43.914)"/><path class="d" d="M142.676,80.918l-6.058,8.046a2.894,2.894,0,0,0-.484.994h-2.071l-.022-.077a2.9,2.9,0,0,0-.462-.917l-6.324-8.4a22.012,22.012,0,0,1,6.156.838c2.536.585,5.305,1.1,7.782.251A6.493,6.493,0,0,0,142.676,80.918Z" transform="translate(-126.307 -78.65)"/><path class="d" d="M285.863,87.755,279.8,95.8a2.848,2.848,0,0,0-.327.553,3.183,3.183,0,0,0-.137.371c-.007.023-.014.047-.02.07h-1.07a2.9,2.9,0,0,1,.484-.994l5.318-7.207q.164-.048.326-.1A6.506,6.506,0,0,0,285.863,87.755Z" transform="translate(-269.494 -85.487)"/></g><g transform="matrix(0.755, 0.656, -0.656, 0.755, 84.049, 11.577)"><path class="c" d="M0,.854.321.9.432.045C.438-.006.361-.018.341.031Z" transform="translate(8.702 0)"/><path class="c" d="M0,9.045.419,9.2.682.523C.7,0,.254-.219.206.281Z" transform="translate(6.769 6.665) rotate(13)"/><path class="b" d="M8.967.081h0A1.775,1.775,0,0,0,8.3.005L.312.609S.946,1.229,0,2.1A2.637,2.637,0,0,1,2.25,4.59S5,3.4,7.1,6.459c0,0,3.621-1.068,5.717.425a2.573,2.573,0,0,1,2.65-1.16s-.746-1.433.3-1.7L9.335.244A1.77,1.77,0,0,0,8.967.081Z" transform="translate(0.136 0.671)"/><path class="e" d="M.078,1.873,8.556,0,.114,2.026A.089.089,0,0,1,0,1.973a.088.088,0,0,1,.074-.1Z" transform="translate(0 0.916)"/><path class="e" d="M.04,4,5.868,0,.149,4.137a.1.1,0,0,1-.131-.013A.083.083,0,0,1,.038,4Z" transform="translate(2.266 1.205)"/><path class="e" d="M0,6.058,1.519,0,.18,6.082a.1.1,0,0,1-.107.069A.077.077,0,0,1,0,6.06Z" transform="translate(7.179 1.061)"/><path class="e" d="M3.954,6.522,0,0,4.108,6.436a.081.081,0,0,1-.032.114.091.091,0,0,1-.122-.026Z" transform="translate(8.966 1.129)"/><path class="e" d="M6.084,5.336,0,0,6.211,5.215a.076.076,0,0,1,0,.115.1.1,0,0,1-.127.007Z" transform="translate(9.443 1.166)"/><path class="f" d="M3.036,0S-.07,2.068,0,2.754C.057,3.3,2.074,4.107,2.46,3.938,2.767,3.8,3.334-.067,3.036,0Z" transform="translate(4.913 1.558)"/><path class="f" d="M.577,0S-.193,3.4.046,3.5s2.09.408,2.25.049S.577,0,.577,0Z" transform="translate(8.478 2.082)"/><path class="f" d="M3.265,0A22.659,22.659,0,0,0,.005.8C-.049.988.339,2.277.66,2.2A25.544,25.544,0,0,0,3.265,0Z" transform="translate(2.866 1.713)"/></g></g></g></svg>