<svg xmlns="http://www.w3.org/2000/svg" width="17" height="17" viewBox="0 0 17 17"><defs><style>.a{fill:#fff;}</style></defs><g transform="translate(-13.619 -18.862)"><path class="a" d="M34.139,30.973a.256.256,0,0,0-.072-.072,8.482,8.482,0,0,0-11.941,0,.328.328,0,0,0-.04.033.319.319,0,0,0-.033.04,8.482,8.482,0,0,0,0,11.941.257.257,0,0,0,.072.072,8.482,8.482,0,0,0,11.941,0,.312.312,0,0,0,.04-.033.3.3,0,0,0,.033-.04,8.482,8.482,0,0,0,0-11.941Zm1.548,6.306h.231a7.8,7.8,0,0,1-2.056,4.957l-.161-.161a.335.335,0,1,0-.474.474l.161.161a7.8,7.8,0,0,1-4.957,2.056v-.231a.335.335,0,0,0-.67,0v.231A7.8,7.8,0,0,1,22.8,42.708l.161-.161a.335.335,0,0,0-.474-.474l-.161.161a7.8,7.8,0,0,1-2.056-4.956h.231a.335.335,0,1,0,0-.67h-.231a7.8,7.8,0,0,1,2.056-4.958l.161.161a.335.335,0,0,0,.474-.473l-.161-.161a7.8,7.8,0,0,1,4.956-2.056v.231a.335.335,0,0,0,.67,0v-.231a7.8,7.8,0,0,1,4.957,2.056l-.161.161a.335.335,0,1,0,.474.474l.161-.161a7.8,7.8,0,0,1,2.056,4.957h-.231a.335.335,0,1,0,0,.67Z" transform="translate(-5.977 -9.582)"/><path class="a" d="M40.382,43.153l-3.64-.724,1.447-2.166a.3.3,0,0,0-.413-.413L35.611,41.3l-.723-3.64a.3.3,0,0,0-.584,0L33.58,41.3,31.415,39.85a.3.3,0,0,0-.413.413l1.447,2.166-3.64.724a.3.3,0,0,0,0,.584l3.641.724L31,46.625a.3.3,0,0,0,.413.413l2.165-1.448.723,3.64a.3.3,0,0,0,.584,0l.723-3.64,2.165,1.448a.3.3,0,0,0,.413-.413L36.741,44.46l3.641-.724a.3.3,0,0,0,0-.584Zm-3.521-1.975L36.109,42.3l-.311-.062-.062-.312Zm-4.533,0,1.126.753-.062.312-.311.062Zm0,4.533.752-1.124.31.062.062.311Zm4.53,0-1.124-.751.062-.311.31-.062ZM35.487,44.1a.3.3,0,0,0-.234.234l-.657,3.31-.658-3.31A.3.3,0,0,0,33.7,44.1l-3.31-.658,3.31-.658a.3.3,0,0,0,.234-.235l.658-3.31.658,3.31a.3.3,0,0,0,.234.234l3.31.658Z" transform="translate(-12.423 -16.03)"/></g></svg>