<svg xmlns="http://www.w3.org/2000/svg" width="11.78" height="18.849" viewBox="0 0 11.78 18.849"><defs><style>.a{fill:#fff;}</style></defs><g transform="translate(-7.001 -4)"><path class="a" d="M10.031,22.849a.588.588,0,0,1-.568-.746l2.065-7.5H7.589a.588.588,0,0,1-.471-.941l7.048-9.425a.589.589,0,0,1,1.053.448l-1.046,6.384h4.018a.588.588,0,0,1,.467.948l-8.16,10.6A.589.589,0,0,1,10.031,22.849ZM8.766,13.425H12.3a.589.589,0,0,1,.568.746L11.4,19.521l5.6-7.275H13.479a.587.587,0,0,1-.449-.207.594.594,0,0,1-.133-.477l.769-4.691Z"/></g></svg>