<svg xmlns="http://www.w3.org/2000/svg" width="13.052" height="14.503" viewBox="0 0 13.052 14.503"><g transform="translate(-3.384)"><path d="M14.006,23.348H11.839v1.286h2.167c.644,0,1.144.329,1.144.613v5.7c0,.283-.5.613-1.144.613H5.814c-.644,0-1.144-.329-1.144-.613v-5.7c0-.283.5-.613,1.144-.613H7.981V23.348H5.814a2.19,2.19,0,0,0-2.43,1.9v5.7a2.19,2.19,0,0,0,2.43,1.9h8.192a2.19,2.19,0,0,0,2.43-1.9v-5.7A2.19,2.19,0,0,0,14.006,23.348Z" transform="translate(0 -18.344)"/><path d="M22.6,3.205a.641.641,0,0,0,.455-.188l.8-.8V8.753a.643.643,0,1,0,1.286,0V2.168l.848.848a.643.643,0,0,0,.909-.909L24.983.188A.64.64,0,0,0,24.528,0h-.01a.64.64,0,0,0-.454.188l-1.92,1.92a.643.643,0,0,0,.455,1.1Z" transform="translate(-14.592)"/></g></svg>