<svg xmlns="http://www.w3.org/2000/svg" width="24.082" height="24.082" viewBox="0 0 24.082 24.082"><path d="M154.349,159.366a5.017,5.017,0,1,1,5.017-5.017A5.023,5.023,0,0,1,154.349,159.366Zm0-8.529a3.512,3.512,0,1,0,3.512,3.512A3.516,3.516,0,0,0,154.349,150.837Zm0,0" transform="translate(-142.308 -142.308)"/><path d="M52.7,62.736A10.034,10.034,0,1,1,62.736,52.7,10.046,10.046,0,0,1,52.7,62.736Zm0-18.563A8.529,8.529,0,1,0,61.231,52.7,8.539,8.539,0,0,0,52.7,44.173Zm0,0" transform="translate(-40.661 -40.661)"/><path d="M240.753,5.017A.753.753,0,0,1,240,4.265V.753a.753.753,0,1,1,1.505,0V4.265A.753.753,0,0,1,240.753,5.017Zm0,0" transform="translate(-228.711)"/><path d="M240.753,410.349A.753.753,0,0,1,240,409.6v-3.512a.753.753,0,1,1,1.505,0V409.6A.753.753,0,0,1,240.753,410.349Zm0,0" transform="translate(-228.711 -386.267)"/><path d="M4.265,241.505H.753a.753.753,0,1,1,0-1.505H4.265a.753.753,0,1,1,0,1.505Zm0,0" transform="translate(0 -228.711)"/><path d="M409.6,241.505h-3.512a.753.753,0,1,1,0-1.505H409.6a.753.753,0,1,1,0,1.505Zm0,0" transform="translate(-386.267 -228.711)"/></svg>