<svg xmlns="http://www.w3.org/2000/svg" width="10.685" height="16.202" viewBox="0 0 10.685 16.202"><defs><style>.a{fill:#fff;}</style></defs><g transform="translate(-154.178 -205.627)"><path class="a" d="M242.238,17.225V14.337c1.37-.566,2.511-.217,3.929.217a11.676,11.676,0,0,0,3.547.669,8.058,8.058,0,0,0,1.465-.135.619.619,0,0,0,.362-1.007l-2.193-2.612,2.2-2.7a.619.619,0,0,0-.592-1,8.722,8.722,0,0,1-4.425-.5,6.964,6.964,0,0,0-4.292-.347V6.789a.619.619,0,1,0-1.238,0V17.225Zm0-8.987c1.37-.566,2.511-.217,3.929.217a11.78,11.78,0,0,0,3.495.669l-1.6,1.961a.619.619,0,0,0,.006.789l1.771,2.11a10.293,10.293,0,0,1-3.312-.613,6.964,6.964,0,0,0-4.292-.347Zm-.619,14.135a.619.619,0,0,0,.619-.619V16.886H241v4.868A.619.619,0,0,0,241.619,22.372Z" transform="translate(-86.822 199.457)"/></g></svg>