<svg xmlns="http://www.w3.org/2000/svg" width="17.006" height="14.947" viewBox="0 0 17.006 14.947"><defs><style>.a{fill:#fff;}</style></defs><g transform="translate(-5.994 -552.734)"><path class="a" d="M16.01,42.089V35.206l.673-.251a.5.5,0,0,0,0-.934l-8-2.989a.5.5,0,0,0-.349,0l-8,2.989a.5.5,0,0,0,0,.933l3.317,1.239a9.426,9.426,0,0,0-.618,3.775.5.5,0,0,0,.683.463,9.616,9.616,0,0,0,4.8,1.781,9.612,9.612,0,0,0,4.8-1.781.5.5,0,0,0,.683-.463,9.494,9.494,0,0,0-.619-3.775l1.648-.615v6.511a1.63,1.63,0,0,0-.652.732,3.73,3.73,0,0,0-.344,1.632v1a.5.5,0,0,0,.5.5h1.993a.5.5,0,0,0,.5-.5v-1a3.73,3.73,0,0,0-.344-1.632,1.63,1.63,0,0,0-.652-.732ZM8.5,32.03l6.581,2.458L8.5,36.945,1.922,34.488Zm4.48,7.248c-.511-.145-2.24,1.576-4.48,1.576s-3.969-1.721-4.48-1.576a8.258,8.258,0,0,1,.551-2.736l3.754,1.4a.5.5,0,0,0,.349,0l3.754-1.4a8.26,8.26,0,0,1,.551,2.736ZM16.01,44.95h-1v-.5a2.766,2.766,0,0,1,.239-1.186c.127-.255.242-.308.259-.308s.132.054.259.308a2.766,2.766,0,0,1,.239,1.186Z" transform="translate(5.994 521.734)"/></g></svg>