<svg xmlns="http://www.w3.org/2000/svg" width="15.999" height="18.788" viewBox="0 0 15.999 18.788">
  <g id="shield" transform="translate(0 0.001)">
    <path id="Path_1247" data-name="Path 1247" d="M15.981,5.1V5.082c-.008-.18-.014-.371-.017-.584a1.991,1.991,0,0,0-1.875-1.951A7.727,7.727,0,0,1,8.829.331L8.817.319a1.2,1.2,0,0,0-1.634,0L7.171.331A7.728,7.728,0,0,1,1.912,2.548,1.991,1.991,0,0,0,.037,4.5c0,.211-.009.4-.017.584v.034a20.362,20.362,0,0,0,.823,7.433,9.461,9.461,0,0,0,2.27,3.536,11.874,11.874,0,0,0,4.442,2.627,1.374,1.374,0,0,0,.182.05,1.345,1.345,0,0,0,.529,0,1.374,1.374,0,0,0,.183-.05,11.882,11.882,0,0,0,4.437-2.629,9.475,9.475,0,0,0,2.27-3.536A20.393,20.393,0,0,0,15.981,5.1ZM14.12,12.165a9.116,9.116,0,0,1-6.037,5.506l-.035.009a.248.248,0,0,1-.1,0l-.035-.009a9.105,9.105,0,0,1-6.04-5.5,19.211,19.211,0,0,1-.755-7.03V5.125c.009-.191.014-.391.017-.61a.885.885,0,0,1,.834-.866,9.673,9.673,0,0,0,3.283-.722,8.589,8.589,0,0,0,2.676-1.8.1.1,0,0,1,.136,0,8.593,8.593,0,0,0,2.676,1.8,9.673,9.673,0,0,0,3.283.722.885.885,0,0,1,.834.866c0,.221.009.421.018.61A19.222,19.222,0,0,1,14.12,12.165Zm0,0" transform="translate(0 0)" fill="#c8c8c8"/>
    <path id="Path_1248" data-name="Path 1248" d="M95.081,128.41a4.682,4.682,0,1,0,4.682,4.682A4.688,4.688,0,0,0,95.081,128.41Zm0,8.262a3.58,3.58,0,1,1,3.58-3.58A3.584,3.584,0,0,1,95.081,136.672Zm0,0" transform="translate(-87.081 -123.699)" fill="#c8c8c8"/>
    <path id="Path_1249" data-name="Path 1249" d="M157.379,212.153l-2.175,2.175-.59-.59a.551.551,0,0,0-.78.78l.98.98a.551.551,0,0,0,.78,0l2.565-2.565a.551.551,0,0,0-.78-.78Zm0,0" transform="translate(-148.033 -204.213)" fill="#c8c8c8"/>
  </g>
</svg>
