<svg xmlns="http://www.w3.org/2000/svg" viewBox="0 0 16 14.1">
  <path fill="#2f4d6f" d="M15 10.4V4l.7-.3a.5.5 0 0 0 0-.9L8.2 0a.5.5 0 0 0-.4 0L.3 2.8a.5.5 0 0 0 0 1l3.1 1a8.9 8.9 0 0 0-.6 3.6.5.5 0 0 0 .2.4 11 11 0 0 0 5 1.7 11 11 0 0 0 5-1.7.5.5 0 0 0 .2-.4 9 9 0 0 0-.6-3.5l1.5-.6v6.1a1.5 1.5 0 0 0-.6.7 3.5 3.5 0 0 0-.3 1.6v.9a.5.5 0 0 0 .5.5h1.8a.5.5 0 0 0 .5-.5v-1a3.5 3.5 0 0 0-.3-1.5 1.5 1.5 0 0 0-.6-.7ZM8 1l6.2 2.3L8 5.6 1.8 3.3Zm4.2 6.8c-.5-.1-2 1.5-4.2 1.5S4.3 7.7 3.8 7.8a7.8 7.8 0 0 1 .5-2.6l3.5 1.3a.5.5 0 0 0 .4 0l3.5-1.3a7.8 7.8 0 0 1 .5 2.6Zm2.9 5.3h-1v-.4a2.6 2.6 0 0 1 .3-1.2c0-.2.2-.2.2-.2l.2.2a2.6 2.6 0 0 1 .3 1.2Z"/>
</svg>
