<svg xmlns="http://www.w3.org/2000/svg" width="11.78" height="18.849" viewBox="0 0 11.78 18.849">
  <g id="Lightning" transform="translate(-44.001 -40.998)">
    <path id="icon" d="M10.031,22.849a.588.588,0,0,1-.568-.746l2.065-7.5H7.589a.588.588,0,0,1-.471-.941l7.048-9.425a.589.589,0,0,1,1.053.448l-1.046,6.384h4.018a.588.588,0,0,1,.467.948l-8.16,10.6A.589.589,0,0,1,10.031,22.849Z" transform="translate(37 36.998)" fill="#fff"/>
    <path id="icon-2" data-name="icon" d="M10.031,22.849a.588.588,0,0,1-.568-.746l2.065-7.5H7.589a.588.588,0,0,1-.471-.941l7.048-9.425a.589.589,0,0,1,1.053.448l-1.046,6.384h4.018a.588.588,0,0,1,.467.948l-8.16,10.6A.589.589,0,0,1,10.031,22.849ZM8.766,13.425H12.3a.589.589,0,0,1,.568.746L11.4,19.521l5.6-7.275H13.479a.587.587,0,0,1-.449-.207.594.594,0,0,1-.133-.477l.769-4.691Z" transform="translate(37 36.998)" fill="#222"/>
  </g>
</svg>
