<svg xmlns="http://www.w3.org/2000/svg" width="65.026" height="40.025" viewBox="0 0 65.026 40.025"><defs><style>.a{fill:#f4effe;}.b{fill:#ffcf5a;}.c{fill:#7450cc;stroke:#7450cc;stroke-width:0.5px;}</style></defs><g transform="translate(-619.779 -746.973)"><path class="a" d="M24.007,15.2c9.074-10.087,23.6-3.66,23.6,8.459S30.634,43.088,19.662,43.088s-34.053,2.014-34.053-10.1S14.933,25.29,24.007,15.2Z" transform="translate(637.195 743.785)"/><g transform="translate(143 10)"><path class="b" d="M117.806,110.3a10.3,10.3,0,1,1-11.766-16.552A13.4,13.4,0,1,0,119.8,107.5,10.276,10.276,0,0,1,117.806,110.3Z" transform="translate(395.957 646.048)"/><g transform="translate(487.369 739.524)"><path class="c" d="M309.557,97.1l.6,5.4.6-5.4,5.4-.6-5.4-.6-.6-5.4-.6,5.4-5.4.6Z" transform="translate(-284.718 -93.022)"/><path class="c" d="M78.52,369.3l.348,3.152.348-3.152,3.152-.348-3.152-.348-.348-3.152L78.52,368.6l-3.152.348Z" transform="translate(-85.931 -354.973)"/></g></g></g></svg>