<svg xmlns="http://www.w3.org/2000/svg" width="16.4" height="16.4" viewBox="0 0 16.4 16.4"><defs><style>.a{fill:#fff;stroke:#fff;stroke-width:0.4px;}</style></defs><g transform="translate(0.2 0.2)"><path class="a" d="M137.434,133.609a3.825,3.825,0,1,0,3.825,3.825A3.829,3.829,0,0,0,137.434,133.609Zm0,6.693a2.869,2.869,0,1,1,2.869-2.869A2.872,2.872,0,0,1,137.434,140.3Zm0,0" transform="translate(-129.434 -129.434)"/><path class="a" d="M15.624,6.178l-1.23-.267a6.693,6.693,0,0,0-.4-.954L14.679,3.9a.478.478,0,0,0-.064-.6L12.7,1.385a.478.478,0,0,0-.6-.064L11.043,2a6.692,6.692,0,0,0-.954-.4L9.822.376A.478.478,0,0,0,9.355,0H6.645a.478.478,0,0,0-.467.376l-.267,1.23a6.693,6.693,0,0,0-.954.4L3.9,1.321a.478.478,0,0,0-.6.064L1.385,3.3a.478.478,0,0,0-.064.6L2,4.957a6.693,6.693,0,0,0-.4.954l-1.23.267A.478.478,0,0,0,0,6.645V9.355a.478.478,0,0,0,.376.467l1.23.267a6.692,6.692,0,0,0,.4.954L1.321,12.1a.478.478,0,0,0,.064.6L3.3,14.615a.478.478,0,0,0,.6.064L4.957,14a6.693,6.693,0,0,0,.954.4l.267,1.23A.478.478,0,0,0,6.645,16H9.355a.478.478,0,0,0,.467-.376l.267-1.23a6.693,6.693,0,0,0,.954-.4l1.059.681a.478.478,0,0,0,.6-.064L14.615,12.7a.478.478,0,0,0,.064-.6L14,11.043a6.693,6.693,0,0,0,.4-.954l1.23-.267A.478.478,0,0,0,16,9.355V6.645A.478.478,0,0,0,15.624,6.178Zm-.58,2.791-1.128.245a.478.478,0,0,0-.359.339,5.736,5.736,0,0,1-.53,1.277.478.478,0,0,0,.014.494l.624.971L12.3,13.666l-.971-.624a.478.478,0,0,0-.493-.014,5.74,5.74,0,0,1-1.278.53.478.478,0,0,0-.339.359l-.245,1.128H7.031l-.245-1.128a.478.478,0,0,0-.339-.359,5.736,5.736,0,0,1-1.277-.53.478.478,0,0,0-.494.014l-.971.624L2.334,12.3l.624-.971a.478.478,0,0,0,.014-.494,5.742,5.742,0,0,1-.53-1.277.478.478,0,0,0-.359-.339L.956,8.969V7.031l1.128-.245a.478.478,0,0,0,.359-.339,5.736,5.736,0,0,1,.53-1.277.478.478,0,0,0-.014-.494L2.334,3.7,3.7,2.334l.971.624a.478.478,0,0,0,.493.014,5.74,5.74,0,0,1,1.278-.53.478.478,0,0,0,.339-.359L7.031.956H8.969l.245,1.128a.478.478,0,0,0,.339.359,5.736,5.736,0,0,1,1.277.53.478.478,0,0,0,.494-.014l.971-.624L13.666,3.7l-.624.971a.478.478,0,0,0-.014.494,5.737,5.737,0,0,1,.53,1.277.478.478,0,0,0,.359.339l1.128.245Zm0,0"/></g></svg>