<svg xmlns="http://www.w3.org/2000/svg" width="13.122" height="13.63" viewBox="0 0 13.122 13.63">
  <g id="thumb_up" data-name="thumb up" transform="translate(-112.276 -15.949)">
    <path id="Path_7105" data-name="Path 7105" d="M129.734,99.518a.825.825,0,0,0-.824.824v7.215a.824.824,0,0,0,.824.824h2.387a.824.824,0,0,0,.824-.767l.511.307h0a3.134,3.134,0,0,0,1.611.447h3.484a3.043,3.043,0,0,0,1.227-.244,1.8,1.8,0,0,0,1.205-1.941,1.814,1.814,0,0,0,.536-2.015,1.8,1.8,0,0,0,.412-1.189,1.729,1.729,0,0,0-.338-.938,1.512,1.512,0,0,0-.378-1.728,1.4,1.4,0,0,0-.107-.091h0a1.568,1.568,0,0,0-.633-.28h-.018a12.371,12.371,0,0,0-2.91-.247,3.9,3.9,0,0,1,.287-1.756,2.61,2.61,0,0,0-.079-2.241,1.861,1.861,0,0,0-1.33-.847h-.051a.872.872,0,0,0-.849.617.4.4,0,0,0-.013.059l-.124.89a2.657,2.657,0,0,1-.231.772l-1.2,2.524a1.416,1.416,0,0,1-1.009.824v-.2a.824.824,0,0,0-.824-.824Zm0,8.039v-7.215h2.387v7.215Zm3.3-6.189a2.231,2.231,0,0,0,1.665-1.319l1.192-2.518a3.474,3.474,0,0,0,.3-1.012l.127-.833a.044.044,0,0,1,.021-.012,1.046,1.046,0,0,1,.711.458,1.881,1.881,0,0,1,0,1.548,4.489,4.489,0,0,0-.3,2.26h0a.745.745,0,0,0,.732.58,11.882,11.882,0,0,1,2.8.229h.017a.758.758,0,0,1,.3.129l.053.044a.742.742,0,0,1,.1.96h0a.412.412,0,0,0,.072.529.977.977,0,0,1,.279.6,1.132,1.132,0,0,1-.371.8.412.412,0,0,0-.054.495,1.032,1.032,0,0,1-.4,1.385h0a.419.419,0,0,0-.145.468c.044.132.219.808-.686,1.205a2.225,2.225,0,0,1-.907.171h-3.49a2.31,2.31,0,0,1-1.185-.33l-.93-.557v-5.276Z" transform="translate(-16.584 -78.853)" fill="#222" stroke="#222" stroke-width="0.1"/>
  </g>
</svg>
