<svg xmlns="http://www.w3.org/2000/svg" width="20.002" height="23.488" viewBox="0 0 20.002 23.488">
  <g id="shield" transform="translate(-1.012 -0.664)">
    <path id="Path_1247" data-name="Path 1247" d="M19.978,6.372V6.354c-.01-.226-.017-.464-.021-.73a2.489,2.489,0,0,0-2.344-2.439A9.66,9.66,0,0,1,11.038.414L11.023.4A1.5,1.5,0,0,0,8.98.4L8.965.414A9.661,9.661,0,0,1,2.39,3.185,2.489,2.489,0,0,0,.046,5.624c0,.264-.011.5-.021.73V6.4c-.053,2.754-.118,6.181,1.029,9.292a11.828,11.828,0,0,0,2.838,4.42,14.844,14.844,0,0,0,5.553,3.285,1.718,1.718,0,0,0,.228.062,1.681,1.681,0,0,0,.661,0,1.718,1.718,0,0,0,.228-.062,14.854,14.854,0,0,0,5.547-3.286,11.845,11.845,0,0,0,2.838-4.421C20.1,12.565,20.031,9.131,19.978,6.372Zm-2.327,8.836c-1.209,3.279-3.678,5.53-7.547,6.883a.355.355,0,0,1-.044.012.31.31,0,0,1-.121,0L9.9,22.091c-3.873-1.35-6.343-3.6-7.551-6.88-1.057-2.867-1-6.013-.944-8.789V6.407c.011-.239.018-.488.022-.763A1.106,1.106,0,0,1,2.467,4.561a12.093,12.093,0,0,0,4.1-.9A10.738,10.738,0,0,0,9.916,1.411a.127.127,0,0,1,.171,0,10.742,10.742,0,0,0,3.345,2.247,12.093,12.093,0,0,0,4.1.9,1.106,1.106,0,0,1,1.043,1.083c0,.276.011.526.022.763C18.653,9.186,18.712,12.334,17.652,15.208Zm0,0" transform="translate(1.011 0.665)" fill="#fff"/>
    <g id="unlock" transform="translate(5.002 7.999)">
      <g id="Group_920" data-name="Group 920" transform="translate(3 3.334)">
        <path id="Path_3345" data-name="Path 3345" d="M8.335,14.668H3.667A.668.668,0,0,1,3,14V10.667A.668.668,0,0,1,3.667,10H8.335A.668.668,0,0,1,9,10.667V14A.668.668,0,0,1,8.335,14.668ZM3.667,10.333a.334.334,0,0,0-.333.333V14a.334.334,0,0,0,.333.333H8.335A.334.334,0,0,0,8.669,14V10.667a.334.334,0,0,0-.333-.333Z" transform="translate(-3 -10)" fill="#fff" stroke="#fff" stroke-width="0.8"/>
      </g>
      <g id="Group_921" data-name="Group 921" transform="translate(4)">
        <path id="Path_3346" data-name="Path 3346" d="M6.167,3.668A.167.167,0,0,1,6,3.5V2a2,2,0,1,1,4,0v.167a.167.167,0,1,1-.333,0V2A1.667,1.667,0,1,0,6.333,2V3.5A.167.167,0,0,1,6.167,3.668Z" transform="translate(-6)" fill="#fff" stroke="#fff" stroke-width="0.8"/>
        <path id="Path_3347" data-name="Path 3347" d="M9.835,3.668A.167.167,0,0,0,10,3.5V2A2,2,0,1,0,6,2v.167a.167.167,0,0,0,.333,0V2A1.667,1.667,0,1,1,9.668,2V3.5A.167.167,0,0,0,9.835,3.668Z" transform="translate(-6)" fill="#fff" stroke="#fff" stroke-width="0.8"/>
      </g>
    </g>
  </g>
</svg>
